<mxfile host="app.diagrams.net" modified="2024-01-06T16:17:03.628Z" agent="Mozilla/5.0 (Windows NT 10.0; Win64; x64) AppleWebKit/537.36 (KHTML, like Gecko) Chrome/120.0.0.0 Safari/537.36" etag="F8XbtvHDfbJSwFEdabPa" version="22.1.17" type="device">
  <diagram name="Page-1" id="PSWCGS-1cpGPaFOUUz-X">
    <mxGraphModel dx="3660" dy="1949" grid="0" gridSize="10" guides="1" tooltips="1" connect="1" arrows="1" fold="1" page="1" pageScale="1" pageWidth="3300" pageHeight="4681" math="0" shadow="0">
      <root>
        <mxCell id="0" />
        <mxCell id="1" parent="0" />
        <mxCell id="M6HZu9PlmywMM8g6Wbbx-5" value="&lt;p style=&quot;margin:0px;margin-top:4px;text-align:center;&quot;&gt;&lt;b&gt;&lt;font style=&quot;font-size: 10px;&quot;&gt;&amp;lt;&amp;lt;interface&amp;gt;&amp;gt;&lt;/font&gt;&lt;/b&gt;&lt;/p&gt;&lt;p style=&quot;margin:0px;margin-top:4px;text-align:center;&quot;&gt;&lt;b&gt;&lt;font style=&quot;font-size: 12px;&quot;&gt;CopyManager&lt;/font&gt;&lt;/b&gt;&lt;/p&gt;&lt;hr size=&quot;1&quot;&gt;&lt;div style=&quot;height:2px;&quot;&gt;&lt;/div&gt;&lt;hr size=&quot;1&quot;&gt;&lt;div style=&quot;height:2px;&quot;&gt;&amp;nbsp;+ copyInfo: Object&amp;nbsp;&lt;/div&gt;" style="verticalAlign=top;align=left;overflow=fill;fontSize=12;fontFamily=Helvetica;html=1;whiteSpace=wrap;" parent="1" vertex="1">
          <mxGeometry x="1225" y="547" width="280" height="90" as="geometry" />
        </mxCell>
        <mxCell id="M6HZu9PlmywMM8g6Wbbx-6" value="&lt;p style=&quot;margin:0px;margin-top:4px;text-align:center;&quot;&gt;&lt;b&gt;AutomaticEvaluationManager&lt;/b&gt;&lt;/p&gt;&lt;hr size=&quot;1&quot;&gt;&lt;div style=&quot;height:2px;&quot;&gt;&lt;/div&gt;&lt;hr size=&quot;1&quot;&gt;&lt;div style=&quot;height:2px;&quot;&gt;&amp;nbsp;+ &amp;lt;&amp;lt;implent&amp;gt;&amp;gt; copyInfo(): SoftwareProject&lt;/div&gt;" style="verticalAlign=top;align=left;overflow=fill;fontSize=12;fontFamily=Helvetica;html=1;whiteSpace=wrap;" parent="1" vertex="1">
          <mxGeometry x="1784" y="548" width="310" height="90" as="geometry" />
        </mxCell>
        <mxCell id="M6HZu9PlmywMM8g6Wbbx-19" value="Use" style="endArrow=open;endSize=12;dashed=1;html=1;rounded=0;exitX=1;exitY=0.5;exitDx=0;exitDy=0;entryX=1;entryY=0.5;entryDx=0;entryDy=0;" parent="1" edge="1">
          <mxGeometry width="160" relative="1" as="geometry">
            <mxPoint x="2095" y="594.0000000000001" as="sourcePoint" />
            <mxPoint x="1065" y="591" as="targetPoint" />
            <Array as="points">
              <mxPoint x="2166" y="594" />
              <mxPoint x="2164" y="778" />
              <mxPoint x="1085" y="778" />
              <mxPoint x="1085" y="594" />
            </Array>
          </mxGeometry>
        </mxCell>
        <mxCell id="M6HZu9PlmywMM8g6Wbbx-20" value="&lt;p style=&quot;margin:0px;margin-top:4px;text-align:center;&quot;&gt;&lt;b&gt;&lt;font style=&quot;font-size: 10px;&quot;&gt;&amp;lt;&amp;lt;interface&amp;gt;&amp;gt;&lt;/font&gt;&lt;/b&gt;&lt;/p&gt;&lt;p style=&quot;margin:0px;margin-top:4px;text-align:center;&quot;&gt;&lt;b&gt;&lt;font style=&quot;font-size: 12px;&quot;&gt;InformationService&lt;/font&gt;&lt;/b&gt;&lt;/p&gt;&lt;hr size=&quot;1&quot;&gt;&lt;div style=&quot;height:2px;&quot;&gt;&lt;/div&gt;&lt;hr size=&quot;1&quot;&gt;&lt;div style=&quot;height:2px;&quot;&gt;&amp;nbsp;+ getStudentTournamentLeaderboard(Tournament tournament) : Map&amp;lt;Student, Score&amp;gt;&lt;/div&gt;&lt;div style=&quot;height:2px;&quot;&gt;&lt;br&gt;&lt;/div&gt;&lt;div style=&quot;height:2px;&quot;&gt;&lt;br&gt;&lt;/div&gt;&lt;div style=&quot;height:2px;&quot;&gt;&lt;br&gt;&lt;/div&gt;&lt;div style=&quot;height:2px;&quot;&gt;&lt;br&gt;&lt;/div&gt;&lt;div style=&quot;height:2px;&quot;&gt;&lt;br&gt;&lt;/div&gt;&lt;div style=&quot;height:2px;&quot;&gt;&lt;br&gt;&lt;/div&gt;&lt;div style=&quot;height:2px;&quot;&gt;&lt;br&gt;&lt;/div&gt;&lt;div style=&quot;height:2px;&quot;&gt;&lt;br&gt;&lt;/div&gt;&lt;div style=&quot;height:2px;&quot;&gt;&lt;br&gt;&lt;/div&gt;&lt;div style=&quot;height:2px;&quot;&gt;&lt;br&gt;&lt;/div&gt;&lt;div style=&quot;height:2px;&quot;&gt;&lt;br&gt;&lt;/div&gt;&lt;div style=&quot;height:2px;&quot;&gt;&amp;nbsp;+ getStudentBattleLeaderboard(Battle battle) : Map&amp;lt;Student, Score&amp;gt;&lt;/div&gt;&lt;div style=&quot;height:2px;&quot;&gt;&lt;br&gt;&lt;/div&gt;&lt;div style=&quot;height:2px;&quot;&gt;&lt;br&gt;&lt;/div&gt;&lt;div style=&quot;height:2px;&quot;&gt;&lt;br&gt;&lt;/div&gt;&lt;div style=&quot;height:2px;&quot;&gt;&lt;br&gt;&lt;/div&gt;&lt;div style=&quot;height:2px;&quot;&gt;&lt;br&gt;&lt;/div&gt;&lt;div style=&quot;height:2px;&quot;&gt;&lt;br&gt;&lt;/div&gt;&lt;div style=&quot;height:2px;&quot;&gt;&lt;br&gt;&lt;/div&gt;&lt;div style=&quot;height:2px;&quot;&gt;&lt;br&gt;&lt;/div&gt;&lt;div style=&quot;height:2px;&quot;&gt;&amp;nbsp; &amp;nbsp;&lt;/div&gt;&lt;div style=&quot;height:2px;&quot;&gt;&amp;nbsp;&lt;/div&gt;&lt;div style=&quot;height:2px;&quot;&gt;&amp;nbsp;+ getTeamBattleLeaderboard(Battle battle) : Map&amp;lt;Team, Score&amp;gt;&lt;/div&gt;&lt;div style=&quot;height:2px;&quot;&gt;&lt;br&gt;&lt;/div&gt;&lt;div style=&quot;height:2px;&quot;&gt;&lt;br&gt;&lt;/div&gt;&lt;div style=&quot;height:2px;&quot;&gt;&lt;br&gt;&lt;/div&gt;&lt;div style=&quot;height:2px;&quot;&gt;&lt;br&gt;&lt;/div&gt;&lt;div style=&quot;height:2px;&quot;&gt;&lt;br&gt;&lt;/div&gt;&lt;div style=&quot;height:2px;&quot;&gt;&lt;br&gt;&lt;/div&gt;&lt;div style=&quot;height:2px;&quot;&gt;&lt;br&gt;&lt;/div&gt;&lt;div style=&quot;height:2px;&quot;&gt;&lt;br&gt;&lt;/div&gt;&lt;div style=&quot;height:2px;&quot;&gt;&lt;br&gt;&lt;/div&gt;&lt;div style=&quot;height:2px;&quot;&gt;&amp;nbsp;+ getTournamentInformations(Tournament tournament) &lt;span style=&quot;font-size: 10px;&quot;&gt;: &lt;/span&gt;&lt;font style=&quot;font-size: 12px;&quot;&gt;LIst&amp;lt;Battle&amp;gt;, List&amp;lt;Badges&amp;gt;&lt;/font&gt;&lt;/div&gt;&lt;div style=&quot;height:2px;&quot;&gt;&lt;font size=&quot;3&quot;&gt;&lt;br&gt;&lt;/font&gt;&lt;/div&gt;&lt;div style=&quot;height:2px;&quot;&gt;&lt;font size=&quot;3&quot;&gt;&lt;br&gt;&lt;/font&gt;&lt;/div&gt;&lt;div style=&quot;height:2px;&quot;&gt;&lt;font size=&quot;3&quot;&gt;&lt;br&gt;&lt;/font&gt;&lt;/div&gt;&lt;div style=&quot;height:2px;&quot;&gt;&lt;font size=&quot;3&quot;&gt;&lt;br&gt;&lt;/font&gt;&lt;/div&gt;&lt;div style=&quot;height:2px;&quot;&gt;&lt;font size=&quot;3&quot;&gt;&lt;br&gt;&lt;/font&gt;&lt;/div&gt;&lt;div style=&quot;height:2px;&quot;&gt;&lt;br&gt;&lt;/div&gt;&lt;div style=&quot;height:2px;&quot;&gt;&lt;br&gt;&lt;/div&gt;&lt;div style=&quot;height:2px;&quot;&gt;&lt;br&gt;&lt;/div&gt;&lt;div style=&quot;height:2px;&quot;&gt;&lt;br&gt;&lt;/div&gt;&lt;div style=&quot;height:2px;&quot;&gt;&lt;br&gt;&lt;/div&gt;&lt;div style=&quot;height:2px;&quot;&gt;&lt;br&gt;&lt;/div&gt;&lt;div style=&quot;height:2px;&quot;&gt;&lt;br&gt;&lt;/div&gt;" style="verticalAlign=top;align=left;overflow=fill;fontSize=12;fontFamily=Helvetica;html=1;whiteSpace=wrap;" parent="1" vertex="1">
          <mxGeometry x="1041" y="828" width="490" height="180" as="geometry" />
        </mxCell>
        <mxCell id="M6HZu9PlmywMM8g6Wbbx-21" value="&lt;p style=&quot;margin:0px;margin-top:4px;text-align:center;&quot;&gt;&lt;b style=&quot;background-color: initial;&quot;&gt;InformationServiceImpl&lt;/b&gt;&lt;/p&gt;&lt;hr size=&quot;1&quot;&gt;&lt;div style=&quot;height:2px;&quot;&gt;&lt;/div&gt;&lt;hr size=&quot;1&quot;&gt;&lt;div style=&quot;height:2px;&quot;&gt;&amp;nbsp;+ &amp;lt;&amp;lt;implement&amp;gt;&amp;gt; getStudentTournamentLeaderboard(Tournament tournament) : Map&amp;lt;Student, Score&amp;gt;&lt;/div&gt;&lt;div style=&quot;height:2px;&quot;&gt;&lt;br&gt;&lt;/div&gt;&lt;div style=&quot;height:2px;&quot;&gt;&lt;br&gt;&lt;/div&gt;&lt;div style=&quot;height:2px;&quot;&gt;&lt;br&gt;&lt;/div&gt;&lt;div style=&quot;height:2px;&quot;&gt;&lt;br&gt;&lt;/div&gt;&lt;div style=&quot;height:2px;&quot;&gt;&lt;br&gt;&lt;/div&gt;&lt;div style=&quot;height:2px;&quot;&gt;&lt;br&gt;&lt;/div&gt;&lt;div style=&quot;height:2px;&quot;&gt;&lt;br&gt;&lt;/div&gt;&lt;div style=&quot;height:2px;&quot;&gt;&lt;br&gt;&lt;/div&gt;&lt;div style=&quot;height:2px;&quot;&gt;&lt;br&gt;&lt;/div&gt;&lt;div style=&quot;height:2px;&quot;&gt;&lt;br&gt;&lt;/div&gt;&lt;div style=&quot;height:2px;&quot;&gt;&lt;br&gt;&lt;/div&gt;&lt;div style=&quot;height:2px;&quot;&gt;&amp;nbsp;+&amp;nbsp;&lt;/div&gt;&amp;nbsp; &amp;nbsp; &amp;lt;&amp;lt;implement&amp;gt;&amp;gt;&amp;nbsp;&lt;span style=&quot;background-color: initial;&quot;&gt;getStudentBattleLeaderboard(Battle battle) : Map&amp;lt;Student, Score&amp;gt;&lt;/span&gt;&lt;br&gt;&lt;div style=&quot;height:2px;&quot;&gt;&lt;br&gt;&lt;/div&gt;&lt;div style=&quot;height:2px;&quot;&gt;&lt;br&gt;&lt;/div&gt;&lt;div style=&quot;height:2px;&quot;&gt;&lt;br&gt;&lt;/div&gt;&lt;div style=&quot;height:2px;&quot;&gt;&lt;br&gt;&lt;/div&gt;&lt;div style=&quot;height:2px;&quot;&gt;&lt;br&gt;&lt;/div&gt;&lt;div style=&quot;height:2px;&quot;&gt;&lt;span style=&quot;background-color: initial;&quot;&gt;&amp;nbsp;+&lt;/span&gt;&lt;/div&gt;&amp;nbsp; &amp;nbsp; &amp;lt;&amp;lt;implement&amp;gt;&amp;gt;&amp;nbsp;&lt;span style=&quot;background-color: initial;&quot;&gt;getTeamBattleLeaderboard(Battle battle) : Map&amp;lt;Team, Score&amp;gt;&lt;/span&gt;&lt;br&gt;&lt;div style=&quot;height:2px;&quot;&gt;&lt;br&gt;&lt;/div&gt;&lt;div style=&quot;height:2px;&quot;&gt;&lt;br&gt;&lt;/div&gt;&lt;div style=&quot;height:2px;&quot;&gt;&lt;br&gt;&lt;/div&gt;&lt;div style=&quot;height:2px;&quot;&gt;&lt;br&gt;&lt;/div&gt;&lt;div style=&quot;height:2px;&quot;&gt;&lt;br&gt;&lt;/div&gt;&lt;div style=&quot;height:2px;&quot;&gt;&amp;nbsp;+&lt;/div&gt;&amp;nbsp; &amp;nbsp; &amp;lt;&amp;lt;implement&amp;gt;&amp;gt;&amp;nbsp;&lt;span style=&quot;background-color: initial;&quot;&gt;getTournamentInformations(Tournament tournament) &lt;/span&gt;&lt;span style=&quot;background-color: initial; font-size: 10px;&quot;&gt;: &lt;/span&gt;&lt;font style=&quot;background-color: initial;&quot;&gt;List&amp;lt;Battle&amp;gt;, List&amp;lt;Badge&amp;gt;&lt;/font&gt;&lt;br&gt;&lt;div style=&quot;height:2px;&quot;&gt;&lt;font size=&quot;3&quot;&gt;&lt;br&gt;&lt;/font&gt;&lt;/div&gt;&lt;div style=&quot;height:2px;&quot;&gt;&lt;font size=&quot;3&quot;&gt;&lt;br&gt;&lt;/font&gt;&lt;/div&gt;&lt;div style=&quot;height:2px;&quot;&gt;&lt;font size=&quot;3&quot;&gt;&lt;br&gt;&lt;/font&gt;&lt;/div&gt;&lt;div style=&quot;height:2px;&quot;&gt;&lt;font size=&quot;3&quot;&gt;&lt;br&gt;&lt;/font&gt;&lt;/div&gt;&lt;div style=&quot;height:2px;&quot;&gt;&lt;font size=&quot;3&quot;&gt;&lt;br&gt;&lt;/font&gt;&lt;/div&gt;&lt;div style=&quot;height:2px;&quot;&gt;&lt;br&gt;&lt;/div&gt;&lt;div style=&quot;height:2px;&quot;&gt;&lt;br&gt;&lt;/div&gt;&lt;div style=&quot;height:2px;&quot;&gt;&lt;br&gt;&lt;/div&gt;&lt;div style=&quot;height:2px;&quot;&gt;&lt;br&gt;&lt;/div&gt;&lt;div style=&quot;height:2px;&quot;&gt;&lt;br&gt;&lt;/div&gt;&lt;div style=&quot;height:2px;&quot;&gt;&lt;br&gt;&lt;/div&gt;&lt;div style=&quot;height:2px;&quot;&gt;&lt;br&gt;&lt;/div&gt;" style="verticalAlign=top;align=left;overflow=fill;fontSize=12;fontFamily=Helvetica;html=1;whiteSpace=wrap;" parent="1" vertex="1">
          <mxGeometry x="1691" y="830" width="570" height="180" as="geometry" />
        </mxCell>
        <mxCell id="M6HZu9PlmywMM8g6Wbbx-23" value="" style="endArrow=block;dashed=1;html=1;rounded=0;exitX=0;exitY=0.5;exitDx=0;exitDy=0;entryX=1;entryY=0.5;entryDx=0;entryDy=0;endFill=0;" parent="1" source="M6HZu9PlmywMM8g6Wbbx-21" target="M6HZu9PlmywMM8g6Wbbx-20" edge="1">
          <mxGeometry width="160" relative="1" as="geometry">
            <mxPoint x="1571" y="898" as="sourcePoint" />
            <mxPoint x="1731" y="898" as="targetPoint" />
          </mxGeometry>
        </mxCell>
        <mxCell id="M6HZu9PlmywMM8g6Wbbx-24" value="&lt;p style=&quot;margin:0px;margin-top:4px;text-align:center;&quot;&gt;&lt;b&gt;&lt;font style=&quot;font-size: 10px;&quot;&gt;&amp;lt;&amp;lt;interface&amp;gt;&amp;gt;&lt;/font&gt;&lt;/b&gt;&lt;/p&gt;&lt;p style=&quot;margin:0px;margin-top:4px;text-align:center;&quot;&gt;&lt;b&gt;UserLoginService&lt;/b&gt;&lt;/p&gt;&lt;hr size=&quot;1&quot;&gt;&lt;div style=&quot;height:2px;&quot;&gt;&lt;/div&gt;&lt;hr size=&quot;1&quot;&gt;&lt;div style=&quot;height:2px;&quot;&gt;&amp;nbsp;+ login(String username, String password) : User&lt;/div&gt;&lt;div style=&quot;height:2px;&quot;&gt;&lt;br&gt;&lt;/div&gt;&lt;div style=&quot;height:2px;&quot;&gt;&lt;br&gt;&lt;/div&gt;&lt;div style=&quot;height:2px;&quot;&gt;&lt;br&gt;&lt;/div&gt;&lt;div style=&quot;height:2px;&quot;&gt;&lt;br&gt;&lt;/div&gt;&lt;div style=&quot;height:2px;&quot;&gt;&lt;br&gt;&lt;/div&gt;&lt;div style=&quot;height:2px;&quot;&gt;&lt;br&gt;&lt;/div&gt;&lt;div style=&quot;height:2px;&quot;&gt;&lt;br&gt;&lt;/div&gt;&lt;div style=&quot;height:2px;&quot;&gt;&lt;br&gt;&lt;/div&gt;&lt;div style=&quot;height:2px;&quot;&gt;&lt;br&gt;&lt;/div&gt;&lt;div style=&quot;height:2px;&quot;&gt;&lt;br&gt;&lt;/div&gt;&lt;div style=&quot;height:2px;&quot;&gt;&lt;br&gt;&lt;/div&gt;&lt;div style=&quot;height:2px;&quot;&gt;&amp;nbsp;+ checkReegCredentials(String username, String password : boolean&lt;/div&gt;&lt;div style=&quot;height:2px;&quot;&gt;&lt;br&gt;&lt;/div&gt;&lt;div style=&quot;height:2px;&quot;&gt;&lt;br&gt;&lt;/div&gt;&lt;div style=&quot;height:2px;&quot;&gt;&lt;br&gt;&lt;/div&gt;&lt;div style=&quot;height:2px;&quot;&gt;&lt;br&gt;&lt;/div&gt;&lt;div style=&quot;height:2px;&quot;&gt;&lt;br&gt;&lt;/div&gt;&lt;div style=&quot;height:2px;&quot;&gt;&lt;br&gt;&lt;/div&gt;&lt;div style=&quot;height:2px;&quot;&gt;&lt;br&gt;&lt;/div&gt;&lt;div style=&quot;height:2px;&quot;&gt;&lt;br&gt;&lt;/div&gt;&lt;div style=&quot;height:2px;&quot;&gt;&amp;nbsp; &amp;nbsp;&lt;/div&gt;&lt;div style=&quot;height:2px;&quot;&gt;&amp;nbsp;&lt;/div&gt;&lt;div style=&quot;height:2px;&quot;&gt;&amp;nbsp;+ sendConfirmationEmail(String email) : void&lt;/div&gt;&lt;div style=&quot;height:2px;&quot;&gt;&lt;br&gt;&lt;/div&gt;&lt;div style=&quot;height:2px;&quot;&gt;&lt;br&gt;&lt;/div&gt;&lt;div style=&quot;height:2px;&quot;&gt;&lt;br&gt;&lt;/div&gt;&lt;div style=&quot;height:2px;&quot;&gt;&lt;br&gt;&lt;/div&gt;&lt;div style=&quot;height:2px;&quot;&gt;&lt;br&gt;&lt;/div&gt;&lt;div style=&quot;height:2px;&quot;&gt;&lt;br&gt;&lt;/div&gt;&lt;div style=&quot;height:2px;&quot;&gt;&lt;br&gt;&lt;/div&gt;&lt;div style=&quot;height:2px;&quot;&gt;&lt;br&gt;&lt;/div&gt;&lt;div style=&quot;height:2px;&quot;&gt;&lt;br&gt;&lt;/div&gt;&lt;div style=&quot;height:2px;&quot;&gt;&amp;nbsp;+ registration(String fullName, String username, String password, bool role)&amp;nbsp;&lt;span style=&quot;font-size: 10px;&quot;&gt;: &lt;/span&gt;&lt;font style=&quot;font-size: 12px;&quot;&gt;User&lt;/font&gt;&lt;/div&gt;&lt;div style=&quot;height:2px;&quot;&gt;&lt;font size=&quot;3&quot;&gt;&lt;br&gt;&lt;/font&gt;&lt;/div&gt;&lt;div style=&quot;height:2px;&quot;&gt;&lt;font size=&quot;3&quot;&gt;&lt;br&gt;&lt;/font&gt;&lt;/div&gt;&lt;div style=&quot;height:2px;&quot;&gt;&lt;font size=&quot;3&quot;&gt;&lt;br&gt;&lt;/font&gt;&lt;/div&gt;&lt;div style=&quot;height:2px;&quot;&gt;&lt;font size=&quot;3&quot;&gt;&lt;br&gt;&lt;/font&gt;&lt;/div&gt;&lt;div style=&quot;height:2px;&quot;&gt;&lt;font size=&quot;3&quot;&gt;&lt;br&gt;&lt;/font&gt;&lt;/div&gt;&lt;div style=&quot;height:2px;&quot;&gt;&lt;font size=&quot;3&quot;&gt;&lt;br&gt;&lt;/font&gt;&lt;/div&gt;&lt;div style=&quot;height:2px;&quot;&gt;&lt;font size=&quot;3&quot;&gt;&lt;br&gt;&lt;/font&gt;&lt;/div&gt;&lt;div style=&quot;height:2px;&quot;&gt;&lt;font size=&quot;3&quot;&gt;&lt;br&gt;&lt;/font&gt;&lt;/div&gt;&lt;div style=&quot;height:2px;&quot;&gt;&lt;font size=&quot;3&quot;&gt;&amp;nbsp;&lt;/font&gt;&lt;/div&gt;&lt;div style=&quot;height:2px;&quot;&gt;&lt;br&gt;&lt;/div&gt;&lt;div style=&quot;height:2px;&quot;&gt;&lt;br&gt;&lt;/div&gt;&lt;div style=&quot;height:2px;&quot;&gt;&lt;br&gt;&lt;/div&gt;&lt;div style=&quot;height:2px;&quot;&gt;&lt;br&gt;&lt;/div&gt;&lt;div style=&quot;height:2px;&quot;&gt;&lt;br&gt;&lt;/div&gt;&lt;div style=&quot;height:2px;&quot;&gt;&lt;br&gt;&lt;/div&gt;&lt;div style=&quot;height:2px;&quot;&gt;&lt;br&gt;&lt;/div&gt;" style="verticalAlign=top;align=left;overflow=fill;fontSize=12;fontFamily=Helvetica;html=1;whiteSpace=wrap;" parent="1" vertex="1">
          <mxGeometry x="1051" y="1372.62" width="453" height="180" as="geometry" />
        </mxCell>
        <mxCell id="M6HZu9PlmywMM8g6Wbbx-25" value="&lt;p style=&quot;margin:0px;margin-top:4px;text-align:center;&quot;&gt;&lt;b style=&quot;background-color: initial;&quot;&gt;UserLoginServiceImpl&lt;/b&gt;&lt;br&gt;&lt;/p&gt;&lt;hr size=&quot;1&quot;&gt;&lt;div style=&quot;height:2px;&quot;&gt;&lt;/div&gt;&lt;hr size=&quot;1&quot;&gt;&lt;div style=&quot;height:2px;&quot;&gt;&amp;nbsp;+&amp;nbsp; &amp;nbsp;&lt;/div&gt;&amp;nbsp; &amp;nbsp; &amp;nbsp;&amp;lt;&amp;lt;implement&amp;gt;&amp;gt; l&lt;span style=&quot;background-color: initial;&quot;&gt;ogin(String username, String password) : User&lt;br&gt;&lt;/span&gt;&lt;div style=&quot;height:2px;&quot;&gt;&lt;br&gt;&lt;/div&gt;&lt;div style=&quot;height:2px;&quot;&gt;&lt;br&gt;&lt;/div&gt;&lt;div style=&quot;height:2px;&quot;&gt;&lt;br&gt;&lt;/div&gt;&lt;div style=&quot;height:2px;&quot;&gt;&lt;br&gt;&lt;/div&gt;&lt;div style=&quot;height:2px;&quot;&gt;&lt;br&gt;&lt;/div&gt;&lt;div style=&quot;height:2px;&quot;&gt;&lt;br&gt;&lt;/div&gt;&lt;div style=&quot;height:2px;&quot;&gt;&amp;nbsp;+&amp;nbsp; &amp;nbsp;&lt;/div&gt;&amp;nbsp; &amp;nbsp; &amp;nbsp;&amp;lt;&amp;lt;implement&amp;gt;&amp;gt;&amp;nbsp;&lt;span style=&quot;background-color: initial;&quot;&gt;checkReegCredentials(String username, String password : boolean&lt;/span&gt;&lt;br&gt;&lt;div style=&quot;height:2px;&quot;&gt;&lt;br&gt;&lt;/div&gt;&lt;div style=&quot;height:2px;&quot;&gt;&lt;br&gt;&lt;/div&gt;&lt;div style=&quot;height:2px;&quot;&gt;&lt;br&gt;&lt;/div&gt;&lt;div style=&quot;height:2px;&quot;&gt;&lt;br&gt;&lt;/div&gt;&lt;div style=&quot;height:2px;&quot;&gt;&lt;br&gt;&lt;/div&gt;&lt;div style=&quot;height:2px;&quot;&gt;&lt;br&gt;&lt;/div&gt;&lt;div style=&quot;height:2px;&quot;&gt;&amp;nbsp; &amp;nbsp;&lt;/div&gt;&lt;div style=&quot;height:2px;&quot;&gt;&amp;nbsp;&lt;/div&gt;&lt;div style=&quot;height:2px;&quot;&gt;&amp;nbsp;+&lt;/div&gt;&amp;nbsp; &amp;nbsp; &amp;nbsp;&amp;lt;&amp;lt;implement&amp;gt;&amp;gt;&amp;nbsp;&lt;span style=&quot;background-color: initial;&quot;&gt;sendConfirmationEmail(String email) : void&lt;/span&gt;&lt;br&gt;&lt;div style=&quot;height:2px;&quot;&gt;&amp;nbsp; &amp;nbsp; &amp;nbsp; &amp;nbsp;&lt;/div&gt;&lt;div style=&quot;height:2px;&quot;&gt;&lt;br&gt;&lt;/div&gt;&lt;div style=&quot;height:2px;&quot;&gt;&lt;br&gt;&lt;/div&gt;&lt;div style=&quot;height:2px;&quot;&gt;&lt;br&gt;&lt;/div&gt;&lt;div style=&quot;height:2px;&quot;&gt;&lt;br&gt;&lt;/div&gt;&lt;div style=&quot;height:2px;&quot;&gt;&lt;br&gt;&lt;/div&gt;&lt;div style=&quot;height:2px;&quot;&gt;&amp;nbsp;+&amp;nbsp;&lt;/div&gt;&amp;nbsp; &amp;nbsp; &amp;nbsp;&amp;lt;&amp;lt;implement&amp;gt;&amp;gt;&amp;nbsp;&lt;span style=&quot;background-color: initial;&quot;&gt;registration(String fullName, String username, String password, bool role)&amp;nbsp;&lt;/span&gt;&lt;span style=&quot;background-color: initial; font-size: 10px;&quot;&gt;: &lt;/span&gt;&lt;font style=&quot;background-color: initial;&quot;&gt;void&lt;/font&gt;&lt;br&gt;&lt;div style=&quot;height:2px;&quot;&gt;&lt;font size=&quot;3&quot;&gt;&lt;br&gt;&lt;/font&gt;&lt;/div&gt;&lt;div style=&quot;height:2px;&quot;&gt;&lt;font size=&quot;3&quot;&gt;&lt;br&gt;&lt;/font&gt;&lt;/div&gt;&lt;div style=&quot;height:2px;&quot;&gt;&lt;font size=&quot;3&quot;&gt;&lt;br&gt;&lt;/font&gt;&lt;/div&gt;&lt;div style=&quot;height:2px;&quot;&gt;&lt;font size=&quot;3&quot;&gt;&lt;br&gt;&lt;/font&gt;&lt;/div&gt;&lt;div style=&quot;height:2px;&quot;&gt;&lt;font size=&quot;3&quot;&gt;&lt;br&gt;&lt;/font&gt;&lt;/div&gt;&lt;div style=&quot;height:2px;&quot;&gt;&lt;font size=&quot;3&quot;&gt;&lt;br&gt;&lt;/font&gt;&lt;/div&gt;&lt;div style=&quot;height:2px;&quot;&gt;&lt;font size=&quot;3&quot;&gt;&lt;br&gt;&lt;/font&gt;&lt;/div&gt;&lt;div style=&quot;height:2px;&quot;&gt;&lt;font size=&quot;3&quot;&gt;&lt;br&gt;&lt;/font&gt;&lt;/div&gt;&lt;div style=&quot;height:2px;&quot;&gt;&lt;font size=&quot;3&quot;&gt;&amp;nbsp;&lt;/font&gt;&lt;/div&gt;&lt;div style=&quot;height:2px;&quot;&gt;&lt;br&gt;&lt;/div&gt;&lt;div style=&quot;height:2px;&quot;&gt;&lt;br&gt;&lt;/div&gt;&lt;div style=&quot;height:2px;&quot;&gt;&lt;br&gt;&lt;/div&gt;&lt;div style=&quot;height:2px;&quot;&gt;&lt;br&gt;&lt;/div&gt;&lt;div style=&quot;height:2px;&quot;&gt;&lt;br&gt;&lt;/div&gt;&lt;div style=&quot;height:2px;&quot;&gt;&lt;br&gt;&lt;/div&gt;&lt;div style=&quot;height:2px;&quot;&gt;&lt;br&gt;&lt;/div&gt;" style="verticalAlign=top;align=left;overflow=fill;fontSize=12;fontFamily=Helvetica;html=1;whiteSpace=wrap;" parent="1" vertex="1">
          <mxGeometry x="1701" y="1372.62" width="532" height="180" as="geometry" />
        </mxCell>
        <mxCell id="M6HZu9PlmywMM8g6Wbbx-27" value="" style="endArrow=block;endSize=6;dashed=1;html=1;rounded=0;entryX=1;entryY=0.5;entryDx=0;entryDy=0;endFill=0;" parent="1" target="M6HZu9PlmywMM8g6Wbbx-24" edge="1">
          <mxGeometry width="160" relative="1" as="geometry">
            <mxPoint x="1701" y="1461.62" as="sourcePoint" />
            <mxPoint x="1525" y="1466" as="targetPoint" />
          </mxGeometry>
        </mxCell>
        <mxCell id="aW1p1NH9pJPPomIiRJYU-2" style="edgeStyle=orthogonalEdgeStyle;rounded=0;orthogonalLoop=1;jettySize=auto;html=1;entryX=0;entryY=0.5;entryDx=0;entryDy=0;dashed=1;endArrow=open;endFill=0;endSize=12;" edge="1" parent="1" source="M6HZu9PlmywMM8g6Wbbx-37" target="M6HZu9PlmywMM8g6Wbbx-61">
          <mxGeometry relative="1" as="geometry">
            <Array as="points">
              <mxPoint x="465" y="1964" />
              <mxPoint x="465" y="896" />
            </Array>
          </mxGeometry>
        </mxCell>
        <mxCell id="aW1p1NH9pJPPomIiRJYU-5" value="&amp;lt;&amp;lt;use&amp;gt;&amp;gt;" style="edgeLabel;html=1;align=center;verticalAlign=middle;resizable=0;points=[];" vertex="1" connectable="0" parent="aW1p1NH9pJPPomIiRJYU-2">
          <mxGeometry x="0.6633" y="1" relative="1" as="geometry">
            <mxPoint as="offset" />
          </mxGeometry>
        </mxCell>
        <mxCell id="M6HZu9PlmywMM8g6Wbbx-37" value="&lt;p style=&quot;margin:0px;margin-top:4px;text-align:center;&quot;&gt;&lt;b&gt;&lt;font style=&quot;font-size: 10px;&quot;&gt;&amp;lt;&amp;lt;interface&amp;gt;&amp;gt;&lt;/font&gt;&lt;/b&gt;&lt;/p&gt;&lt;p style=&quot;margin:0px;margin-top:4px;text-align:center;&quot;&gt;&lt;b&gt;NotificationService&lt;/b&gt;&lt;/p&gt;&lt;hr size=&quot;1&quot;&gt;&lt;div style=&quot;height:2px;&quot;&gt;&lt;/div&gt;&lt;hr size=&quot;1&quot;&gt;&lt;div style=&quot;height:2px;&quot;&gt;&lt;br&gt;&lt;br&gt;&lt;/div&gt;&lt;div style=&quot;height:2px;&quot;&gt;&lt;br&gt;&lt;/div&gt;&lt;div style=&quot;height:2px;&quot;&gt;&lt;br&gt;&lt;/div&gt;&lt;div style=&quot;height:2px;&quot;&gt;&lt;br&gt;&lt;/div&gt;&lt;div style=&quot;height:2px;&quot;&gt;&amp;nbsp;+ getNotifications(User user) : List&amp;lt;Notification&amp;gt;&lt;/div&gt;&lt;div style=&quot;height:2px;&quot;&gt;&lt;br&gt;&lt;/div&gt;&lt;div style=&quot;height:2px;&quot;&gt;&lt;br&gt;&lt;/div&gt;&lt;div style=&quot;height:2px;&quot;&gt;&lt;br&gt;&lt;/div&gt;&lt;div style=&quot;height:2px;&quot;&gt;&lt;br&gt;&lt;/div&gt;&lt;div style=&quot;height:2px;&quot;&gt;&lt;br&gt;&lt;/div&gt;&lt;div style=&quot;height:2px;&quot;&gt;&lt;br&gt;&lt;/div&gt;&lt;div style=&quot;height:2px;&quot;&gt;&lt;br&gt;&lt;/div&gt;&lt;div style=&quot;height:2px;&quot;&gt;&amp;nbsp;&lt;/div&gt;&lt;div style=&quot;height:2px;&quot;&gt;&lt;span style=&quot;background-color: initial;&quot;&gt;&amp;nbsp;+sendNewTournamentNotification(Student reciver): Notification&lt;/span&gt;&lt;/div&gt;&lt;div style=&quot;height:2px;&quot;&gt;&lt;br&gt;&lt;/div&gt;&lt;div style=&quot;height:2px;&quot;&gt;&lt;br&gt;&lt;/div&gt;&lt;div style=&quot;height:2px;&quot;&gt;&lt;br&gt;&lt;/div&gt;&lt;div style=&quot;height:2px;&quot;&gt;&lt;br&gt;&lt;/div&gt;&lt;div style=&quot;height:2px;&quot;&gt;&lt;br&gt;&lt;/div&gt;&lt;div style=&quot;height:2px;&quot;&gt;&lt;br&gt;&lt;/div&gt;&lt;div style=&quot;height:2px;&quot;&gt;&amp;nbsp;&lt;/div&gt;&lt;div style=&quot;height:2px;&quot;&gt;&amp;nbsp;+sendNewBattleNotification(Student reciver): void&lt;/div&gt;&lt;div style=&quot;height:2px;&quot;&gt;&lt;br&gt;&lt;/div&gt;&lt;div style=&quot;height:2px;&quot;&gt;&lt;br&gt;&lt;/div&gt;&lt;div style=&quot;height:2px;&quot;&gt;&lt;br&gt;&lt;/div&gt;&lt;div style=&quot;height:2px;&quot;&gt;&lt;br&gt;&lt;/div&gt;&lt;div style=&quot;height:2px;&quot;&gt;&amp;nbsp;&lt;/div&gt;&lt;div style=&quot;height:2px;&quot;&gt;&amp;nbsp;&lt;/div&gt;&lt;div style=&quot;height:2px;&quot;&gt;&amp;nbsp;&lt;/div&gt;&lt;div style=&quot;height:2px;&quot;&gt;&amp;nbsp;+sendjoinedTournamentNotification(Student reciver): void&lt;/div&gt;&lt;div style=&quot;height:2px;&quot;&gt;&lt;font size=&quot;3&quot;&gt;&lt;br&gt;&lt;/font&gt;&lt;/div&gt;&lt;div style=&quot;height:2px;&quot;&gt;&lt;font size=&quot;3&quot;&gt;&lt;br&gt;&lt;/font&gt;&lt;/div&gt;&lt;div style=&quot;height:2px;&quot;&gt;&lt;font size=&quot;3&quot;&gt;&lt;br&gt;&lt;/font&gt;&lt;/div&gt;&lt;div style=&quot;height:2px;&quot;&gt;&lt;font size=&quot;3&quot;&gt;&lt;br&gt;&lt;/font&gt;&lt;/div&gt;&lt;div style=&quot;height:2px;&quot;&gt;&lt;font size=&quot;3&quot;&gt;&amp;nbsp;&lt;/font&gt;&lt;/div&gt;&lt;div style=&quot;height:2px;&quot;&gt;&lt;font size=&quot;3&quot;&gt;&amp;nbsp;&lt;/font&gt;&lt;/div&gt;&lt;div style=&quot;height:2px;&quot;&gt;&amp;nbsp;&lt;/div&gt;&lt;div style=&quot;height:2px;&quot;&gt;&amp;nbsp;+sendjoinedBattleNotification(Student reciver): void&lt;/div&gt;&lt;div style=&quot;border-color: var(--border-color); height: 2px;&quot;&gt;&lt;font style=&quot;border-color: var(--border-color);&quot; size=&quot;3&quot;&gt;&lt;br style=&quot;border-color: var(--border-color);&quot;&gt;&lt;/font&gt;&lt;/div&gt;&lt;div style=&quot;border-color: var(--border-color); height: 2px;&quot;&gt;&lt;font style=&quot;border-color: var(--border-color);&quot; size=&quot;3&quot;&gt;&lt;br style=&quot;border-color: var(--border-color);&quot;&gt;&lt;/font&gt;&lt;/div&gt;&lt;div style=&quot;border-color: var(--border-color); height: 2px;&quot;&gt;&lt;font style=&quot;border-color: var(--border-color);&quot; size=&quot;3&quot;&gt;&lt;br style=&quot;border-color: var(--border-color);&quot;&gt;&lt;/font&gt;&lt;/div&gt;&lt;div style=&quot;border-color: var(--border-color); height: 2px;&quot;&gt;&lt;font style=&quot;border-color: var(--border-color);&quot; size=&quot;3&quot;&gt;&lt;br style=&quot;border-color: var(--border-color);&quot;&gt;&lt;/font&gt;&lt;/div&gt;&lt;div style=&quot;border-color: var(--border-color); height: 2px;&quot;&gt;&lt;font style=&quot;border-color: var(--border-color);&quot; size=&quot;3&quot;&gt;&amp;nbsp;&lt;/font&gt;&lt;/div&gt;&lt;div style=&quot;border-color: var(--border-color); height: 2px;&quot;&gt;&lt;font style=&quot;border-color: var(--border-color);&quot; size=&quot;3&quot;&gt;&amp;nbsp;&lt;/font&gt;&lt;/div&gt;&lt;div style=&quot;height:2px;&quot;&gt;&lt;br&gt;&lt;/div&gt;&lt;div style=&quot;height:2px;&quot;&gt;&lt;span style=&quot;background-color: initial;&quot;&gt;&amp;nbsp;+sendCreatedTournamentNotification(Educator reciver): void&lt;/span&gt;&lt;br&gt;&lt;/div&gt;&lt;div style=&quot;height:2px;&quot;&gt;&amp;nbsp; &amp;nbsp;&lt;/div&gt;&lt;div style=&quot;height:2px;&quot;&gt;&lt;br&gt;&lt;/div&gt;&lt;div style=&quot;height:2px;&quot;&gt;&lt;br&gt;&lt;/div&gt;&lt;div style=&quot;height:2px;&quot;&gt;&lt;br&gt;&lt;/div&gt;&lt;div style=&quot;height:2px;&quot;&gt;&amp;nbsp;&amp;nbsp;&lt;/div&gt;&lt;div style=&quot;height:2px;&quot;&gt;&amp;nbsp;&amp;nbsp;&lt;/div&gt;&lt;div style=&quot;height:2px;&quot;&gt;&amp;nbsp;&lt;/div&gt;&lt;div style=&quot;height:2px;&quot;&gt;&amp;nbsp;+sendCreatedBattleNotification(Educator reciver):void&amp;nbsp;&lt;/div&gt;&lt;div style=&quot;height:2px;&quot;&gt;&amp;nbsp; &amp;nbsp;&amp;nbsp;&lt;/div&gt;&lt;div style=&quot;height:2px;&quot;&gt;&lt;br&gt;&lt;/div&gt;&lt;div style=&quot;height:2px;&quot;&gt;&lt;br&gt;&lt;/div&gt;&lt;div style=&quot;height:2px;&quot;&gt;&amp;nbsp;&amp;nbsp;&lt;/div&gt;&lt;div style=&quot;height:2px;&quot;&gt;&lt;br&gt;&lt;/div&gt;&lt;div style=&quot;height:2px;&quot;&gt;&amp;nbsp;&lt;/div&gt;&lt;div style=&quot;height:2px;&quot;&gt;&amp;nbsp;&lt;/div&gt;&lt;div style=&quot;height:2px;&quot;&gt;&amp;nbsp;+sendTeamInvite(Student reciver): void&lt;/div&gt;&lt;div style=&quot;height:2px;&quot;&gt;&lt;br&gt;&lt;/div&gt;&lt;div style=&quot;height:2px;&quot;&gt;&amp;nbsp;&lt;/div&gt;&lt;div style=&quot;height:2px;&quot;&gt;&amp;nbsp;&amp;nbsp;&lt;/div&gt;&lt;div style=&quot;height:2px;&quot;&gt;&lt;br&gt;&lt;/div&gt;&lt;div style=&quot;height:2px;&quot;&gt;&lt;br&gt;&lt;/div&gt;&lt;div style=&quot;height:2px;&quot;&gt;&amp;nbsp;&amp;nbsp;&lt;/div&gt;&lt;div style=&quot;height:2px;&quot;&gt;&lt;span style=&quot;background-color: initial;&quot;&gt;&amp;nbsp;&lt;/span&gt;&lt;/div&gt;&lt;div style=&quot;height:2px;&quot;&gt;&lt;span style=&quot;background-color: initial;&quot;&gt;&amp;nbsp;+sendAcceptedInviteNotification(Student reciver): void&lt;/span&gt;&lt;br&gt;&lt;/div&gt;&lt;div style=&quot;height:2px;&quot;&gt;&lt;br&gt;&lt;/div&gt;&lt;div style=&quot;height:2px;&quot;&gt;&lt;br&gt;&lt;/div&gt;&lt;div style=&quot;height:2px;&quot;&gt;&amp;nbsp;&amp;nbsp;&lt;/div&gt;&lt;div style=&quot;height:2px;&quot;&gt;&amp;nbsp;&amp;nbsp;&lt;/div&gt;&lt;div style=&quot;height:2px;&quot;&gt;&lt;br&gt;&lt;/div&gt;&lt;div style=&quot;height:2px;&quot;&gt;&amp;nbsp;&lt;/div&gt;&lt;div style=&quot;height:2px;&quot;&gt;&amp;nbsp;+sendEvaluatedNotification(Educator reciver): void&lt;/div&gt;&lt;div style=&quot;height:2px;&quot;&gt;&lt;br&gt;&lt;/div&gt;&lt;div style=&quot;height:2px;&quot;&gt;&lt;br&gt;&lt;/div&gt;&lt;div style=&quot;height:2px;&quot;&gt;&lt;br&gt;&lt;/div&gt;&lt;div style=&quot;height:2px;&quot;&gt;&lt;br&gt;&lt;/div&gt;&lt;div style=&quot;height:2px;&quot;&gt;&amp;nbsp;&amp;nbsp;&lt;/div&gt;&lt;div style=&quot;height:2px;&quot;&gt;&lt;br&gt;&lt;/div&gt;&lt;div style=&quot;height:2px;&quot;&gt;&lt;span style=&quot;background-color: initial;&quot;&gt;&amp;nbsp;&lt;/span&gt;&lt;/div&gt;&lt;div style=&quot;height:2px;&quot;&gt;&lt;span style=&quot;background-color: initial;&quot;&gt;&amp;nbsp;+sendClosedTournamentNotification(User reciver): void&lt;/span&gt;&lt;br&gt;&lt;/div&gt;&lt;div style=&quot;height:2px;&quot;&gt;&lt;br&gt;&lt;/div&gt;&lt;div style=&quot;height:2px;&quot;&gt;&lt;br&gt;&lt;/div&gt;&lt;div style=&quot;height:2px;&quot;&gt;&lt;br&gt;&lt;/div&gt;&lt;div style=&quot;height:2px;&quot;&gt;&lt;br&gt;&lt;/div&gt;&lt;div style=&quot;height:2px;&quot;&gt;&lt;br&gt;&lt;/div&gt;&lt;div style=&quot;height:2px;&quot;&gt;&lt;span style=&quot;background-color: initial;&quot;&gt;&amp;nbsp;&lt;/span&gt;&lt;/div&gt;&lt;div style=&quot;height:2px;&quot;&gt;&lt;span style=&quot;background-color: initial;&quot;&gt;&amp;nbsp;&lt;/span&gt;&lt;/div&gt;&lt;div style=&quot;height:2px;&quot;&gt;&lt;span style=&quot;background-color: initial;&quot;&gt;&amp;nbsp;+sendGrantedPermissionNotification(Educator reciver): void&lt;/span&gt;&lt;br&gt;&lt;/div&gt;&lt;div style=&quot;height:2px;&quot;&gt;&lt;br&gt;&lt;/div&gt;&lt;div style=&quot;height:2px;&quot;&gt;&lt;br&gt;&lt;/div&gt;&lt;div style=&quot;height:2px;&quot;&gt;&lt;br&gt;&lt;/div&gt;&lt;div style=&quot;height:2px;&quot;&gt;&lt;br&gt;&lt;/div&gt;&lt;div style=&quot;height:2px;&quot;&gt;&amp;nbsp;&lt;/div&gt;&lt;div style=&quot;height:2px;&quot;&gt;&amp;nbsp;&lt;/div&gt;&lt;div style=&quot;height:2px;&quot;&gt;&lt;br&gt;&lt;/div&gt;&lt;div style=&quot;height:2px;&quot;&gt;&amp;nbsp;+sendCreatedBadgeNotification(Educator reciver): Notification&lt;/div&gt;&lt;div style=&quot;height:2px;&quot;&gt;&lt;br&gt;&lt;/div&gt;&lt;div style=&quot;height:2px;&quot;&gt;&lt;br&gt;&lt;/div&gt;&lt;div style=&quot;height:2px;&quot;&gt;&lt;br&gt;&lt;/div&gt;&lt;div style=&quot;height:2px;&quot;&gt;&amp;nbsp;&amp;nbsp;&lt;/div&gt;&lt;div style=&quot;height:2px;&quot;&gt;&lt;br&gt;&lt;/div&gt;&lt;div style=&quot;height:2px;&quot;&gt;&amp;nbsp;&lt;/div&gt;&lt;div style=&quot;height:2px;&quot;&gt;&amp;nbsp;&lt;/div&gt;&lt;div style=&quot;height:2px;&quot;&gt;&amp;nbsp;+sendWorkEvaluatedNotification(Student reciver): Notification&lt;/div&gt;" style="verticalAlign=top;align=left;overflow=fill;fontSize=12;fontFamily=Helvetica;html=1;whiteSpace=wrap;" parent="1" vertex="1">
          <mxGeometry x="1051" y="1672" width="374" height="321" as="geometry" />
        </mxCell>
        <mxCell id="M6HZu9PlmywMM8g6Wbbx-38" value="&lt;p style=&quot;margin:0px;margin-top:4px;text-align:center;&quot;&gt;&lt;b style=&quot;border-color: var(--border-color);&quot;&gt;NotificationServiceImpl&lt;/b&gt;&lt;br&gt;&lt;/p&gt;&lt;hr size=&quot;1&quot;&gt;&lt;div style=&quot;height:2px;&quot;&gt;&lt;/div&gt;&lt;hr size=&quot;1&quot;&gt;&lt;div style=&quot;height:2px;&quot;&gt;&amp;nbsp;+ &amp;lt;&amp;lt;implement&amp;gt;&amp;gt; getNotifications(User user) : List&amp;lt;Notification&amp;gt;&lt;/div&gt;&lt;div style=&quot;border-color: var(--border-color); height: 2px;&quot;&gt;&lt;br style=&quot;border-color: var(--border-color);&quot;&gt;&lt;/div&gt;&lt;div style=&quot;border-color: var(--border-color); height: 2px;&quot;&gt;&lt;br style=&quot;border-color: var(--border-color);&quot;&gt;&lt;/div&gt;&lt;div style=&quot;border-color: var(--border-color); height: 2px;&quot;&gt;&lt;br style=&quot;border-color: var(--border-color);&quot;&gt;&lt;/div&gt;&lt;div style=&quot;border-color: var(--border-color); height: 2px;&quot;&gt;&lt;br style=&quot;border-color: var(--border-color);&quot;&gt;&lt;/div&gt;&lt;div style=&quot;border-color: var(--border-color); height: 2px;&quot;&gt;&lt;br style=&quot;border-color: var(--border-color);&quot;&gt;&lt;/div&gt;&lt;div style=&quot;border-color: var(--border-color); height: 2px;&quot;&gt;&lt;br style=&quot;border-color: var(--border-color);&quot;&gt;&lt;/div&gt;&lt;div style=&quot;border-color: var(--border-color); height: 2px;&quot;&gt;&lt;br style=&quot;border-color: var(--border-color);&quot;&gt;&lt;/div&gt;&lt;div style=&quot;border-color: var(--border-color); height: 2px;&quot;&gt;&amp;nbsp;&lt;/div&gt;&lt;div style=&quot;border-color: var(--border-color); height: 2px;&quot;&gt;&lt;span style=&quot;border-color: var(--border-color); background-color: initial;&quot;&gt;&amp;nbsp;+ &amp;lt;&amp;lt;implement&amp;gt;&amp;gt; sendNewTournamentNotification(Student reciver): Notification&lt;/span&gt;&lt;/div&gt;&lt;div style=&quot;border-color: var(--border-color); height: 2px;&quot;&gt;&lt;br style=&quot;border-color: var(--border-color);&quot;&gt;&lt;/div&gt;&lt;div style=&quot;border-color: var(--border-color); height: 2px;&quot;&gt;&lt;br style=&quot;border-color: var(--border-color);&quot;&gt;&lt;/div&gt;&lt;div style=&quot;border-color: var(--border-color); height: 2px;&quot;&gt;&lt;br style=&quot;border-color: var(--border-color);&quot;&gt;&lt;/div&gt;&lt;div style=&quot;border-color: var(--border-color); height: 2px;&quot;&gt;&lt;br style=&quot;border-color: var(--border-color);&quot;&gt;&lt;/div&gt;&lt;div style=&quot;border-color: var(--border-color); height: 2px;&quot;&gt;&lt;br style=&quot;border-color: var(--border-color);&quot;&gt;&lt;/div&gt;&lt;div style=&quot;border-color: var(--border-color); height: 2px;&quot;&gt;&lt;br style=&quot;border-color: var(--border-color);&quot;&gt;&lt;/div&gt;&lt;div style=&quot;border-color: var(--border-color); height: 2px;&quot;&gt;&amp;nbsp;&lt;/div&gt;&lt;div style=&quot;border-color: var(--border-color); height: 2px;&quot;&gt;&amp;nbsp;&lt;/div&gt;&lt;div style=&quot;border-color: var(--border-color); height: 2px;&quot;&gt;&amp;nbsp;+ &amp;lt;&amp;lt;implement&amp;gt;&amp;gt; sendNewBattleNotification(Student reciver): void&lt;/div&gt;&lt;div style=&quot;border-color: var(--border-color); height: 2px;&quot;&gt;&lt;br style=&quot;border-color: var(--border-color);&quot;&gt;&lt;/div&gt;&lt;div style=&quot;border-color: var(--border-color); height: 2px;&quot;&gt;&lt;br style=&quot;border-color: var(--border-color);&quot;&gt;&lt;/div&gt;&lt;div style=&quot;border-color: var(--border-color); height: 2px;&quot;&gt;&lt;br style=&quot;border-color: var(--border-color);&quot;&gt;&lt;/div&gt;&lt;div style=&quot;border-color: var(--border-color); height: 2px;&quot;&gt;&lt;br style=&quot;border-color: var(--border-color);&quot;&gt;&lt;/div&gt;&lt;div style=&quot;border-color: var(--border-color); height: 2px;&quot;&gt;&amp;nbsp;&lt;/div&gt;&lt;div style=&quot;border-color: var(--border-color); height: 2px;&quot;&gt;&amp;nbsp;&lt;/div&gt;&lt;div style=&quot;border-color: var(--border-color); height: 2px;&quot;&gt;&amp;nbsp;&lt;/div&gt;&lt;div style=&quot;border-color: var(--border-color); height: 2px;&quot;&gt;&amp;nbsp;+ &amp;lt;&amp;lt;implement&amp;gt;&amp;gt; sendjoinedTournamentNotification(Student reciver): void&lt;/div&gt;&lt;div style=&quot;border-color: var(--border-color); height: 2px;&quot;&gt;&lt;font style=&quot;border-color: var(--border-color);&quot; size=&quot;3&quot;&gt;&lt;br style=&quot;border-color: var(--border-color);&quot;&gt;&lt;/font&gt;&lt;/div&gt;&lt;div style=&quot;border-color: var(--border-color); height: 2px;&quot;&gt;&lt;font style=&quot;border-color: var(--border-color);&quot; size=&quot;3&quot;&gt;&lt;br style=&quot;border-color: var(--border-color);&quot;&gt;&lt;/font&gt;&lt;/div&gt;&lt;div style=&quot;border-color: var(--border-color); height: 2px;&quot;&gt;&lt;font style=&quot;border-color: var(--border-color);&quot; size=&quot;3&quot;&gt;&lt;br style=&quot;border-color: var(--border-color);&quot;&gt;&lt;/font&gt;&lt;/div&gt;&lt;div style=&quot;border-color: var(--border-color); height: 2px;&quot;&gt;&lt;font style=&quot;border-color: var(--border-color);&quot; size=&quot;3&quot;&gt;&lt;br style=&quot;border-color: var(--border-color);&quot;&gt;&lt;/font&gt;&lt;/div&gt;&lt;div style=&quot;border-color: var(--border-color); height: 2px;&quot;&gt;&lt;font style=&quot;border-color: var(--border-color);&quot; size=&quot;3&quot;&gt;&amp;nbsp;&lt;/font&gt;&lt;/div&gt;&lt;div style=&quot;border-color: var(--border-color); height: 2px;&quot;&gt;&lt;font style=&quot;border-color: var(--border-color);&quot; size=&quot;3&quot;&gt;&amp;nbsp;&lt;/font&gt;&lt;/div&gt;&lt;div style=&quot;border-color: var(--border-color); height: 2px;&quot;&gt;&amp;nbsp;&lt;/div&gt;&lt;div style=&quot;border-color: var(--border-color); height: 2px;&quot;&gt;&amp;nbsp;+ &amp;lt;&amp;lt;implement&amp;gt;&amp;gt; sendjoinedBattleNotification(Student reciver): void&lt;/div&gt;&lt;div style=&quot;border-color: var(--border-color); height: 2px;&quot;&gt;&lt;font style=&quot;border-color: var(--border-color);&quot; size=&quot;3&quot;&gt;&lt;br style=&quot;border-color: var(--border-color);&quot;&gt;&lt;/font&gt;&lt;/div&gt;&lt;div style=&quot;border-color: var(--border-color); height: 2px;&quot;&gt;&lt;font style=&quot;border-color: var(--border-color);&quot; size=&quot;3&quot;&gt;&lt;br style=&quot;border-color: var(--border-color);&quot;&gt;&lt;/font&gt;&lt;/div&gt;&lt;div style=&quot;border-color: var(--border-color); height: 2px;&quot;&gt;&lt;font style=&quot;border-color: var(--border-color);&quot; size=&quot;3&quot;&gt;&lt;br style=&quot;border-color: var(--border-color);&quot;&gt;&lt;/font&gt;&lt;/div&gt;&lt;div style=&quot;border-color: var(--border-color); height: 2px;&quot;&gt;&lt;font style=&quot;border-color: var(--border-color);&quot; size=&quot;3&quot;&gt;&lt;br style=&quot;border-color: var(--border-color);&quot;&gt;&lt;/font&gt;&lt;/div&gt;&lt;div style=&quot;border-color: var(--border-color); height: 2px;&quot;&gt;&lt;font style=&quot;border-color: var(--border-color);&quot; size=&quot;3&quot;&gt;&amp;nbsp;&lt;/font&gt;&lt;/div&gt;&lt;div style=&quot;border-color: var(--border-color); height: 2px;&quot;&gt;&lt;font style=&quot;border-color: var(--border-color);&quot; size=&quot;3&quot;&gt;&amp;nbsp;&lt;/font&gt;&lt;/div&gt;&lt;div style=&quot;border-color: var(--border-color); height: 2px;&quot;&gt;&lt;br style=&quot;border-color: var(--border-color);&quot;&gt;&lt;/div&gt;&lt;div style=&quot;border-color: var(--border-color); height: 2px;&quot;&gt;&lt;span style=&quot;border-color: var(--border-color); background-color: initial;&quot;&gt;&amp;nbsp;+ &amp;lt;&amp;lt;implement&amp;gt;&amp;gt; sendCreatedTournamentNotification(Educator reciver): void&lt;/span&gt;&lt;br style=&quot;border-color: var(--border-color);&quot;&gt;&lt;/div&gt;&lt;div style=&quot;border-color: var(--border-color); height: 2px;&quot;&gt;&amp;nbsp; &amp;nbsp;&lt;/div&gt;&lt;div style=&quot;border-color: var(--border-color); height: 2px;&quot;&gt;&lt;br style=&quot;border-color: var(--border-color);&quot;&gt;&lt;/div&gt;&lt;div style=&quot;border-color: var(--border-color); height: 2px;&quot;&gt;&lt;br style=&quot;border-color: var(--border-color);&quot;&gt;&lt;/div&gt;&lt;div style=&quot;border-color: var(--border-color); height: 2px;&quot;&gt;&lt;br style=&quot;border-color: var(--border-color);&quot;&gt;&lt;/div&gt;&lt;div style=&quot;border-color: var(--border-color); height: 2px;&quot;&gt;&amp;nbsp;&amp;nbsp;&lt;/div&gt;&lt;div style=&quot;border-color: var(--border-color); height: 2px;&quot;&gt;&amp;nbsp;&amp;nbsp;&lt;/div&gt;&lt;div style=&quot;border-color: var(--border-color); height: 2px;&quot;&gt;&amp;nbsp;&lt;/div&gt;&lt;div style=&quot;border-color: var(--border-color); height: 2px;&quot;&gt;&amp;nbsp;+ &amp;lt;&amp;lt;implement&amp;gt;&amp;gt; sendCreatedBattleNotification(Educator reciver):void&amp;nbsp;&lt;/div&gt;&lt;div style=&quot;border-color: var(--border-color); height: 2px;&quot;&gt;&amp;nbsp; &amp;nbsp;&amp;nbsp;&lt;/div&gt;&lt;div style=&quot;border-color: var(--border-color); height: 2px;&quot;&gt;&lt;br style=&quot;border-color: var(--border-color);&quot;&gt;&lt;/div&gt;&lt;div style=&quot;border-color: var(--border-color); height: 2px;&quot;&gt;&lt;br style=&quot;border-color: var(--border-color);&quot;&gt;&lt;/div&gt;&lt;div style=&quot;border-color: var(--border-color); height: 2px;&quot;&gt;&amp;nbsp;&amp;nbsp;&lt;/div&gt;&lt;div style=&quot;border-color: var(--border-color); height: 2px;&quot;&gt;&lt;br style=&quot;border-color: var(--border-color);&quot;&gt;&lt;/div&gt;&lt;div style=&quot;border-color: var(--border-color); height: 2px;&quot;&gt;&amp;nbsp;&lt;/div&gt;&lt;div style=&quot;border-color: var(--border-color); height: 2px;&quot;&gt;&amp;nbsp;&lt;/div&gt;&lt;div style=&quot;border-color: var(--border-color); height: 2px;&quot;&gt;&amp;nbsp;+ &amp;lt;&amp;lt;implement&amp;gt;&amp;gt; sendTeamInvite(Student reciver): void&lt;/div&gt;&lt;div style=&quot;border-color: var(--border-color); height: 2px;&quot;&gt;&lt;br style=&quot;border-color: var(--border-color);&quot;&gt;&lt;/div&gt;&lt;div style=&quot;border-color: var(--border-color); height: 2px;&quot;&gt;&amp;nbsp;&lt;/div&gt;&lt;div style=&quot;border-color: var(--border-color); height: 2px;&quot;&gt;&amp;nbsp;&amp;nbsp;&lt;/div&gt;&lt;div style=&quot;border-color: var(--border-color); height: 2px;&quot;&gt;&lt;br style=&quot;border-color: var(--border-color);&quot;&gt;&lt;/div&gt;&lt;div style=&quot;border-color: var(--border-color); height: 2px;&quot;&gt;&lt;br style=&quot;border-color: var(--border-color);&quot;&gt;&lt;/div&gt;&lt;div style=&quot;border-color: var(--border-color); height: 2px;&quot;&gt;&amp;nbsp;&amp;nbsp;&lt;/div&gt;&lt;div style=&quot;border-color: var(--border-color); height: 2px;&quot;&gt;&lt;span style=&quot;border-color: var(--border-color); background-color: initial;&quot;&gt;&amp;nbsp;&lt;/span&gt;&lt;/div&gt;&lt;div style=&quot;border-color: var(--border-color); height: 2px;&quot;&gt;&lt;span style=&quot;border-color: var(--border-color); background-color: initial;&quot;&gt;&amp;nbsp;+ &amp;lt;&amp;lt;implement&amp;gt;&amp;gt; sendAcceptedInviteNotification(Student reciver): void&lt;/span&gt;&lt;br style=&quot;border-color: var(--border-color);&quot;&gt;&lt;/div&gt;&lt;div style=&quot;border-color: var(--border-color); height: 2px;&quot;&gt;&lt;br style=&quot;border-color: var(--border-color);&quot;&gt;&lt;/div&gt;&lt;div style=&quot;border-color: var(--border-color); height: 2px;&quot;&gt;&lt;br style=&quot;border-color: var(--border-color);&quot;&gt;&lt;/div&gt;&lt;div style=&quot;border-color: var(--border-color); height: 2px;&quot;&gt;&amp;nbsp;&amp;nbsp;&lt;/div&gt;&lt;div style=&quot;border-color: var(--border-color); height: 2px;&quot;&gt;&amp;nbsp;&amp;nbsp;&lt;/div&gt;&lt;div style=&quot;border-color: var(--border-color); height: 2px;&quot;&gt;&lt;br style=&quot;border-color: var(--border-color);&quot;&gt;&lt;/div&gt;&lt;div style=&quot;border-color: var(--border-color); height: 2px;&quot;&gt;&amp;nbsp;&lt;/div&gt;&lt;div style=&quot;border-color: var(--border-color); height: 2px;&quot;&gt;&amp;nbsp;+ &amp;lt;&amp;lt;implement&amp;gt;&amp;gt; sendEvaluatedNotification(Educator reciver): void&lt;/div&gt;&lt;div style=&quot;border-color: var(--border-color); height: 2px;&quot;&gt;&lt;br style=&quot;border-color: var(--border-color);&quot;&gt;&lt;/div&gt;&lt;div style=&quot;border-color: var(--border-color); height: 2px;&quot;&gt;&lt;br style=&quot;border-color: var(--border-color);&quot;&gt;&lt;/div&gt;&lt;div style=&quot;border-color: var(--border-color); height: 2px;&quot;&gt;&lt;br style=&quot;border-color: var(--border-color);&quot;&gt;&lt;/div&gt;&lt;div style=&quot;border-color: var(--border-color); height: 2px;&quot;&gt;&lt;br style=&quot;border-color: var(--border-color);&quot;&gt;&lt;/div&gt;&lt;div style=&quot;border-color: var(--border-color); height: 2px;&quot;&gt;&amp;nbsp;&amp;nbsp;&lt;/div&gt;&lt;div style=&quot;border-color: var(--border-color); height: 2px;&quot;&gt;&lt;br style=&quot;border-color: var(--border-color);&quot;&gt;&lt;/div&gt;&lt;div style=&quot;border-color: var(--border-color); height: 2px;&quot;&gt;&lt;span style=&quot;border-color: var(--border-color); background-color: initial;&quot;&gt;&amp;nbsp;&lt;/span&gt;&lt;/div&gt;&lt;div style=&quot;border-color: var(--border-color); height: 2px;&quot;&gt;&lt;span style=&quot;border-color: var(--border-color); background-color: initial;&quot;&gt;&amp;nbsp;+ &amp;lt;&amp;lt;implement&amp;gt;&amp;gt; sendClosedTournamentNotification(User reciver): void&lt;/span&gt;&lt;br style=&quot;border-color: var(--border-color);&quot;&gt;&lt;/div&gt;&lt;div style=&quot;border-color: var(--border-color); height: 2px;&quot;&gt;&lt;br style=&quot;border-color: var(--border-color);&quot;&gt;&lt;/div&gt;&lt;div style=&quot;border-color: var(--border-color); height: 2px;&quot;&gt;&lt;br style=&quot;border-color: var(--border-color);&quot;&gt;&lt;/div&gt;&lt;div style=&quot;border-color: var(--border-color); height: 2px;&quot;&gt;&lt;br style=&quot;border-color: var(--border-color);&quot;&gt;&lt;/div&gt;&lt;div style=&quot;border-color: var(--border-color); height: 2px;&quot;&gt;&lt;br style=&quot;border-color: var(--border-color);&quot;&gt;&lt;/div&gt;&lt;div style=&quot;border-color: var(--border-color); height: 2px;&quot;&gt;&lt;br style=&quot;border-color: var(--border-color);&quot;&gt;&lt;/div&gt;&lt;div style=&quot;border-color: var(--border-color); height: 2px;&quot;&gt;&lt;span style=&quot;border-color: var(--border-color); background-color: initial;&quot;&gt;&amp;nbsp;&lt;/span&gt;&lt;/div&gt;&lt;div style=&quot;border-color: var(--border-color); height: 2px;&quot;&gt;&lt;span style=&quot;border-color: var(--border-color); background-color: initial;&quot;&gt;&amp;nbsp;&lt;/span&gt;&lt;/div&gt;&lt;div style=&quot;border-color: var(--border-color); height: 2px;&quot;&gt;&lt;span style=&quot;border-color: var(--border-color); background-color: initial;&quot;&gt;&amp;nbsp;+ &amp;lt;&amp;lt;implement&amp;gt;&amp;gt; sendGrantedPermissionNotification(Educator reciver): void&lt;/span&gt;&lt;br style=&quot;border-color: var(--border-color);&quot;&gt;&lt;/div&gt;&lt;div style=&quot;border-color: var(--border-color); height: 2px;&quot;&gt;&lt;br style=&quot;border-color: var(--border-color);&quot;&gt;&lt;/div&gt;&lt;div style=&quot;border-color: var(--border-color); height: 2px;&quot;&gt;&lt;br style=&quot;border-color: var(--border-color);&quot;&gt;&lt;/div&gt;&lt;div style=&quot;border-color: var(--border-color); height: 2px;&quot;&gt;&lt;br style=&quot;border-color: var(--border-color);&quot;&gt;&lt;/div&gt;&lt;div style=&quot;border-color: var(--border-color); height: 2px;&quot;&gt;&lt;br style=&quot;border-color: var(--border-color);&quot;&gt;&lt;/div&gt;&lt;div style=&quot;border-color: var(--border-color); height: 2px;&quot;&gt;&amp;nbsp;&lt;/div&gt;&lt;div style=&quot;border-color: var(--border-color); height: 2px;&quot;&gt;&amp;nbsp;&lt;/div&gt;&lt;div style=&quot;border-color: var(--border-color); height: 2px;&quot;&gt;&lt;br style=&quot;border-color: var(--border-color);&quot;&gt;&lt;/div&gt;&lt;div style=&quot;border-color: var(--border-color); height: 2px;&quot;&gt;&amp;nbsp;+ &amp;lt;&amp;lt;implement&amp;gt;&amp;gt; sendCreatedBadgeNotification(Educator reciver): Notification&lt;/div&gt;&lt;div style=&quot;border-color: var(--border-color); height: 2px;&quot;&gt;&lt;br style=&quot;border-color: var(--border-color);&quot;&gt;&lt;/div&gt;&lt;div style=&quot;border-color: var(--border-color); height: 2px;&quot;&gt;&lt;br style=&quot;border-color: var(--border-color);&quot;&gt;&lt;/div&gt;&lt;div style=&quot;border-color: var(--border-color); height: 2px;&quot;&gt;&lt;br style=&quot;border-color: var(--border-color);&quot;&gt;&lt;/div&gt;&lt;div style=&quot;border-color: var(--border-color); height: 2px;&quot;&gt;&amp;nbsp;&amp;nbsp;&lt;/div&gt;&lt;div style=&quot;border-color: var(--border-color); height: 2px;&quot;&gt;&lt;br style=&quot;border-color: var(--border-color);&quot;&gt;&lt;/div&gt;&lt;div style=&quot;border-color: var(--border-color); height: 2px;&quot;&gt;&amp;nbsp;&lt;/div&gt;&lt;div style=&quot;border-color: var(--border-color); height: 2px;&quot;&gt;&amp;nbsp;&lt;/div&gt;&lt;div style=&quot;border-color: var(--border-color); height: 2px;&quot;&gt;&amp;nbsp;+ &amp;lt;&amp;lt;implement&amp;gt;&amp;gt; sendWorkEvaluatedNotification(Student reciver): Notification&lt;/div&gt;&lt;div style=&quot;border-color: var(--border-color); height: 2px;&quot;&gt;&lt;br style=&quot;border-color: var(--border-color);&quot;&gt;&lt;/div&gt;&lt;div style=&quot;border-color: var(--border-color); height: 2px;&quot;&gt;&lt;br style=&quot;border-color: var(--border-color);&quot;&gt;&lt;/div&gt;&lt;div style=&quot;border-color: var(--border-color); height: 2px;&quot;&gt;&lt;br style=&quot;border-color: var(--border-color);&quot;&gt;&lt;/div&gt;&lt;div style=&quot;border-color: var(--border-color); height: 2px;&quot;&gt;&lt;br style=&quot;border-color: var(--border-color);&quot;&gt;&lt;/div&gt;&lt;div style=&quot;border-color: var(--border-color); height: 2px;&quot;&gt;&lt;br style=&quot;border-color: var(--border-color);&quot;&gt;&lt;/div&gt;&lt;div style=&quot;height:2px;&quot;&gt;&lt;br&gt;&lt;/div&gt;&lt;div style=&quot;height:2px;&quot;&gt;&lt;br&gt;&lt;/div&gt;&lt;div style=&quot;height:2px;&quot;&gt;&lt;br&gt;&lt;/div&gt;&lt;div style=&quot;height:2px;&quot;&gt;&lt;br&gt;&lt;/div&gt;" style="verticalAlign=top;align=left;overflow=fill;fontSize=12;fontFamily=Helvetica;html=1;whiteSpace=wrap;" parent="1" vertex="1">
          <mxGeometry x="1701" y="1652" width="437" height="289" as="geometry" />
        </mxCell>
        <mxCell id="M6HZu9PlmywMM8g6Wbbx-39" value="" style="endArrow=block;endSize=6;dashed=1;html=1;rounded=0;endFill=0;" parent="1" edge="1">
          <mxGeometry width="160" relative="1" as="geometry">
            <mxPoint x="1701" y="1827" as="sourcePoint" />
            <mxPoint x="1426" y="1825" as="targetPoint" />
          </mxGeometry>
        </mxCell>
        <mxCell id="M6HZu9PlmywMM8g6Wbbx-43" value="&lt;p style=&quot;margin:0px;margin-top:4px;text-align:center;&quot;&gt;&lt;b&gt;&lt;font style=&quot;font-size: 10px;&quot;&gt;&amp;lt;&amp;lt;interface&amp;gt;&amp;gt;&lt;/font&gt;&lt;/b&gt;&lt;/p&gt;&lt;p style=&quot;margin:0px;margin-top:4px;text-align:center;&quot;&gt;&lt;b&gt;ScoreService&lt;/b&gt;&lt;/p&gt;&lt;hr size=&quot;1&quot;&gt;&lt;div style=&quot;height:2px;&quot;&gt;&lt;/div&gt;&lt;hr size=&quot;1&quot;&gt;&lt;div style=&quot;height:2px;&quot;&gt;&amp;nbsp;+ evaluateStudentScore(Student student, AutomaticEvaluation automaticEvaluation, ManualEvaluation manualEvaluation) : Score&lt;/div&gt;&lt;div style=&quot;height:2px;&quot;&gt;&lt;br&gt;&lt;/div&gt;&lt;div style=&quot;height:2px;&quot;&gt;&lt;br&gt;&lt;/div&gt;&lt;div style=&quot;height:2px;&quot;&gt;&lt;br&gt;&lt;/div&gt;&lt;div style=&quot;height:2px;&quot;&gt;&lt;br&gt;&lt;/div&gt;&lt;div style=&quot;height:2px;&quot;&gt;&lt;br&gt;&lt;/div&gt;&lt;div style=&quot;height:2px;&quot;&gt;&lt;br&gt;&lt;/div&gt;&lt;div style=&quot;height:2px;&quot;&gt;&lt;br&gt;&lt;/div&gt;&lt;div style=&quot;height:2px;&quot;&gt;&lt;br&gt;&lt;/div&gt;&lt;div style=&quot;height:2px;&quot;&gt;&lt;br&gt;&lt;/div&gt;&lt;div style=&quot;height:2px;&quot;&gt;&lt;br&gt;&lt;/div&gt;&lt;div style=&quot;height:2px;&quot;&gt;&lt;br&gt;&lt;/div&gt;&lt;div style=&quot;height:2px;&quot;&gt;&amp;nbsp;+ evaluateTeamScore(Team team, AutomaticEvaluation automaticEvaluation, ManualEvaluation manualEvaluation): Score&amp;nbsp;&lt;/div&gt;&amp;nbsp; &amp;nbsp; &amp;nbsp; &amp;nbsp; &amp;nbsp; &amp;nbsp; &amp;nbsp; &amp;nbsp; &amp;nbsp; &amp;nbsp; &amp;nbsp; &amp;nbsp; &amp;nbsp; &amp;nbsp; &amp;nbsp; &amp;nbsp; &amp;nbsp; &amp;nbsp; &amp;nbsp; &amp;nbsp; &amp;nbsp; &amp;nbsp; &amp;nbsp; &amp;nbsp; &amp;nbsp; &amp;nbsp; &amp;nbsp; &amp;nbsp; &amp;nbsp;&lt;br&gt;&lt;br&gt;&amp;nbsp; &amp;nbsp; &amp;nbsp; &amp;nbsp; &amp;nbsp; &amp;nbsp; &amp;nbsp;&lt;div style=&quot;height:2px;&quot;&gt;&lt;br&gt;&lt;/div&gt;&lt;div style=&quot;height:2px;&quot;&gt;&amp;nbsp; &amp;nbsp;&lt;/div&gt;&lt;div style=&quot;height:2px;&quot;&gt;&amp;nbsp;&lt;/div&gt;&lt;div style=&quot;height:2px;&quot;&gt;&lt;br&gt;&lt;/div&gt;&lt;div style=&quot;height:2px;&quot;&gt;&lt;font size=&quot;3&quot;&gt;&lt;br&gt;&lt;/font&gt;&lt;/div&gt;&lt;div style=&quot;height:2px;&quot;&gt;&lt;font size=&quot;3&quot;&gt;&lt;br&gt;&lt;/font&gt;&lt;/div&gt;&lt;div style=&quot;height:2px;&quot;&gt;&lt;font size=&quot;3&quot;&gt;&lt;br&gt;&lt;/font&gt;&lt;/div&gt;&lt;div style=&quot;height:2px;&quot;&gt;&lt;font size=&quot;3&quot;&gt;&lt;br&gt;&lt;/font&gt;&lt;/div&gt;&lt;div style=&quot;height:2px;&quot;&gt;&lt;font size=&quot;3&quot;&gt;&amp;nbsp;&lt;/font&gt;&lt;/div&gt;&lt;div style=&quot;height:2px;&quot;&gt;&lt;br&gt;&lt;/div&gt;&lt;div style=&quot;height:2px;&quot;&gt;&lt;br&gt;&lt;/div&gt;&lt;div style=&quot;height:2px;&quot;&gt;&lt;br&gt;&lt;/div&gt;&lt;div style=&quot;height:2px;&quot;&gt;&lt;br&gt;&lt;/div&gt;&lt;div style=&quot;height:2px;&quot;&gt;&lt;br&gt;&lt;/div&gt;&lt;div style=&quot;height:2px;&quot;&gt;&lt;br&gt;&lt;/div&gt;&lt;div style=&quot;height:2px;&quot;&gt;&lt;br&gt;&lt;/div&gt;" style="verticalAlign=top;align=left;overflow=fill;fontSize=12;fontFamily=Helvetica;html=1;whiteSpace=wrap;" parent="1" vertex="1">
          <mxGeometry x="761" y="2061" width="769" height="147" as="geometry" />
        </mxCell>
        <mxCell id="M6HZu9PlmywMM8g6Wbbx-44" value="&lt;p style=&quot;border-color: var(--border-color); margin: 4px 0px 0px; text-align: center;&quot;&gt;&lt;b style=&quot;background-color: initial; border-color: var(--border-color);&quot;&gt;ScoreServiceImpl&lt;/b&gt;&lt;br&gt;&lt;/p&gt;&lt;hr style=&quot;border-color: var(--border-color);&quot; size=&quot;1&quot;&gt;&lt;div style=&quot;border-color: var(--border-color); height: 2px;&quot;&gt;&lt;/div&gt;&lt;hr style=&quot;border-color: var(--border-color);&quot; size=&quot;1&quot;&gt;&lt;div style=&quot;border-color: var(--border-color); height: 2px;&quot;&gt;&lt;span style=&quot;background-color: initial; text-align: center;&quot;&gt;&amp;nbsp;&lt;/span&gt;&lt;/div&gt;&lt;div style=&quot;border-color: var(--border-color); height: 2px;&quot;&gt;&lt;br style=&quot;border-color: var(--border-color);&quot;&gt;&lt;/div&gt;&lt;div style=&quot;border-color: var(--border-color); height: 2px;&quot;&gt;&amp;nbsp;&amp;nbsp;+ &amp;lt;&amp;lt;implement&amp;gt;&amp;gt; evaluateStudentScore(Student student, AutomaticEvaluation automaticEvaluation, ManualEvaluation manualEvaluation) : Score&lt;/div&gt;&lt;div style=&quot;border-color: var(--border-color); height: 2px;&quot;&gt;&lt;br style=&quot;border-color: var(--border-color);&quot;&gt;&lt;/div&gt;&lt;div style=&quot;border-color: var(--border-color); height: 2px;&quot;&gt;&lt;br style=&quot;border-color: var(--border-color);&quot;&gt;&lt;/div&gt;&lt;div style=&quot;border-color: var(--border-color); height: 2px;&quot;&gt;&lt;br style=&quot;border-color: var(--border-color);&quot;&gt;&lt;/div&gt;&lt;div style=&quot;border-color: var(--border-color); height: 2px;&quot;&gt;&lt;br style=&quot;border-color: var(--border-color);&quot;&gt;&lt;/div&gt;&lt;div style=&quot;border-color: var(--border-color); height: 2px;&quot;&gt;&lt;br style=&quot;border-color: var(--border-color);&quot;&gt;&lt;/div&gt;&lt;div style=&quot;border-color: var(--border-color); height: 2px;&quot;&gt;&lt;br style=&quot;border-color: var(--border-color);&quot;&gt;&lt;/div&gt;&lt;div style=&quot;border-color: var(--border-color); height: 2px;&quot;&gt;&lt;br style=&quot;border-color: var(--border-color);&quot;&gt;&lt;/div&gt;&lt;div style=&quot;border-color: var(--border-color); height: 2px;&quot;&gt;&lt;br style=&quot;border-color: var(--border-color);&quot;&gt;&lt;/div&gt;&lt;div style=&quot;border-color: var(--border-color); height: 2px;&quot;&gt;&lt;br style=&quot;border-color: var(--border-color);&quot;&gt;&lt;/div&gt;&lt;div style=&quot;border-color: var(--border-color); height: 2px;&quot;&gt;&lt;br style=&quot;border-color: var(--border-color);&quot;&gt;&lt;/div&gt;&lt;div style=&quot;border-color: var(--border-color); height: 2px;&quot;&gt;&lt;br style=&quot;border-color: var(--border-color);&quot;&gt;&lt;/div&gt;&lt;div style=&quot;border-color: var(--border-color); height: 2px;&quot;&gt;&amp;nbsp;+ &amp;lt;&amp;lt;implement&amp;gt;&amp;gt; evaluateTeamScore(Team team, AutomaticEvaluation automaticEvaluation, ManualEvaluation manualEvaluation): Score&lt;/div&gt;&lt;div style=&quot;border-color: var(--border-color); height: 2px;&quot;&gt;&lt;font style=&quot;border-color: var(--border-color);&quot; size=&quot;3&quot;&gt;&lt;br style=&quot;border-color: var(--border-color);&quot;&gt;&lt;/font&gt;&lt;/div&gt;&lt;div style=&quot;border-color: var(--border-color); height: 2px;&quot;&gt;&lt;font style=&quot;border-color: var(--border-color);&quot; size=&quot;3&quot;&gt;&lt;br style=&quot;border-color: var(--border-color);&quot;&gt;&lt;/font&gt;&lt;/div&gt;&lt;div style=&quot;border-color: var(--border-color); height: 2px;&quot;&gt;&lt;font style=&quot;border-color: var(--border-color);&quot; size=&quot;3&quot;&gt;&amp;nbsp;&lt;/font&gt;&lt;/div&gt;&lt;div style=&quot;border-color: var(--border-color); height: 2px;&quot;&gt;&lt;br style=&quot;border-color: var(--border-color);&quot;&gt;&lt;/div&gt;&lt;div style=&quot;border-color: var(--border-color); height: 2px;&quot;&gt;&lt;br style=&quot;border-color: var(--border-color);&quot;&gt;&lt;/div&gt;&lt;div style=&quot;border-color: var(--border-color); height: 2px;&quot;&gt;&lt;br style=&quot;border-color: var(--border-color);&quot;&gt;&lt;/div&gt;&lt;div style=&quot;border-color: var(--border-color); height: 2px;&quot;&gt;&lt;br style=&quot;border-color: var(--border-color);&quot;&gt;&lt;/div&gt;&lt;div style=&quot;border-color: var(--border-color); height: 2px;&quot;&gt;&lt;br style=&quot;border-color: var(--border-color);&quot;&gt;&lt;/div&gt;&lt;div style=&quot;border-color: var(--border-color); height: 2px;&quot;&gt;&lt;br style=&quot;border-color: var(--border-color);&quot;&gt;&lt;/div&gt;&lt;div style=&quot;border-color: var(--border-color); height: 2px;&quot;&gt;&lt;br style=&quot;border-color: var(--border-color);&quot;&gt;&lt;/div&gt;" style="verticalAlign=top;align=left;overflow=fill;fontSize=12;fontFamily=Helvetica;html=1;whiteSpace=wrap;" parent="1" vertex="1">
          <mxGeometry x="1701" y="2051" width="850" height="111" as="geometry" />
        </mxCell>
        <mxCell id="M6HZu9PlmywMM8g6Wbbx-45" value="" style="endArrow=block;endSize=6;dashed=1;html=1;rounded=0;entryX=1;entryY=0.5;entryDx=0;entryDy=0;endFill=0;" parent="1" edge="1">
          <mxGeometry width="160" relative="1" as="geometry">
            <mxPoint x="1701" y="2137" as="sourcePoint" />
            <mxPoint x="1531" y="2137.38" as="targetPoint" />
          </mxGeometry>
        </mxCell>
        <mxCell id="e2k04IvYg30xB67EaK2v-12" style="edgeStyle=orthogonalEdgeStyle;rounded=0;orthogonalLoop=1;jettySize=auto;html=1;exitX=0;exitY=0.5;exitDx=0;exitDy=0;entryX=0;entryY=0.5;entryDx=0;entryDy=0;dashed=1;endArrow=open;endFill=0;" parent="1" source="M6HZu9PlmywMM8g6Wbbx-46" target="M6HZu9PlmywMM8g6Wbbx-179" edge="1">
          <mxGeometry relative="1" as="geometry">
            <Array as="points">
              <mxPoint x="902" y="2494" />
              <mxPoint x="902" y="2688" />
              <mxPoint x="561" y="2688" />
              <mxPoint x="561" y="3546" />
            </Array>
          </mxGeometry>
        </mxCell>
        <mxCell id="M6HZu9PlmywMM8g6Wbbx-46" value="&lt;p style=&quot;margin:0px;margin-top:4px;text-align:center;&quot;&gt;&lt;b&gt;&lt;font style=&quot;font-size: 10px;&quot;&gt;&amp;lt;&amp;lt;interface&amp;gt;&amp;gt;&lt;/font&gt;&lt;/b&gt;&lt;/p&gt;&lt;p style=&quot;margin:0px;margin-top:4px;text-align:center;&quot;&gt;&lt;b&gt;TournamentService&lt;/b&gt;&lt;/p&gt;&lt;hr size=&quot;1&quot;&gt;&lt;div style=&quot;height:2px;&quot;&gt;&lt;/div&gt;&lt;hr size=&quot;1&quot;&gt;&lt;div style=&quot;height:2px;&quot;&gt;&amp;nbsp;+ createTournament(Educator educator, String name, String description, Date registrationDeadline, Date endingDate) : Tourament&lt;/div&gt;&lt;div style=&quot;height:2px;&quot;&gt;&lt;br&gt;&lt;/div&gt;&lt;div style=&quot;height:2px;&quot;&gt;&lt;br&gt;&lt;/div&gt;&lt;div style=&quot;height:2px;&quot;&gt;&lt;br&gt;&lt;/div&gt;&lt;div style=&quot;height:2px;&quot;&gt;&lt;br&gt;&lt;/div&gt;&lt;div style=&quot;height:2px;&quot;&gt;&lt;br&gt;&lt;/div&gt;&lt;div style=&quot;height:2px;&quot;&gt;&lt;br&gt;&lt;/div&gt;&lt;div style=&quot;height:2px;&quot;&gt;&lt;br&gt;&lt;/div&gt;&lt;div style=&quot;height:2px;&quot;&gt;&lt;br&gt;&lt;/div&gt;&lt;div style=&quot;height:2px;&quot;&gt;&lt;br&gt;&lt;/div&gt;&lt;div style=&quot;height:2px;&quot;&gt;&lt;br&gt;&lt;/div&gt;&lt;div style=&quot;height:2px;&quot;&gt;&lt;br&gt;&lt;/div&gt;&lt;div style=&quot;height:2px;&quot;&gt;&amp;nbsp;+ closeTournament(Tournament tournament) : void&lt;/div&gt;&lt;div style=&quot;height:2px;&quot;&gt;&lt;br&gt;&lt;/div&gt;&lt;div style=&quot;height:2px;&quot;&gt;&lt;br&gt;&lt;/div&gt;&lt;div style=&quot;height:2px;&quot;&gt;&lt;br&gt;&lt;/div&gt;&lt;div style=&quot;height:2px;&quot;&gt;&lt;br&gt;&lt;/div&gt;&lt;div style=&quot;height:2px;&quot;&gt;&lt;br&gt;&lt;/div&gt;&lt;div style=&quot;height:2px;&quot;&gt;&lt;br&gt;&lt;/div&gt;&lt;div style=&quot;height:2px;&quot;&gt;&lt;br&gt;&lt;/div&gt;&lt;div style=&quot;height:2px;&quot;&gt;&lt;br&gt;&lt;/div&gt;&lt;div style=&quot;height:2px;&quot;&gt;&lt;br&gt;&lt;/div&gt;&lt;div style=&quot;height:2px;&quot;&gt;&lt;br&gt;&lt;/div&gt;&lt;div style=&quot;height:2px;&quot;&gt;&lt;br&gt;&lt;/div&gt;&lt;div style=&quot;height:2px;&quot;&gt;&lt;br&gt;&lt;/div&gt;&lt;div style=&quot;height:2px;&quot;&gt;&amp;nbsp;+ joinTournament(Student student, Tournament tournament) : void&lt;/div&gt;&lt;div style=&quot;height:2px;&quot;&gt;&amp;nbsp;&lt;/div&gt;&lt;div style=&quot;height:2px;&quot;&gt;&lt;br&gt;&lt;/div&gt;&lt;div style=&quot;height:2px;&quot;&gt;&lt;font size=&quot;3&quot;&gt;&lt;br&gt;&lt;/font&gt;&lt;/div&gt;&lt;div style=&quot;height:2px;&quot;&gt;&lt;font size=&quot;3&quot;&gt;&lt;br&gt;&lt;/font&gt;&lt;/div&gt;&lt;div style=&quot;height:2px;&quot;&gt;&lt;br&gt;&lt;/div&gt;&lt;div style=&quot;height:2px;&quot;&gt;&lt;br&gt;&lt;/div&gt;&lt;div style=&quot;height:2px;&quot;&gt;&lt;br&gt;&lt;/div&gt;&lt;div style=&quot;height:2px;&quot;&gt;&lt;br&gt;&lt;/div&gt;&lt;div style=&quot;height:2px;&quot;&gt;&amp;nbsp;&lt;/div&gt;&lt;div style=&quot;height:2px;&quot;&gt;&lt;br&gt;&lt;/div&gt;&lt;div style=&quot;height:2px;&quot;&gt;&amp;nbsp;+ getActiveTournaments(): List&amp;lt;Tournament&amp;gt;&lt;/div&gt;&lt;div style=&quot;height:2px;&quot;&gt;&lt;font size=&quot;3&quot;&gt;&amp;nbsp;&lt;/font&gt;&lt;/div&gt;&lt;div style=&quot;height:2px;&quot;&gt;&lt;br&gt;&lt;/div&gt;&lt;div style=&quot;height:2px;&quot;&gt;&lt;br&gt;&lt;/div&gt;&lt;div style=&quot;height:2px;&quot;&gt;&lt;br&gt;&lt;/div&gt;&lt;div style=&quot;height:2px;&quot;&gt;&lt;br&gt;&lt;/div&gt;&lt;div style=&quot;height:2px;&quot;&gt;&lt;br&gt;&lt;/div&gt;&lt;div style=&quot;height:2px;&quot;&gt;&lt;br&gt;&lt;/div&gt;&lt;div style=&quot;height:2px;&quot;&gt;&lt;br&gt;&lt;/div&gt;&lt;div style=&quot;height:2px;&quot;&gt;&lt;br&gt;&lt;/div&gt;&lt;div style=&quot;height:2px;&quot;&gt;&lt;br&gt;&lt;/div&gt;&lt;div style=&quot;height:2px;&quot;&gt;&amp;nbsp;+&amp;nbsp;&amp;nbsp;&lt;/div&gt;&amp;nbsp; &amp;nbsp; getCompletedTournaments(): List&amp;lt;Tournament&amp;gt;&amp;nbsp;&amp;nbsp;&amp;nbsp;&lt;br&gt;&lt;div style=&quot;height:2px;&quot;&gt;&lt;br&gt;&lt;/div&gt;&lt;div style=&quot;height:2px;&quot;&gt;&lt;br&gt;&lt;/div&gt;&lt;div style=&quot;height:2px;&quot;&gt;&amp;nbsp;+&amp;nbsp;&lt;/div&gt;&amp;nbsp; &amp;nbsp; grantPermission(Educator educator): void&lt;div style=&quot;height:2px;&quot;&gt;&lt;br&gt;&lt;/div&gt;&lt;div style=&quot;height:2px;&quot;&gt;&lt;br&gt;&lt;/div&gt;" style="verticalAlign=top;align=left;overflow=fill;fontSize=12;fontFamily=Helvetica;html=1;whiteSpace=wrap;" parent="1" vertex="1">
          <mxGeometry x="917" y="2388" width="699" height="211" as="geometry" />
        </mxCell>
        <mxCell id="e2k04IvYg30xB67EaK2v-3" style="edgeStyle=orthogonalEdgeStyle;rounded=0;orthogonalLoop=1;jettySize=auto;html=1;exitX=0.25;exitY=1;exitDx=0;exitDy=0;dashed=1;endArrow=open;endFill=0;" parent="1" source="M6HZu9PlmywMM8g6Wbbx-47" target="M6HZu9PlmywMM8g6Wbbx-49" edge="1">
          <mxGeometry relative="1" as="geometry" />
        </mxCell>
        <mxCell id="e2k04IvYg30xB67EaK2v-4" value="&amp;lt;&amp;lt;use&amp;gt;&amp;gt;" style="edgeLabel;html=1;align=center;verticalAlign=middle;resizable=0;points=[];" parent="e2k04IvYg30xB67EaK2v-3" vertex="1" connectable="0">
          <mxGeometry x="-0.0896" y="1" relative="1" as="geometry">
            <mxPoint as="offset" />
          </mxGeometry>
        </mxCell>
        <mxCell id="M6HZu9PlmywMM8g6Wbbx-47" value="&lt;p style=&quot;margin:0px;margin-top:4px;text-align:center;&quot;&gt;&amp;nbsp; &amp;nbsp;&amp;nbsp;&lt;br&gt;&lt;b style=&quot;border-color: var(--border-color);&quot;&gt;TournamentServiceImpl&lt;/b&gt;&lt;br&gt;&lt;/p&gt;&lt;hr size=&quot;1&quot;&gt;&lt;div style=&quot;height:2px;&quot;&gt;&lt;/div&gt;&lt;hr size=&quot;1&quot;&gt;&lt;div style=&quot;height:2px;&quot;&gt;&lt;div style=&quot;border-color: var(--border-color); height: 2px;&quot;&gt;&amp;nbsp;+ &amp;lt;&amp;lt;implement&amp;gt;&amp;gt; createTournament(String name, Stringg description, Date registrationDeadline, Date endingDate) : Tournament&lt;/div&gt;&lt;div style=&quot;border-color: var(--border-color); height: 2px;&quot;&gt;&amp;nbsp;&lt;/div&gt;&lt;div style=&quot;border-color: var(--border-color); height: 2px;&quot;&gt;&amp;nbsp;&lt;/div&gt;&lt;div style=&quot;border-color: var(--border-color); height: 2px;&quot;&gt;&lt;br style=&quot;border-color: var(--border-color);&quot;&gt;&lt;/div&gt;&lt;div style=&quot;border-color: var(--border-color); height: 2px;&quot;&gt;&lt;br style=&quot;border-color: var(--border-color);&quot;&gt;&lt;/div&gt;&lt;div style=&quot;border-color: var(--border-color); height: 2px;&quot;&gt;&lt;br style=&quot;border-color: var(--border-color);&quot;&gt;&lt;/div&gt;&lt;div style=&quot;border-color: var(--border-color); height: 2px;&quot;&gt;&lt;br style=&quot;border-color: var(--border-color);&quot;&gt;&lt;/div&gt;&lt;div style=&quot;border-color: var(--border-color); height: 2px;&quot;&gt;&lt;br style=&quot;border-color: var(--border-color);&quot;&gt;&lt;/div&gt;&lt;div style=&quot;border-color: var(--border-color); height: 2px;&quot;&gt;&lt;br style=&quot;border-color: var(--border-color);&quot;&gt;&lt;/div&gt;&lt;div style=&quot;border-color: var(--border-color); height: 2px;&quot;&gt;&lt;br style=&quot;border-color: var(--border-color);&quot;&gt;&lt;/div&gt;&lt;div style=&quot;border-color: var(--border-color); height: 2px;&quot;&gt;&lt;br style=&quot;border-color: var(--border-color);&quot;&gt;&lt;/div&gt;&lt;div style=&quot;border-color: var(--border-color); height: 2px;&quot;&gt;&lt;br style=&quot;border-color: var(--border-color);&quot;&gt;&lt;/div&gt;&lt;div style=&quot;border-color: var(--border-color); height: 2px;&quot;&gt;&amp;nbsp;+ &amp;lt;&amp;lt;implement&amp;gt;&amp;gt; closeTournament(Tournament tournament) : void&lt;/div&gt;&lt;div style=&quot;border-color: var(--border-color); height: 2px;&quot;&gt;&lt;br style=&quot;border-color: var(--border-color);&quot;&gt;&lt;/div&gt;&lt;div style=&quot;border-color: var(--border-color); height: 2px;&quot;&gt;&lt;br style=&quot;border-color: var(--border-color);&quot;&gt;&lt;/div&gt;&lt;div style=&quot;border-color: var(--border-color); height: 2px;&quot;&gt;&lt;br style=&quot;border-color: var(--border-color);&quot;&gt;&lt;/div&gt;&lt;div style=&quot;border-color: var(--border-color); height: 2px;&quot;&gt;&lt;br style=&quot;border-color: var(--border-color);&quot;&gt;&lt;/div&gt;&lt;div style=&quot;border-color: var(--border-color); height: 2px;&quot;&gt;&lt;br style=&quot;border-color: var(--border-color);&quot;&gt;&lt;/div&gt;&lt;div style=&quot;border-color: var(--border-color); height: 2px;&quot;&gt;&lt;br style=&quot;border-color: var(--border-color);&quot;&gt;&lt;/div&gt;&lt;div style=&quot;border-color: var(--border-color); height: 2px;&quot;&gt;&lt;br style=&quot;border-color: var(--border-color);&quot;&gt;&lt;/div&gt;&lt;div style=&quot;border-color: var(--border-color); height: 2px;&quot;&gt;&lt;br style=&quot;border-color: var(--border-color);&quot;&gt;&lt;/div&gt;&lt;div style=&quot;border-color: var(--border-color); height: 2px;&quot;&gt;&lt;br style=&quot;border-color: var(--border-color);&quot;&gt;&lt;/div&gt;&lt;div style=&quot;border-color: var(--border-color); height: 2px;&quot;&gt;&lt;br style=&quot;border-color: var(--border-color);&quot;&gt;&lt;/div&gt;&lt;div style=&quot;border-color: var(--border-color); height: 2px;&quot;&gt;&lt;br style=&quot;border-color: var(--border-color);&quot;&gt;&lt;/div&gt;&lt;div style=&quot;border-color: var(--border-color); height: 2px;&quot;&gt;&lt;br style=&quot;border-color: var(--border-color);&quot;&gt;&lt;/div&gt;&lt;div style=&quot;border-color: var(--border-color); height: 2px;&quot;&gt;&amp;nbsp;+ &amp;lt;&amp;lt;implement&amp;gt;&amp;gt; joinTournament(Student student, Tournament tournament) : void&lt;/div&gt;&lt;div style=&quot;border-color: var(--border-color); height: 2px;&quot;&gt;&amp;nbsp;&lt;/div&gt;&lt;div style=&quot;border-color: var(--border-color); height: 2px;&quot;&gt;&lt;br style=&quot;border-color: var(--border-color);&quot;&gt;&lt;/div&gt;&lt;div style=&quot;border-color: var(--border-color); height: 2px;&quot;&gt;&lt;font style=&quot;border-color: var(--border-color);&quot; size=&quot;3&quot;&gt;&lt;br style=&quot;border-color: var(--border-color);&quot;&gt;&lt;/font&gt;&lt;/div&gt;&lt;div style=&quot;border-color: var(--border-color); height: 2px;&quot;&gt;&lt;font style=&quot;border-color: var(--border-color);&quot; size=&quot;3&quot;&gt;&lt;br style=&quot;border-color: var(--border-color);&quot;&gt;&lt;/font&gt;&lt;/div&gt;&lt;div style=&quot;border-color: var(--border-color); height: 2px;&quot;&gt;&lt;br style=&quot;border-color: var(--border-color);&quot;&gt;&lt;/div&gt;&lt;div style=&quot;border-color: var(--border-color); height: 2px;&quot;&gt;&lt;br style=&quot;border-color: var(--border-color);&quot;&gt;&lt;/div&gt;&lt;div style=&quot;border-color: var(--border-color); height: 2px;&quot;&gt;&lt;br style=&quot;border-color: var(--border-color);&quot;&gt;&lt;/div&gt;&lt;div style=&quot;border-color: var(--border-color); height: 2px;&quot;&gt;&lt;br style=&quot;border-color: var(--border-color);&quot;&gt;&lt;/div&gt;&lt;div style=&quot;border-color: var(--border-color); height: 2px;&quot;&gt;&amp;nbsp;&lt;/div&gt;&lt;div style=&quot;border-color: var(--border-color); height: 2px;&quot;&gt;&lt;br style=&quot;border-color: var(--border-color);&quot;&gt;&lt;/div&gt;&lt;div style=&quot;border-color: var(--border-color); height: 2px;&quot;&gt;&amp;nbsp;+ &amp;lt;&amp;lt;implement&amp;gt;&amp;gt; getActiveTournaments(): List&amp;lt;Tournament&amp;gt;&lt;/div&gt;&lt;div style=&quot;border-color: var(--border-color); height: 2px;&quot;&gt;&lt;font style=&quot;border-color: var(--border-color);&quot; size=&quot;3&quot;&gt;&amp;nbsp;&lt;/font&gt;&lt;/div&gt;&lt;div style=&quot;border-color: var(--border-color); height: 2px;&quot;&gt;&lt;br style=&quot;border-color: var(--border-color);&quot;&gt;&lt;/div&gt;&lt;div style=&quot;border-color: var(--border-color); height: 2px;&quot;&gt;&lt;br style=&quot;border-color: var(--border-color);&quot;&gt;&lt;/div&gt;&lt;div style=&quot;border-color: var(--border-color); height: 2px;&quot;&gt;&lt;br style=&quot;border-color: var(--border-color);&quot;&gt;&lt;/div&gt;&lt;div style=&quot;border-color: var(--border-color); height: 2px;&quot;&gt;&lt;br style=&quot;border-color: var(--border-color);&quot;&gt;&lt;/div&gt;&lt;div style=&quot;border-color: var(--border-color); height: 2px;&quot;&gt;&lt;br style=&quot;border-color: var(--border-color);&quot;&gt;&lt;/div&gt;&lt;div style=&quot;border-color: var(--border-color); height: 2px;&quot;&gt;&lt;br style=&quot;border-color: var(--border-color);&quot;&gt;&lt;/div&gt;&lt;div style=&quot;border-color: var(--border-color); height: 2px;&quot;&gt;&lt;br style=&quot;border-color: var(--border-color);&quot;&gt;&lt;/div&gt;&lt;div style=&quot;border-color: var(--border-color); height: 2px;&quot;&gt;&lt;br style=&quot;border-color: var(--border-color);&quot;&gt;&lt;/div&gt;&lt;div style=&quot;border-color: var(--border-color); height: 2px;&quot;&gt;&lt;br style=&quot;border-color: var(--border-color);&quot;&gt;&lt;/div&gt;&lt;div style=&quot;border-color: var(--border-color); height: 2px;&quot;&gt;&amp;nbsp;+&amp;nbsp;&amp;nbsp;&lt;/div&gt;&amp;nbsp; &amp;nbsp; &amp;lt;&amp;lt;implement&amp;gt;&amp;gt; getCompletedTournaments(): List&amp;lt;Tournament&amp;gt;&lt;br&gt;&lt;/div&gt;&lt;div style=&quot;height:2px;&quot;&gt;&lt;br&gt;&lt;/div&gt;&lt;div style=&quot;height:2px;&quot;&gt;&lt;br&gt;&lt;/div&gt;&lt;div style=&quot;height:2px;&quot;&gt;&lt;br&gt;&lt;/div&gt;&lt;div style=&quot;height:2px;&quot;&gt;&lt;br&gt;&lt;/div&gt;&lt;div style=&quot;height:2px;&quot;&gt;&lt;br&gt;&lt;/div&gt;&lt;div style=&quot;height:2px;&quot;&gt;&lt;br&gt;&lt;/div&gt;&lt;div style=&quot;height:2px;&quot;&gt;&lt;br&gt;&lt;/div&gt;&lt;div style=&quot;height:2px;&quot;&gt;&lt;br&gt;&lt;/div&gt;&lt;div style=&quot;height:2px;&quot;&gt;&lt;br&gt;&lt;/div&gt;&lt;div style=&quot;height:2px;&quot;&gt;&lt;br&gt;&lt;/div&gt;&lt;div style=&quot;height:2px;&quot;&gt;&lt;br&gt;&lt;/div&gt;&lt;div style=&quot;height:2px;&quot;&gt;&lt;br&gt;&lt;/div&gt;&lt;div style=&quot;height:2px;&quot;&gt;&lt;br&gt;&lt;/div&gt;&lt;div style=&quot;height:2px;&quot;&gt;&lt;br&gt;&lt;/div&gt;&lt;div style=&quot;height:2px;&quot;&gt;&lt;br&gt;&lt;/div&gt;&lt;div style=&quot;height:2px;&quot;&gt;&lt;br&gt;&lt;/div&gt;&lt;div style=&quot;height:2px;&quot;&gt;&lt;br&gt;&lt;/div&gt;&lt;div style=&quot;height:2px;&quot;&gt;&lt;br&gt;&lt;/div&gt;&lt;div style=&quot;height:2px;&quot;&gt;&lt;br&gt;&lt;/div&gt;&lt;div style=&quot;height:2px;&quot;&gt;&lt;br&gt;&lt;/div&gt;&lt;div style=&quot;height:2px;&quot;&gt;&lt;br&gt;&lt;/div&gt;&lt;div style=&quot;height:2px;&quot;&gt;&lt;br&gt;&lt;/div&gt;&lt;div style=&quot;height:2px;&quot;&gt;&lt;br&gt;&lt;/div&gt;&lt;div style=&quot;height:2px;&quot;&gt;&lt;br&gt;&lt;/div&gt;&lt;div style=&quot;height:2px;&quot;&gt;&lt;br&gt;&lt;/div&gt;&lt;div style=&quot;height:2px;&quot;&gt;&lt;br&gt;&lt;/div&gt;&lt;div style=&quot;height:2px;&quot;&gt;&lt;br&gt;&lt;/div&gt;&lt;div style=&quot;height:2px;&quot;&gt;&lt;br&gt;&lt;/div&gt;&lt;div style=&quot;height:2px;&quot;&gt;&lt;br&gt;&lt;/div&gt;&lt;div style=&quot;height:2px;&quot;&gt;&lt;br&gt;&lt;/div&gt;&lt;div style=&quot;height:2px;&quot;&gt;&lt;br&gt;&lt;/div&gt;&lt;div style=&quot;height:2px;&quot;&gt;&lt;br&gt;&lt;/div&gt;&lt;div style=&quot;height:2px;&quot;&gt;&lt;br&gt;&lt;/div&gt;&lt;div style=&quot;height:2px;&quot;&gt;&lt;br&gt;&lt;/div&gt;&lt;div style=&quot;height:2px;&quot;&gt;&lt;br&gt;&lt;/div&gt;&lt;div style=&quot;height:2px;&quot;&gt;&lt;br&gt;&lt;/div&gt;&lt;div style=&quot;height:2px;&quot;&gt;&lt;br&gt;&lt;/div&gt;&lt;div style=&quot;height:2px;&quot;&gt;&lt;br&gt;&lt;/div&gt;&lt;div style=&quot;height:2px;&quot;&gt;&lt;br&gt;&lt;/div&gt;&lt;div style=&quot;height:2px;&quot;&gt;&lt;br&gt;&lt;/div&gt;&lt;div style=&quot;height:2px;&quot;&gt;&lt;br&gt;&lt;/div&gt;&lt;div style=&quot;height:2px;&quot;&gt;&lt;br&gt;&lt;/div&gt;&lt;div style=&quot;height:2px;&quot;&gt;&lt;br&gt;&lt;/div&gt;&lt;div style=&quot;height:2px;&quot;&gt;&lt;br&gt;&lt;/div&gt;&lt;div style=&quot;height:2px;&quot;&gt;&lt;br&gt;&lt;/div&gt;&lt;div style=&quot;height:2px;&quot;&gt;&lt;br&gt;&lt;/div&gt;&lt;div style=&quot;height:2px;&quot;&gt;&lt;br&gt;&lt;/div&gt;&lt;div style=&quot;height:2px;&quot;&gt;&lt;br&gt;&lt;/div&gt;&lt;div style=&quot;height:2px;&quot;&gt;&lt;br&gt;&lt;/div&gt;&lt;div style=&quot;height:2px;&quot;&gt;&lt;br&gt;&lt;/div&gt;&lt;div style=&quot;height:2px;&quot;&gt;&lt;br&gt;&lt;/div&gt;&lt;div style=&quot;height:2px;&quot;&gt;&lt;br&gt;&lt;/div&gt;&lt;div style=&quot;height:2px;&quot;&gt;&lt;br&gt;&lt;/div&gt;&lt;div style=&quot;height:2px;&quot;&gt;&lt;br&gt;&lt;/div&gt;&lt;div style=&quot;height:2px;&quot;&gt;&lt;br&gt;&lt;/div&gt;&lt;div style=&quot;height:2px;&quot;&gt;&lt;br&gt;&lt;/div&gt;&lt;div style=&quot;height:2px;&quot;&gt;&lt;br&gt;&lt;/div&gt;&lt;div style=&quot;height:2px;&quot;&gt;&lt;br&gt;&lt;/div&gt;&lt;div style=&quot;height:2px;&quot;&gt;&amp;nbsp;+ &amp;lt;&amp;lt;implement&amp;gt;&amp;gt; grantPermission(Educator educator): void&lt;br&gt;&lt;/div&gt;" style="verticalAlign=top;align=left;overflow=fill;fontSize=12;fontFamily=Helvetica;html=1;whiteSpace=wrap;" parent="1" vertex="1">
          <mxGeometry x="1701" y="2378" width="715" height="198" as="geometry" />
        </mxCell>
        <mxCell id="M6HZu9PlmywMM8g6Wbbx-48" value="" style="endArrow=block;endSize=12;dashed=1;html=1;rounded=0;endFill=0;" parent="1" edge="1">
          <mxGeometry width="160" relative="1" as="geometry">
            <mxPoint x="1701" y="2477" as="sourcePoint" />
            <mxPoint x="1612" y="2477" as="targetPoint" />
          </mxGeometry>
        </mxCell>
        <mxCell id="M6HZu9PlmywMM8g6Wbbx-49" value="&lt;p style=&quot;margin:0px;margin-top:4px;text-align:center;&quot;&gt;&lt;b&gt;&lt;font style=&quot;font-size: 10px;&quot;&gt;&amp;lt;&amp;lt;interface&amp;gt;&amp;gt;&lt;/font&gt;&lt;/b&gt;&lt;/p&gt;&lt;p style=&quot;margin:0px;margin-top:4px;text-align:center;&quot;&gt;&lt;b&gt;BattleService&lt;/b&gt;&lt;/p&gt;&lt;hr size=&quot;1&quot;&gt;&lt;div style=&quot;height:2px;&quot;&gt;&lt;/div&gt;&lt;hr size=&quot;1&quot;&gt;&lt;div style=&quot;height:2px;&quot;&gt;&amp;nbsp;+ createBattle(String name, int maxMembersForTeam, Date registrationDeadline, Date submissionDeadline, CodeKata codekata) : Battle&lt;/div&gt;&lt;div style=&quot;height:2px;&quot;&gt;&lt;br&gt;&lt;/div&gt;&lt;div style=&quot;height:2px;&quot;&gt;&lt;br&gt;&lt;/div&gt;&lt;div style=&quot;height:2px;&quot;&gt;&lt;br&gt;&lt;/div&gt;&lt;div style=&quot;height:2px;&quot;&gt;&lt;br&gt;&lt;/div&gt;&lt;div style=&quot;height:2px;&quot;&gt;&lt;br&gt;&lt;/div&gt;&lt;div style=&quot;height:2px;&quot;&gt;&lt;br&gt;&lt;/div&gt;&lt;div style=&quot;height:2px;&quot;&gt;&lt;br&gt;&lt;/div&gt;&lt;div style=&quot;height:2px;&quot;&gt;&lt;br&gt;&lt;/div&gt;&lt;div style=&quot;height:2px;&quot;&gt;&lt;br&gt;&lt;/div&gt;&lt;div style=&quot;height:2px;&quot;&gt;&lt;br&gt;&lt;/div&gt;&lt;div style=&quot;height:2px;&quot;&gt;&lt;br&gt;&lt;/div&gt;&lt;div style=&quot;height:2px;&quot;&gt;&lt;br&gt;&lt;/div&gt;&lt;div style=&quot;height:2px;&quot;&gt;&lt;br&gt;&lt;/div&gt;&lt;div style=&quot;height:2px;&quot;&gt;&amp;nbsp;+ joinBattle(Student student, Battle battle) : void&lt;/div&gt;&lt;div style=&quot;height:2px;&quot;&gt;&lt;br&gt;&lt;/div&gt;&lt;div style=&quot;height:2px;&quot;&gt;&lt;br&gt;&lt;/div&gt;&lt;div style=&quot;height:2px;&quot;&gt;&lt;br&gt;&lt;/div&gt;&lt;div style=&quot;height:2px;&quot;&gt;&lt;br&gt;&lt;/div&gt;&lt;div style=&quot;height:2px;&quot;&gt;&lt;br&gt;&lt;/div&gt;&lt;div style=&quot;height:2px;&quot;&gt;&lt;br&gt;&lt;/div&gt;&lt;div style=&quot;height:2px;&quot;&gt;&lt;br&gt;&lt;/div&gt;&lt;div style=&quot;height:2px;&quot;&gt;&lt;br&gt;&lt;/div&gt;&lt;div style=&quot;height:2px;&quot;&gt;&lt;br&gt;&lt;/div&gt;&lt;div style=&quot;height:2px;&quot;&gt;&lt;br&gt;&lt;/div&gt;&lt;div style=&quot;height:2px;&quot;&gt;&lt;br&gt;&lt;/div&gt;&lt;div style=&quot;height:2px;&quot;&gt;&lt;br&gt;&lt;/div&gt;&lt;div style=&quot;height:2px;&quot;&gt;&amp;nbsp;+ inviteTeammate(Student student): void&lt;/div&gt;&lt;div style=&quot;height:2px;&quot;&gt;&lt;br&gt;&lt;/div&gt;&lt;div style=&quot;height:2px;&quot;&gt;&lt;br&gt;&lt;/div&gt;&lt;div style=&quot;height:2px;&quot;&gt;&lt;br&gt;&lt;/div&gt;&lt;div style=&quot;height:2px;&quot;&gt;&lt;br&gt;&lt;/div&gt;&lt;div style=&quot;height:2px;&quot;&gt;&lt;br&gt;&lt;/div&gt;&lt;div style=&quot;height:2px;&quot;&gt;&lt;br&gt;&lt;/div&gt;&lt;div style=&quot;height:2px;&quot;&gt;&lt;br&gt;&lt;/div&gt;&lt;div style=&quot;height:2px;&quot;&gt;&lt;br&gt;&lt;/div&gt;&lt;div style=&quot;height:2px;&quot;&gt;&lt;br&gt;&lt;/div&gt;&lt;div style=&quot;height:2px;&quot;&gt;&lt;br&gt;&lt;/div&gt;&lt;div style=&quot;height:2px;&quot;&gt;&amp;nbsp;&lt;/div&gt;&lt;div style=&quot;height:2px;&quot;&gt;&amp;nbsp;+ getActiveBattles(): List&amp;lt;Battle&amp;gt;&lt;/div&gt;&lt;div style=&quot;height:2px;&quot;&gt;&lt;br&gt;&lt;/div&gt;&lt;div style=&quot;height:2px;&quot;&gt;&lt;br&gt;&lt;/div&gt;&lt;div style=&quot;height:2px;&quot;&gt;&lt;br&gt;&lt;/div&gt;&lt;div style=&quot;height:2px;&quot;&gt;&lt;br&gt;&lt;/div&gt;&lt;div style=&quot;height:2px;&quot;&gt;&lt;br&gt;&lt;/div&gt;&lt;div style=&quot;height:2px;&quot;&gt;&lt;br&gt;&lt;/div&gt;&lt;div style=&quot;height:2px;&quot;&gt;&lt;br&gt;&lt;/div&gt;&lt;div style=&quot;height:2px;&quot;&gt;&lt;br&gt;&lt;/div&gt;&lt;div style=&quot;height:2px;&quot;&gt;&lt;br&gt;&lt;/div&gt;&lt;div style=&quot;height:2px;&quot;&gt;&lt;br&gt;&lt;/div&gt;&lt;div style=&quot;height:2px;&quot;&gt;&amp;nbsp;+ getCompletedBattles(): List&amp;lt;Battle&amp;gt;&lt;/div&gt;&lt;div style=&quot;height:2px;&quot;&gt;&lt;br&gt;&lt;/div&gt;&lt;div style=&quot;height:2px;&quot;&gt;&lt;br&gt;&lt;/div&gt;&lt;div style=&quot;height:2px;&quot;&gt;&lt;br&gt;&lt;/div&gt;&lt;div style=&quot;height:2px;&quot;&gt;&lt;br&gt;&lt;/div&gt;&lt;div style=&quot;height:2px;&quot;&gt;&lt;br&gt;&lt;/div&gt;&lt;div style=&quot;height:2px;&quot;&gt;&lt;br&gt;&lt;/div&gt;&lt;div style=&quot;height:2px;&quot;&gt;&lt;br&gt;&lt;/div&gt;&lt;div style=&quot;height:2px;&quot;&gt;&lt;br&gt;&lt;/div&gt;&lt;div style=&quot;height:2px;&quot;&gt;&amp;nbsp;&lt;/div&gt;&lt;div style=&quot;height:2px;&quot;&gt;&lt;br&gt;&lt;/div&gt;&lt;div style=&quot;height:2px;&quot;&gt;&lt;span style=&quot;background-color: initial;&quot;&gt;&amp;nbsp;+ createRepositories(Battle battle): Map&amp;lt;Team, Repository&amp;gt;&lt;/span&gt;&lt;br&gt;&lt;/div&gt;&lt;div style=&quot;height:2px;&quot;&gt;&lt;br&gt;&lt;/div&gt;&lt;div style=&quot;height:2px;&quot;&gt;&amp;nbsp;&lt;/div&gt;&lt;div style=&quot;height:2px;&quot;&gt;&lt;br&gt;&lt;/div&gt;&lt;div style=&quot;height:2px;&quot;&gt;&lt;br&gt;&lt;/div&gt;&lt;div style=&quot;height:2px;&quot;&gt;&lt;br&gt;&lt;/div&gt;&lt;div style=&quot;height:2px;&quot;&gt;&lt;br&gt;&lt;/div&gt;&lt;div style=&quot;height:2px;&quot;&gt;&lt;br&gt;&lt;/div&gt;&lt;div style=&quot;height:2px;&quot;&gt;&amp;nbsp;&lt;/div&gt;&lt;div style=&quot;height:2px;&quot;&gt;&amp;nbsp;&lt;/div&gt;&lt;div style=&quot;height:2px;&quot;&gt;&amp;nbsp;+ getRepository(Team team): String&amp;nbsp; &amp;nbsp;&amp;nbsp;&lt;/div&gt;&lt;div style=&quot;height:2px;&quot;&gt;&lt;br&gt;&lt;/div&gt;&lt;div style=&quot;height:2px;&quot;&gt;&lt;br&gt;&lt;/div&gt;&lt;div style=&quot;height:2px;&quot;&gt;&lt;br&gt;&lt;/div&gt;&lt;div style=&quot;height:2px;&quot;&gt;&lt;br&gt;&lt;/div&gt;&lt;div style=&quot;height:2px;&quot;&gt;&lt;br&gt;&lt;/div&gt;&lt;div style=&quot;height:2px;&quot;&gt;&lt;br&gt;&lt;/div&gt;&lt;div style=&quot;height:2px;&quot;&gt;&lt;br&gt;&lt;/div&gt;&lt;div style=&quot;height:2px;&quot;&gt;&lt;br&gt;&lt;/div&gt;&lt;div style=&quot;height:2px;&quot;&gt;&lt;br&gt;&lt;/div&gt;&lt;div style=&quot;height:2px;&quot;&gt;&lt;/div&gt;&amp;nbsp;+ getBattleInformation(Battle battle): CodeKata&amp;nbsp; &amp;nbsp;&lt;div style=&quot;height:2px;&quot;&gt;&amp;nbsp;&lt;/div&gt;&lt;div style=&quot;height:2px;&quot;&gt;&lt;br&gt;&lt;/div&gt;&lt;div style=&quot;height:2px;&quot;&gt;&lt;br&gt;&lt;/div&gt;&lt;div style=&quot;height:2px;&quot;&gt;&lt;br&gt;&lt;/div&gt;&lt;div style=&quot;height:2px;&quot;&gt;&lt;br&gt;&lt;/div&gt;" style="verticalAlign=top;align=left;overflow=fill;fontSize=12;fontFamily=Helvetica;html=1;whiteSpace=wrap;" parent="1" vertex="1">
          <mxGeometry x="861" y="2748" width="736" height="258" as="geometry" />
        </mxCell>
        <mxCell id="M6HZu9PlmywMM8g6Wbbx-50" value="&lt;p style=&quot;margin:0px;margin-top:4px;text-align:center;&quot;&gt;&amp;nbsp;&amp;nbsp;&lt;br&gt;&lt;b style=&quot;border-color: var(--border-color);&quot;&gt;BattleServiceImpl&lt;/b&gt;&lt;br&gt;&lt;/p&gt;&lt;hr size=&quot;1&quot;&gt;&lt;div style=&quot;height:2px;&quot;&gt;&lt;/div&gt;&lt;hr size=&quot;1&quot;&gt;&lt;div style=&quot;height:2px;&quot;&gt;&lt;div style=&quot;border-color: var(--border-color); height: 2px;&quot;&gt;&amp;nbsp;+ &amp;lt;&amp;lt;implement&amp;gt;&amp;gt; createBattle(String name, int maxMembersForTeam, Date registrationDeadline, Date submissionDeadline, CodeKata codekata) : Battle&lt;/div&gt;&lt;div style=&quot;border-color: var(--border-color); height: 2px;&quot;&gt;&lt;br style=&quot;border-color: var(--border-color);&quot;&gt;&lt;/div&gt;&lt;div style=&quot;border-color: var(--border-color); height: 2px;&quot;&gt;&lt;br style=&quot;border-color: var(--border-color);&quot;&gt;&lt;/div&gt;&lt;div style=&quot;border-color: var(--border-color); height: 2px;&quot;&gt;&lt;br style=&quot;border-color: var(--border-color);&quot;&gt;&lt;/div&gt;&lt;div style=&quot;border-color: var(--border-color); height: 2px;&quot;&gt;&lt;br style=&quot;border-color: var(--border-color);&quot;&gt;&lt;/div&gt;&lt;div style=&quot;border-color: var(--border-color); height: 2px;&quot;&gt;&lt;br style=&quot;border-color: var(--border-color);&quot;&gt;&lt;/div&gt;&lt;div style=&quot;border-color: var(--border-color); height: 2px;&quot;&gt;&lt;br style=&quot;border-color: var(--border-color);&quot;&gt;&lt;/div&gt;&lt;div style=&quot;border-color: var(--border-color); height: 2px;&quot;&gt;&lt;br style=&quot;border-color: var(--border-color);&quot;&gt;&lt;/div&gt;&lt;div style=&quot;border-color: var(--border-color); height: 2px;&quot;&gt;&lt;br style=&quot;border-color: var(--border-color);&quot;&gt;&lt;/div&gt;&lt;div style=&quot;border-color: var(--border-color); height: 2px;&quot;&gt;&lt;br style=&quot;border-color: var(--border-color);&quot;&gt;&lt;/div&gt;&lt;div style=&quot;border-color: var(--border-color); height: 2px;&quot;&gt;&lt;br style=&quot;border-color: var(--border-color);&quot;&gt;&lt;/div&gt;&lt;div style=&quot;border-color: var(--border-color); height: 2px;&quot;&gt;&lt;br style=&quot;border-color: var(--border-color);&quot;&gt;&lt;/div&gt;&lt;div style=&quot;border-color: var(--border-color); height: 2px;&quot;&gt;&lt;br style=&quot;border-color: var(--border-color);&quot;&gt;&lt;/div&gt;&lt;div style=&quot;border-color: var(--border-color); height: 2px;&quot;&gt;&lt;br style=&quot;border-color: var(--border-color);&quot;&gt;&lt;/div&gt;&lt;div style=&quot;border-color: var(--border-color); height: 2px;&quot;&gt;&amp;nbsp;+ &amp;lt;&amp;lt;implement&amp;gt;&amp;gt; joinBattle(Student student, Battle battle) : void&lt;/div&gt;&lt;div style=&quot;border-color: var(--border-color); height: 2px;&quot;&gt;&lt;br style=&quot;border-color: var(--border-color);&quot;&gt;&lt;/div&gt;&lt;div style=&quot;border-color: var(--border-color); height: 2px;&quot;&gt;&lt;br style=&quot;border-color: var(--border-color);&quot;&gt;&lt;/div&gt;&lt;div style=&quot;border-color: var(--border-color); height: 2px;&quot;&gt;&lt;br style=&quot;border-color: var(--border-color);&quot;&gt;&lt;/div&gt;&lt;div style=&quot;border-color: var(--border-color); height: 2px;&quot;&gt;&lt;br style=&quot;border-color: var(--border-color);&quot;&gt;&lt;/div&gt;&lt;div style=&quot;border-color: var(--border-color); height: 2px;&quot;&gt;&lt;br style=&quot;border-color: var(--border-color);&quot;&gt;&lt;/div&gt;&lt;div style=&quot;border-color: var(--border-color); height: 2px;&quot;&gt;&lt;br style=&quot;border-color: var(--border-color);&quot;&gt;&lt;/div&gt;&lt;div style=&quot;border-color: var(--border-color); height: 2px;&quot;&gt;&lt;br style=&quot;border-color: var(--border-color);&quot;&gt;&lt;/div&gt;&lt;div style=&quot;border-color: var(--border-color); height: 2px;&quot;&gt;&lt;br style=&quot;border-color: var(--border-color);&quot;&gt;&lt;/div&gt;&lt;div style=&quot;border-color: var(--border-color); height: 2px;&quot;&gt;&lt;br style=&quot;border-color: var(--border-color);&quot;&gt;&lt;/div&gt;&lt;div style=&quot;border-color: var(--border-color); height: 2px;&quot;&gt;&lt;br style=&quot;border-color: var(--border-color);&quot;&gt;&lt;/div&gt;&lt;div style=&quot;border-color: var(--border-color); height: 2px;&quot;&gt;&lt;br style=&quot;border-color: var(--border-color);&quot;&gt;&lt;/div&gt;&lt;div style=&quot;border-color: var(--border-color); height: 2px;&quot;&gt;&lt;br style=&quot;border-color: var(--border-color);&quot;&gt;&lt;/div&gt;&lt;div style=&quot;border-color: var(--border-color); height: 2px;&quot;&gt;&amp;nbsp;+ &amp;lt;&amp;lt;implement&amp;gt;&amp;gt; inviteTeammate(Student student): void&lt;/div&gt;&lt;div style=&quot;border-color: var(--border-color); height: 2px;&quot;&gt;&lt;br style=&quot;border-color: var(--border-color);&quot;&gt;&lt;/div&gt;&lt;div style=&quot;border-color: var(--border-color); height: 2px;&quot;&gt;&lt;br style=&quot;border-color: var(--border-color);&quot;&gt;&lt;/div&gt;&lt;div style=&quot;border-color: var(--border-color); height: 2px;&quot;&gt;&lt;br style=&quot;border-color: var(--border-color);&quot;&gt;&lt;/div&gt;&lt;div style=&quot;border-color: var(--border-color); height: 2px;&quot;&gt;&lt;br style=&quot;border-color: var(--border-color);&quot;&gt;&lt;/div&gt;&lt;div style=&quot;border-color: var(--border-color); height: 2px;&quot;&gt;&lt;br style=&quot;border-color: var(--border-color);&quot;&gt;&lt;/div&gt;&lt;div style=&quot;border-color: var(--border-color); height: 2px;&quot;&gt;&lt;br style=&quot;border-color: var(--border-color);&quot;&gt;&lt;/div&gt;&lt;div style=&quot;border-color: var(--border-color); height: 2px;&quot;&gt;&lt;br style=&quot;border-color: var(--border-color);&quot;&gt;&lt;/div&gt;&lt;div style=&quot;border-color: var(--border-color); height: 2px;&quot;&gt;&lt;br style=&quot;border-color: var(--border-color);&quot;&gt;&lt;/div&gt;&lt;div style=&quot;border-color: var(--border-color); height: 2px;&quot;&gt;&lt;br style=&quot;border-color: var(--border-color);&quot;&gt;&lt;/div&gt;&lt;div style=&quot;border-color: var(--border-color); height: 2px;&quot;&gt;&lt;br style=&quot;border-color: var(--border-color);&quot;&gt;&lt;/div&gt;&lt;div style=&quot;border-color: var(--border-color); height: 2px;&quot;&gt;&amp;nbsp;&lt;/div&gt;&lt;div style=&quot;border-color: var(--border-color); height: 2px;&quot;&gt;&amp;nbsp;+ &amp;lt;&amp;lt;implement&amp;gt;&amp;gt; getActiveBattles(): List&amp;lt;Battle&amp;gt;&lt;/div&gt;&lt;div style=&quot;border-color: var(--border-color); height: 2px;&quot;&gt;&lt;br style=&quot;border-color: var(--border-color);&quot;&gt;&lt;/div&gt;&lt;div style=&quot;border-color: var(--border-color); height: 2px;&quot;&gt;&lt;br style=&quot;border-color: var(--border-color);&quot;&gt;&lt;/div&gt;&lt;div style=&quot;border-color: var(--border-color); height: 2px;&quot;&gt;&lt;br style=&quot;border-color: var(--border-color);&quot;&gt;&lt;/div&gt;&lt;div style=&quot;border-color: var(--border-color); height: 2px;&quot;&gt;&lt;br style=&quot;border-color: var(--border-color);&quot;&gt;&lt;/div&gt;&lt;div style=&quot;border-color: var(--border-color); height: 2px;&quot;&gt;&lt;br style=&quot;border-color: var(--border-color);&quot;&gt;&lt;/div&gt;&lt;div style=&quot;border-color: var(--border-color); height: 2px;&quot;&gt;&lt;br style=&quot;border-color: var(--border-color);&quot;&gt;&lt;/div&gt;&lt;div style=&quot;border-color: var(--border-color); height: 2px;&quot;&gt;&lt;br style=&quot;border-color: var(--border-color);&quot;&gt;&lt;/div&gt;&lt;div style=&quot;border-color: var(--border-color); height: 2px;&quot;&gt;&lt;br style=&quot;border-color: var(--border-color);&quot;&gt;&lt;/div&gt;&lt;div style=&quot;border-color: var(--border-color); height: 2px;&quot;&gt;&lt;br style=&quot;border-color: var(--border-color);&quot;&gt;&lt;/div&gt;&lt;div style=&quot;border-color: var(--border-color); height: 2px;&quot;&gt;&lt;br style=&quot;border-color: var(--border-color);&quot;&gt;&lt;/div&gt;&lt;div style=&quot;border-color: var(--border-color); height: 2px;&quot;&gt;&amp;nbsp;+ &amp;lt;&amp;lt;implement&amp;gt;&amp;gt; getCompletedBattles(): List&amp;lt;Battle&amp;gt;&lt;/div&gt;&lt;div style=&quot;border-color: var(--border-color); height: 2px;&quot;&gt;&lt;br style=&quot;border-color: var(--border-color);&quot;&gt;&lt;/div&gt;&lt;div style=&quot;border-color: var(--border-color); height: 2px;&quot;&gt;&lt;br style=&quot;border-color: var(--border-color);&quot;&gt;&lt;/div&gt;&lt;div style=&quot;border-color: var(--border-color); height: 2px;&quot;&gt;&lt;br style=&quot;border-color: var(--border-color);&quot;&gt;&lt;/div&gt;&lt;div style=&quot;border-color: var(--border-color); height: 2px;&quot;&gt;&lt;br style=&quot;border-color: var(--border-color);&quot;&gt;&lt;/div&gt;&lt;div style=&quot;border-color: var(--border-color); height: 2px;&quot;&gt;&lt;br&gt;&lt;/div&gt;&lt;div style=&quot;border-color: var(--border-color); height: 2px;&quot;&gt;&lt;br&gt;&lt;/div&gt;&lt;div style=&quot;border-color: var(--border-color); height: 2px;&quot;&gt;&lt;br&gt;&lt;/div&gt;&lt;div style=&quot;border-color: var(--border-color); height: 2px;&quot;&gt;&lt;div style=&quot;border-color: var(--border-color); height: 2px;&quot;&gt;&lt;br&gt;&lt;/div&gt;&lt;div style=&quot;border-color: var(--border-color); height: 2px;&quot;&gt;&lt;br&gt;&lt;/div&gt;&lt;div style=&quot;border-color: var(--border-color); height: 2px;&quot;&gt;&amp;nbsp;+ &amp;lt;&amp;lt;implement&amp;gt;&amp;gt; createRepositories(Battle battle): Map&amp;lt;Team, Repository&amp;gt;&lt;br style=&quot;border-color: var(--border-color);&quot;&gt;&lt;/div&gt;&lt;div style=&quot;border-color: var(--border-color); height: 2px;&quot;&gt;&lt;br style=&quot;border-color: var(--border-color);&quot;&gt;&lt;/div&gt;&lt;div style=&quot;border-color: var(--border-color); height: 2px;&quot;&gt;&amp;nbsp;&lt;/div&gt;&lt;div style=&quot;border-color: var(--border-color); height: 2px;&quot;&gt;&lt;br style=&quot;border-color: var(--border-color);&quot;&gt;&lt;/div&gt;&lt;div style=&quot;border-color: var(--border-color); height: 2px;&quot;&gt;&lt;br style=&quot;border-color: var(--border-color);&quot;&gt;&lt;/div&gt;&lt;div style=&quot;border-color: var(--border-color); height: 2px;&quot;&gt;&lt;br style=&quot;border-color: var(--border-color);&quot;&gt;&lt;/div&gt;&lt;div style=&quot;border-color: var(--border-color); height: 2px;&quot;&gt;&lt;br style=&quot;border-color: var(--border-color);&quot;&gt;&lt;/div&gt;&lt;div style=&quot;border-color: var(--border-color); height: 2px;&quot;&gt;&lt;br style=&quot;border-color: var(--border-color);&quot;&gt;&lt;/div&gt;&lt;div style=&quot;border-color: var(--border-color); height: 2px;&quot;&gt;&amp;nbsp;&lt;/div&gt;&lt;div style=&quot;border-color: var(--border-color); height: 2px;&quot;&gt;&lt;br&gt;&lt;/div&gt;&lt;div style=&quot;border-color: var(--border-color); height: 2px;&quot;&gt;&amp;nbsp;+ &amp;lt;&amp;lt;implement&amp;gt;&amp;gt; getRepository(Team team): String&amp;nbsp; &amp;nbsp; &amp;nbsp;&lt;/div&gt;&lt;div style=&quot;border-color: var(--border-color); height: 2px;&quot;&gt;&lt;br style=&quot;border-color: var(--border-color);&quot;&gt;&lt;/div&gt;&lt;div style=&quot;border-color: var(--border-color); height: 2px;&quot;&gt;&lt;br style=&quot;border-color: var(--border-color);&quot;&gt;&lt;/div&gt;&lt;div style=&quot;border-color: var(--border-color); height: 2px;&quot;&gt;&lt;br style=&quot;border-color: var(--border-color);&quot;&gt;&lt;/div&gt;&lt;div style=&quot;border-color: var(--border-color); height: 2px;&quot;&gt;&lt;br style=&quot;border-color: var(--border-color);&quot;&gt;&lt;/div&gt;&lt;div style=&quot;border-color: var(--border-color); height: 2px;&quot;&gt;&lt;br&gt;&lt;/div&gt;&lt;div style=&quot;border-color: var(--border-color); height: 2px;&quot;&gt;&lt;br&gt;&lt;/div&gt;&lt;div style=&quot;border-color: var(--border-color); height: 2px;&quot;&gt;&lt;br&gt;&lt;/div&gt;&lt;div style=&quot;border-color: var(--border-color); height: 2px;&quot;&gt;&amp;nbsp;&amp;nbsp;&lt;/div&gt;&lt;div style=&quot;border-color: var(--border-color); height: 2px;&quot;&gt;&amp;nbsp;&lt;/div&gt;&lt;div style=&quot;border-color: var(--border-color); height: 2px;&quot;&gt;&amp;nbsp;+ &amp;lt;&amp;lt;implement&amp;gt;&amp;gt; getBattleInformation(Battle battle): CodeKata&lt;/div&gt;&lt;/div&gt;&lt;/div&gt;" style="verticalAlign=top;align=left;overflow=fill;fontSize=12;fontFamily=Helvetica;html=1;whiteSpace=wrap;" parent="1" vertex="1">
          <mxGeometry x="1701" y="2748" width="835" height="259" as="geometry" />
        </mxCell>
        <mxCell id="M6HZu9PlmywMM8g6Wbbx-51" value="" style="endArrow=block;endSize=12;dashed=1;html=1;rounded=0;endFill=0;" parent="1" edge="1">
          <mxGeometry width="160" relative="1" as="geometry">
            <mxPoint x="1701" y="2837" as="sourcePoint" />
            <mxPoint x="1596" y="2837" as="targetPoint" />
          </mxGeometry>
        </mxCell>
        <mxCell id="e2k04IvYg30xB67EaK2v-19" style="edgeStyle=orthogonalEdgeStyle;rounded=0;orthogonalLoop=1;jettySize=auto;html=1;exitX=0;exitY=0.5;exitDx=0;exitDy=0;dashed=1;endArrow=open;endFill=0;" parent="1" source="M6HZu9PlmywMM8g6Wbbx-52" edge="1">
          <mxGeometry relative="1" as="geometry">
            <mxPoint x="395.41208902994777" y="3163" as="targetPoint" />
          </mxGeometry>
        </mxCell>
        <mxCell id="e2k04IvYg30xB67EaK2v-20" value="&amp;lt;&amp;lt;use&amp;gt;&amp;gt;" style="edgeLabel;html=1;align=center;verticalAlign=middle;resizable=0;points=[];" parent="e2k04IvYg30xB67EaK2v-19" vertex="1" connectable="0">
          <mxGeometry x="-0.69" y="-3" relative="1" as="geometry">
            <mxPoint x="-1" as="offset" />
          </mxGeometry>
        </mxCell>
        <mxCell id="M6HZu9PlmywMM8g6Wbbx-52" value="&lt;p style=&quot;margin:0px;margin-top:4px;text-align:center;&quot;&gt;&lt;b&gt;&lt;font style=&quot;font-size: 10px;&quot;&gt;&amp;lt;&amp;lt;interface&amp;gt;&amp;gt;&lt;/font&gt;&lt;/b&gt;&lt;/p&gt;&lt;p style=&quot;margin:0px;margin-top:4px;text-align:center;&quot;&gt;&lt;b&gt;BadgeService&lt;/b&gt;&lt;/p&gt;&lt;hr size=&quot;1&quot;&gt;&lt;div style=&quot;height:2px;&quot;&gt;&lt;/div&gt;&lt;hr size=&quot;1&quot;&gt;&lt;div style=&quot;height:2px;&quot;&gt;&amp;nbsp;+ createBadge(String title, List&amp;lt;Rule&amp;gt; rules): Badge&lt;/div&gt;&lt;div style=&quot;height:2px;&quot;&gt;&lt;br&gt;&lt;/div&gt;&lt;div style=&quot;height:2px;&quot;&gt;&lt;br&gt;&lt;/div&gt;&lt;div style=&quot;height:2px;&quot;&gt;&lt;br&gt;&lt;/div&gt;&lt;div style=&quot;height:2px;&quot;&gt;&lt;br&gt;&lt;/div&gt;&lt;div style=&quot;height:2px;&quot;&gt;&lt;br&gt;&lt;/div&gt;&lt;div style=&quot;height:2px;&quot;&gt;&lt;br&gt;&lt;/div&gt;&lt;div style=&quot;height:2px;&quot;&gt;&lt;br&gt;&lt;/div&gt;&lt;div style=&quot;height:2px;&quot;&gt;&lt;br&gt;&lt;/div&gt;&lt;div style=&quot;height:2px;&quot;&gt;&lt;br&gt;&lt;/div&gt;&lt;div style=&quot;height:2px;&quot;&gt;&lt;br&gt;&lt;/div&gt;&lt;div style=&quot;height:2px;&quot;&gt;&lt;br&gt;&lt;/div&gt;&lt;div style=&quot;height:2px;&quot;&gt;&amp;nbsp;+ awardBadgde(Student student, Badge badge): void&lt;/div&gt;&lt;div style=&quot;height:2px;&quot;&gt;&lt;br&gt;&lt;/div&gt;&lt;div style=&quot;height:2px;&quot;&gt;&lt;br&gt;&lt;/div&gt;&lt;div style=&quot;height:2px;&quot;&gt;&lt;br&gt;&lt;/div&gt;&lt;div style=&quot;height:2px;&quot;&gt;&lt;br&gt;&lt;/div&gt;&lt;div style=&quot;height:2px;&quot;&gt;&lt;br&gt;&lt;/div&gt;&lt;div style=&quot;height:2px;&quot;&gt;&lt;br&gt;&lt;/div&gt;&lt;div style=&quot;height:2px;&quot;&gt;&lt;br&gt;&lt;/div&gt;&lt;div style=&quot;height:2px;&quot;&gt;&lt;br&gt;&lt;/div&gt;&lt;div style=&quot;height:2px;&quot;&gt;&lt;br&gt;&lt;/div&gt;&lt;div style=&quot;height:2px;&quot;&gt;&lt;br&gt;&lt;/div&gt;&lt;div style=&quot;height:2px;&quot;&gt;&lt;br&gt;&lt;/div&gt;&lt;div style=&quot;height:2px;&quot;&gt;&amp;nbsp;+ createVariable(String name): Variable&lt;/div&gt;&lt;div style=&quot;height:2px;&quot;&gt;&lt;br&gt;&lt;/div&gt;&lt;div style=&quot;height:2px;&quot;&gt;&lt;br&gt;&lt;/div&gt;&lt;div style=&quot;height:2px;&quot;&gt;&lt;br&gt;&lt;/div&gt;&lt;div style=&quot;height:2px;&quot;&gt;&lt;br&gt;&lt;/div&gt;&lt;div style=&quot;height:2px;&quot;&gt;&lt;br&gt;&lt;/div&gt;&lt;div style=&quot;height:2px;&quot;&gt;&lt;br&gt;&lt;/div&gt;&lt;div style=&quot;height:2px;&quot;&gt;&lt;br&gt;&lt;/div&gt;&lt;div style=&quot;height:2px;&quot;&gt;&lt;br&gt;&lt;/div&gt;&lt;div style=&quot;height:2px;&quot;&gt;&lt;br&gt;&lt;/div&gt;&lt;div style=&quot;height:2px;&quot;&gt;&lt;br&gt;&lt;/div&gt;&lt;div style=&quot;height:2px;&quot;&gt;&amp;nbsp;+ createRule(List&amp;lt;Variable&amp;gt; variables): Rule&lt;/div&gt;&lt;div style=&quot;height:2px;&quot;&gt;&lt;br&gt;&lt;/div&gt;&lt;div style=&quot;height:2px;&quot;&gt;&lt;br&gt;&lt;/div&gt;&lt;div style=&quot;height:2px;&quot;&gt;&lt;br&gt;&lt;/div&gt;&lt;div style=&quot;height:2px;&quot;&gt;&lt;br&gt;&lt;/div&gt;&lt;div style=&quot;height:2px;&quot;&gt;&amp;nbsp;&lt;/div&gt;&lt;div style=&quot;height:2px;&quot;&gt;&lt;br&gt;&lt;/div&gt;&lt;div style=&quot;height:2px;&quot;&gt;&lt;br&gt;&lt;/div&gt;&lt;div style=&quot;height:2px;&quot;&gt;&lt;br&gt;&lt;/div&gt;&lt;div style=&quot;height:2px;&quot;&gt;&lt;br&gt;&lt;/div&gt;&lt;div style=&quot;height:2px;&quot;&gt;&lt;br&gt;&lt;/div&gt;" style="verticalAlign=top;align=left;overflow=fill;fontSize=12;fontFamily=Helvetica;html=1;whiteSpace=wrap;" parent="1" vertex="1">
          <mxGeometry x="941" y="3078" width="600" height="171" as="geometry" />
        </mxCell>
        <mxCell id="aW1p1NH9pJPPomIiRJYU-10" style="edgeStyle=orthogonalEdgeStyle;rounded=0;orthogonalLoop=1;jettySize=auto;html=1;exitX=1;exitY=0.5;exitDx=0;exitDy=0;entryX=1;entryY=0.25;entryDx=0;entryDy=0;dashed=1;endArrow=open;endFill=0;endSize=12;" edge="1" parent="1" source="M6HZu9PlmywMM8g6Wbbx-53" target="M6HZu9PlmywMM8g6Wbbx-37">
          <mxGeometry relative="1" as="geometry">
            <Array as="points">
              <mxPoint x="2631" y="3148" />
              <mxPoint x="2631" y="1600" />
              <mxPoint x="1615" y="1600" />
              <mxPoint x="1615" y="1752" />
            </Array>
          </mxGeometry>
        </mxCell>
        <mxCell id="M6HZu9PlmywMM8g6Wbbx-53" value="&lt;p style=&quot;margin:0px;margin-top:4px;text-align:center;&quot;&gt;&amp;nbsp; &amp;nbsp;&amp;nbsp;&lt;br&gt;&lt;b style=&quot;border-color: var(--border-color);&quot;&gt;BadgeServiceImpl&lt;/b&gt;&lt;br&gt;&lt;/p&gt;&lt;hr size=&quot;1&quot;&gt;&lt;div style=&quot;height:2px;&quot;&gt;&lt;/div&gt;&lt;hr size=&quot;1&quot;&gt;&lt;div style=&quot;height:2px;&quot;&gt;&lt;div style=&quot;border-color: var(--border-color); height: 2px;&quot;&gt;&amp;nbsp;+ &amp;lt;&amp;lt;implement&amp;gt;&amp;gt; createBadge(String title, List&amp;lt;variable&amp;gt;rules): Badge&lt;/div&gt;&lt;div style=&quot;border-color: var(--border-color); height: 2px;&quot;&gt;&lt;br style=&quot;border-color: var(--border-color);&quot;&gt;&lt;/div&gt;&lt;div style=&quot;border-color: var(--border-color); height: 2px;&quot;&gt;&lt;br style=&quot;border-color: var(--border-color);&quot;&gt;&lt;/div&gt;&lt;div style=&quot;border-color: var(--border-color); height: 2px;&quot;&gt;&lt;br style=&quot;border-color: var(--border-color);&quot;&gt;&lt;/div&gt;&lt;div style=&quot;border-color: var(--border-color); height: 2px;&quot;&gt;&lt;br style=&quot;border-color: var(--border-color);&quot;&gt;&lt;/div&gt;&lt;div style=&quot;border-color: var(--border-color); height: 2px;&quot;&gt;&lt;br style=&quot;border-color: var(--border-color);&quot;&gt;&lt;/div&gt;&lt;div style=&quot;border-color: var(--border-color); height: 2px;&quot;&gt;&lt;br style=&quot;border-color: var(--border-color);&quot;&gt;&lt;/div&gt;&lt;div style=&quot;border-color: var(--border-color); height: 2px;&quot;&gt;&lt;br style=&quot;border-color: var(--border-color);&quot;&gt;&lt;/div&gt;&lt;div style=&quot;border-color: var(--border-color); height: 2px;&quot;&gt;&lt;br style=&quot;border-color: var(--border-color);&quot;&gt;&lt;/div&gt;&lt;div style=&quot;border-color: var(--border-color); height: 2px;&quot;&gt;&lt;br style=&quot;border-color: var(--border-color);&quot;&gt;&lt;/div&gt;&lt;div style=&quot;border-color: var(--border-color); height: 2px;&quot;&gt;&lt;br style=&quot;border-color: var(--border-color);&quot;&gt;&lt;/div&gt;&lt;div style=&quot;border-color: var(--border-color); height: 2px;&quot;&gt;&lt;br style=&quot;border-color: var(--border-color);&quot;&gt;&lt;/div&gt;&lt;div style=&quot;border-color: var(--border-color); height: 2px;&quot;&gt;&amp;nbsp;+ &amp;lt;&amp;lt;implement&amp;gt;&amp;gt; awardBadgde(Student student, Badge badge): void&lt;/div&gt;&lt;div style=&quot;border-color: var(--border-color); height: 2px;&quot;&gt;&lt;br style=&quot;border-color: var(--border-color);&quot;&gt;&lt;/div&gt;&lt;div style=&quot;border-color: var(--border-color); height: 2px;&quot;&gt;&lt;br style=&quot;border-color: var(--border-color);&quot;&gt;&lt;/div&gt;&lt;div style=&quot;border-color: var(--border-color); height: 2px;&quot;&gt;&lt;br style=&quot;border-color: var(--border-color);&quot;&gt;&lt;/div&gt;&lt;div style=&quot;border-color: var(--border-color); height: 2px;&quot;&gt;&lt;br style=&quot;border-color: var(--border-color);&quot;&gt;&lt;/div&gt;&lt;div style=&quot;border-color: var(--border-color); height: 2px;&quot;&gt;&lt;br style=&quot;border-color: var(--border-color);&quot;&gt;&lt;/div&gt;&lt;div style=&quot;border-color: var(--border-color); height: 2px;&quot;&gt;&lt;br style=&quot;border-color: var(--border-color);&quot;&gt;&lt;/div&gt;&lt;/div&gt;" style="verticalAlign=top;align=left;overflow=fill;fontSize=12;fontFamily=Helvetica;html=1;whiteSpace=wrap;" parent="1" vertex="1">
          <mxGeometry x="1701" y="3068" width="422" height="160" as="geometry" />
        </mxCell>
        <mxCell id="M6HZu9PlmywMM8g6Wbbx-54" value="" style="endArrow=block;endSize=6;dashed=1;html=1;rounded=0;endFill=0;" parent="1" edge="1">
          <mxGeometry width="160" relative="1" as="geometry">
            <mxPoint x="1701" y="3167" as="sourcePoint" />
            <mxPoint x="1545" y="3167" as="targetPoint" />
          </mxGeometry>
        </mxCell>
        <mxCell id="e2k04IvYg30xB67EaK2v-8" style="edgeStyle=orthogonalEdgeStyle;rounded=0;orthogonalLoop=1;jettySize=auto;html=1;exitX=0;exitY=0.5;exitDx=0;exitDy=0;dashed=1;endArrow=open;endFill=0;" parent="1" source="M6HZu9PlmywMM8g6Wbbx-55" edge="1">
          <mxGeometry relative="1" as="geometry">
            <mxPoint x="528.7453816731772" y="2667.018595377604" as="targetPoint" />
          </mxGeometry>
        </mxCell>
        <mxCell id="e2k04IvYg30xB67EaK2v-9" value="&amp;lt;&amp;lt;use&amp;gt;&amp;gt;" style="edgeLabel;html=1;align=center;verticalAlign=middle;resizable=0;points=[];" parent="e2k04IvYg30xB67EaK2v-8" vertex="1" connectable="0">
          <mxGeometry x="-0.1242" y="-3" relative="1" as="geometry">
            <mxPoint as="offset" />
          </mxGeometry>
        </mxCell>
        <mxCell id="M6HZu9PlmywMM8g6Wbbx-55" value="&lt;p style=&quot;margin:0px;margin-top:4px;text-align:center;&quot;&gt;&lt;b&gt;&lt;font style=&quot;font-size: 10px;&quot;&gt;&amp;lt;&amp;lt;interface&amp;gt;&amp;gt;&lt;/font&gt;&lt;/b&gt;&lt;/p&gt;&lt;p style=&quot;margin:0px;margin-top:4px;text-align:center;&quot;&gt;&lt;b&gt;EvaluationService&lt;/b&gt;&lt;/p&gt;&lt;hr size=&quot;1&quot;&gt;&lt;div style=&quot;height:2px;&quot;&gt;&lt;/div&gt;&lt;hr size=&quot;1&quot;&gt;&lt;div style=&quot;height:2px;&quot;&gt;&lt;span style=&quot;background-color: initial;&quot;&gt;&amp;nbsp;+&amp;nbsp;&lt;/span&gt;&lt;br&gt;&lt;/div&gt;&amp;nbsp; &amp;nbsp; evaluate(AutomaticEvaluationTool tool, Team team) : AutomaticEvaluation&lt;br&gt;&lt;div style=&quot;border-color: var(--border-color); height: 2px;&quot;&gt;&lt;br&gt;&lt;/div&gt;&lt;div style=&quot;border-color: var(--border-color); height: 2px;&quot;&gt;&lt;br&gt;&lt;/div&gt;&lt;div style=&quot;border-color: var(--border-color); height: 2px;&quot;&gt;&amp;nbsp;&lt;/div&gt;&lt;div style=&quot;border-color: var(--border-color); height: 2px;&quot;&gt;&amp;nbsp;+&lt;/div&gt;&amp;nbsp; &amp;nbsp; evaluate(Educator educator, Team team) : ManualEvaluation&lt;div style=&quot;border-color: var(--border-color); height: 2px;&quot;&gt;&lt;br style=&quot;border-color: var(--border-color);&quot;&gt;&lt;/div&gt;&lt;div style=&quot;border-color: var(--border-color); height: 2px;&quot;&gt;&amp;nbsp;&amp;nbsp;&lt;/div&gt;&lt;div style=&quot;border-color: var(--border-color); height: 2px;&quot;&gt;&lt;br style=&quot;border-color: var(--border-color);&quot;&gt;&lt;/div&gt;&lt;div style=&quot;height:2px;&quot;&gt;&lt;br&gt;&lt;/div&gt;&lt;div style=&quot;height:2px;&quot;&gt;&lt;br&gt;&lt;/div&gt;&lt;div style=&quot;height:2px;&quot;&gt;&lt;br&gt;&lt;/div&gt;" style="verticalAlign=top;align=left;overflow=fill;fontSize=12;fontFamily=Helvetica;html=1;whiteSpace=wrap;" parent="1" vertex="1">
          <mxGeometry x="941" y="3381" width="600" height="160" as="geometry" />
        </mxCell>
        <mxCell id="M6HZu9PlmywMM8g6Wbbx-56" value="&lt;p style=&quot;margin:0px;margin-top:4px;text-align:center;&quot;&gt;&amp;nbsp; &amp;nbsp;&amp;nbsp;&lt;br&gt;&lt;b style=&quot;border-color: var(--border-color);&quot;&gt;EvaluationServiceImpl&lt;/b&gt;&lt;br&gt;&lt;/p&gt;&lt;hr size=&quot;1&quot;&gt;&lt;div style=&quot;height:2px;&quot;&gt;&lt;/div&gt;&lt;hr size=&quot;1&quot;&gt;&lt;div style=&quot;height:2px;&quot;&gt;&lt;div style=&quot;border-color: var(--border-color); height: 2px;&quot;&gt;&lt;br&gt;&lt;/div&gt;&lt;div style=&quot;border-color: var(--border-color); height: 2px;&quot;&gt;&amp;nbsp;+&amp;nbsp;&lt;/div&gt;&amp;nbsp; &amp;nbsp; &amp;lt;&amp;lt;implement&amp;gt;&amp;gt; evaluate(AutomaticEvaluationTool tool, Team team) : AutomaticEvaluation&lt;div style=&quot;border-color: var(--border-color); height: 2px;&quot;&gt;&lt;br style=&quot;border-color: var(--border-color);&quot;&gt;&lt;/div&gt;&lt;div style=&quot;border-color: var(--border-color); height: 2px;&quot;&gt;&lt;br style=&quot;border-color: var(--border-color);&quot;&gt;&lt;/div&gt;&lt;div style=&quot;border-color: var(--border-color); height: 2px;&quot;&gt;&lt;br style=&quot;border-color: var(--border-color);&quot;&gt;&lt;/div&gt;&lt;div style=&quot;border-color: var(--border-color); height: 2px;&quot;&gt;&lt;br style=&quot;border-color: var(--border-color);&quot;&gt;&lt;/div&gt;&lt;div style=&quot;border-color: var(--border-color); height: 2px;&quot;&gt;&amp;nbsp;&lt;/div&gt;&amp;nbsp;+ &amp;lt;&amp;lt;implement&amp;gt;&amp;gt; evaluate(Educator educator, Team team) : ManualEvaluation&lt;/div&gt;" style="verticalAlign=top;align=left;overflow=fill;fontSize=12;fontFamily=Helvetica;html=1;whiteSpace=wrap;" parent="1" vertex="1">
          <mxGeometry x="1701" y="3368" width="544" height="160" as="geometry" />
        </mxCell>
        <mxCell id="M6HZu9PlmywMM8g6Wbbx-57" value="" style="endArrow=block;endSize=6;dashed=1;html=1;rounded=0;endFill=0;" parent="1" edge="1">
          <mxGeometry width="160" relative="1" as="geometry">
            <mxPoint x="1701" y="3483" as="sourcePoint" />
            <mxPoint x="1540" y="3483" as="targetPoint" />
          </mxGeometry>
        </mxCell>
        <mxCell id="M6HZu9PlmywMM8g6Wbbx-58" value="Student" style="swimlane;fontStyle=2;align=center;verticalAlign=top;childLayout=stackLayout;horizontal=1;startSize=26;horizontalStack=0;resizeParent=1;resizeLast=0;collapsible=1;marginBottom=0;rounded=0;shadow=0;strokeWidth=1;" parent="1" vertex="1">
          <mxGeometry x="615" y="805" width="230" height="212" as="geometry">
            <mxRectangle x="230" y="140" width="160" height="26" as="alternateBounds" />
          </mxGeometry>
        </mxCell>
        <mxCell id="M6HZu9PlmywMM8g6Wbbx-59" value="+ fullName: String" style="text;align=left;verticalAlign=top;spacingLeft=4;spacingRight=4;overflow=hidden;rotatable=0;points=[[0,0.5],[1,0.5]];portConstraint=eastwest;" parent="M6HZu9PlmywMM8g6Wbbx-58" vertex="1">
          <mxGeometry y="26" width="230" height="26" as="geometry" />
        </mxCell>
        <mxCell id="M6HZu9PlmywMM8g6Wbbx-60" value="+ email: String" style="text;align=left;verticalAlign=top;spacingLeft=4;spacingRight=4;overflow=hidden;rotatable=0;points=[[0,0.5],[1,0.5]];portConstraint=eastwest;rounded=0;shadow=0;html=0;" parent="M6HZu9PlmywMM8g6Wbbx-58" vertex="1">
          <mxGeometry y="52" width="230" height="26" as="geometry" />
        </mxCell>
        <mxCell id="M6HZu9PlmywMM8g6Wbbx-61" value="+ username: String" style="text;align=left;verticalAlign=top;spacingLeft=4;spacingRight=4;overflow=hidden;rotatable=0;points=[[0,0.5],[1,0.5]];portConstraint=eastwest;rounded=0;shadow=0;html=0;" parent="M6HZu9PlmywMM8g6Wbbx-58" vertex="1">
          <mxGeometry y="78" width="230" height="26" as="geometry" />
        </mxCell>
        <mxCell id="M6HZu9PlmywMM8g6Wbbx-62" value="+ password: String" style="text;align=left;verticalAlign=top;spacingLeft=4;spacingRight=4;overflow=hidden;rotatable=0;points=[[0,0.5],[1,0.5]];portConstraint=eastwest;rounded=0;shadow=0;html=0;" parent="M6HZu9PlmywMM8g6Wbbx-58" vertex="1">
          <mxGeometry y="104" width="230" height="26" as="geometry" />
        </mxCell>
        <mxCell id="M6HZu9PlmywMM8g6Wbbx-63" value="+ role: bool" style="text;align=left;verticalAlign=top;spacingLeft=4;spacingRight=4;overflow=hidden;rotatable=0;points=[[0,0.5],[1,0.5]];portConstraint=eastwest;rounded=0;shadow=0;html=0;" parent="M6HZu9PlmywMM8g6Wbbx-58" vertex="1">
          <mxGeometry y="130" width="230" height="26" as="geometry" />
        </mxCell>
        <mxCell id="M6HZu9PlmywMM8g6Wbbx-153" value="&lt;span style=&quot;font-family: Helvetica; font-size: 12px; font-style: normal; font-variant-ligatures: normal; font-variant-caps: normal; letter-spacing: normal; orphans: 2; text-align: left; text-indent: 0px; text-transform: none; widows: 2; word-spacing: 0px; -webkit-text-stroke-width: 0px; background-color: rgb(251, 251, 251); text-decoration-thickness: initial; text-decoration-style: initial; text-decoration-color: initial; float: none; display: inline !important;&quot;&gt;&lt;font style=&quot;&quot; color=&quot;#66b2ff&quot;&gt;&amp;nbsp;+ softwareProject: List&amp;lt;SoftwareProject&amp;gt;&lt;/font&gt;&lt;/span&gt;" style="text;whiteSpace=wrap;html=1;" parent="M6HZu9PlmywMM8g6Wbbx-58" vertex="1">
          <mxGeometry y="156" width="230" height="28" as="geometry" />
        </mxCell>
        <mxCell id="M6HZu9PlmywMM8g6Wbbx-196" value="&lt;span style=&quot;font-family: Helvetica; font-size: 12px; font-style: normal; font-variant-ligatures: normal; font-variant-caps: normal; letter-spacing: normal; orphans: 2; text-align: left; text-indent: 0px; text-transform: none; widows: 2; word-spacing: 0px; -webkit-text-stroke-width: 0px; background-color: rgb(251, 251, 251); text-decoration-thickness: initial; text-decoration-style: initial; text-decoration-color: initial; float: none; display: inline !important;&quot;&gt;&lt;font style=&quot;&quot; color=&quot;#66b2ff&quot;&gt;&amp;nbsp;+ badges: List&amp;lt;Badge&amp;gt;&lt;/font&gt;&lt;/span&gt;" style="text;whiteSpace=wrap;html=1;" parent="M6HZu9PlmywMM8g6Wbbx-58" vertex="1">
          <mxGeometry y="184" width="230" height="28" as="geometry" />
        </mxCell>
        <mxCell id="M6HZu9PlmywMM8g6Wbbx-64" value="" style="endArrow=open;endSize=12;dashed=1;html=1;rounded=0;exitX=0;exitY=0.5;exitDx=0;exitDy=0;entryX=1.002;entryY=0.935;entryDx=0;entryDy=0;entryPerimeter=0;" parent="1" target="M6HZu9PlmywMM8g6Wbbx-60" edge="1">
          <mxGeometry width="160" relative="1" as="geometry">
            <mxPoint x="1041" y="880" as="sourcePoint" />
            <mxPoint x="843" y="860" as="targetPoint" />
          </mxGeometry>
        </mxCell>
        <mxCell id="M6HZu9PlmywMM8g6Wbbx-65" value="&amp;lt;&amp;lt;use&amp;gt;&amp;gt;" style="edgeLabel;html=1;align=center;verticalAlign=middle;resizable=0;points=[];" parent="M6HZu9PlmywMM8g6Wbbx-64" vertex="1" connectable="0">
          <mxGeometry x="-0.0689" y="-6" relative="1" as="geometry">
            <mxPoint x="-2" y="-8" as="offset" />
          </mxGeometry>
        </mxCell>
        <mxCell id="M6HZu9PlmywMM8g6Wbbx-66" value="Tournament" style="swimlane;fontStyle=0;align=center;verticalAlign=top;childLayout=stackLayout;horizontal=1;startSize=26;horizontalStack=0;resizeParent=1;resizeLast=0;collapsible=1;marginBottom=0;rounded=0;shadow=0;strokeWidth=1;" parent="1" vertex="1">
          <mxGeometry x="651" y="1030" width="188" height="276" as="geometry">
            <mxRectangle x="550" y="140" width="160" height="26" as="alternateBounds" />
          </mxGeometry>
        </mxCell>
        <mxCell id="M6HZu9PlmywMM8g6Wbbx-67" value="+ id: int" style="text;align=left;verticalAlign=top;spacingLeft=4;spacingRight=4;overflow=hidden;rotatable=0;points=[[0,0.5],[1,0.5]];portConstraint=eastwest;rounded=0;shadow=0;html=0;" parent="M6HZu9PlmywMM8g6Wbbx-66" vertex="1">
          <mxGeometry y="26" width="188" height="28" as="geometry" />
        </mxCell>
        <mxCell id="M6HZu9PlmywMM8g6Wbbx-68" value="+ name: String" style="text;align=left;verticalAlign=top;spacingLeft=4;spacingRight=4;overflow=hidden;rotatable=0;points=[[0,0.5],[1,0.5]];portConstraint=eastwest;" parent="M6HZu9PlmywMM8g6Wbbx-66" vertex="1">
          <mxGeometry y="54" width="188" height="26" as="geometry" />
        </mxCell>
        <mxCell id="M6HZu9PlmywMM8g6Wbbx-69" value="+ description: String" style="text;align=left;verticalAlign=top;spacingLeft=4;spacingRight=4;overflow=hidden;rotatable=0;points=[[0,0.5],[1,0.5]];portConstraint=eastwest;rounded=0;shadow=0;html=0;" parent="M6HZu9PlmywMM8g6Wbbx-66" vertex="1">
          <mxGeometry y="80" width="188" height="26" as="geometry" />
        </mxCell>
        <mxCell id="M6HZu9PlmywMM8g6Wbbx-70" value="+ registrationDeadline: Date" style="text;align=left;verticalAlign=top;spacingLeft=4;spacingRight=4;overflow=hidden;rotatable=0;points=[[0,0.5],[1,0.5]];portConstraint=eastwest;rounded=0;shadow=0;html=0;" parent="M6HZu9PlmywMM8g6Wbbx-66" vertex="1">
          <mxGeometry y="106" width="188" height="28" as="geometry" />
        </mxCell>
        <mxCell id="M6HZu9PlmywMM8g6Wbbx-71" value="+ endingDate: Date" style="text;align=left;verticalAlign=top;spacingLeft=4;spacingRight=4;overflow=hidden;rotatable=0;points=[[0,0.5],[1,0.5]];portConstraint=eastwest;rounded=0;shadow=0;html=0;" parent="M6HZu9PlmywMM8g6Wbbx-66" vertex="1">
          <mxGeometry y="134" width="188" height="30" as="geometry" />
        </mxCell>
        <mxCell id="M6HZu9PlmywMM8g6Wbbx-107" value="+ managedby: List&lt;Educator&gt;" style="text;align=left;verticalAlign=top;spacingLeft=4;spacingRight=4;overflow=hidden;rotatable=0;points=[[0,0.5],[1,0.5]];portConstraint=eastwest;rounded=0;shadow=0;html=0;fontColor=#3399FF;fontStyle=0" parent="M6HZu9PlmywMM8g6Wbbx-66" vertex="1">
          <mxGeometry y="164" width="188" height="28" as="geometry" />
        </mxCell>
        <mxCell id="M6HZu9PlmywMM8g6Wbbx-189" value="+ battles: List&lt;Battle&gt;" style="text;align=left;verticalAlign=top;spacingLeft=4;spacingRight=4;overflow=hidden;rotatable=0;points=[[0,0.5],[1,0.5]];portConstraint=eastwest;rounded=0;shadow=0;html=0;fontColor=#3399FF;fontStyle=0" parent="M6HZu9PlmywMM8g6Wbbx-66" vertex="1">
          <mxGeometry y="192" width="188" height="28" as="geometry" />
        </mxCell>
        <mxCell id="M6HZu9PlmywMM8g6Wbbx-190" value="+ participants: List&lt;Student&gt;" style="text;align=left;verticalAlign=top;spacingLeft=4;spacingRight=4;overflow=hidden;rotatable=0;points=[[0,0.5],[1,0.5]];portConstraint=eastwest;rounded=0;shadow=0;html=0;fontColor=#3399FF;fontStyle=0" parent="M6HZu9PlmywMM8g6Wbbx-66" vertex="1">
          <mxGeometry y="220" width="188" height="28" as="geometry" />
        </mxCell>
        <mxCell id="e2k04IvYg30xB67EaK2v-5" value="+ badges: List&lt;Badge&gt;" style="text;align=left;verticalAlign=top;spacingLeft=4;spacingRight=4;overflow=hidden;rotatable=0;points=[[0,0.5],[1,0.5]];portConstraint=eastwest;rounded=0;shadow=0;html=0;fontColor=#3399FF;fontStyle=0" parent="M6HZu9PlmywMM8g6Wbbx-66" vertex="1">
          <mxGeometry y="248" width="188" height="28" as="geometry" />
        </mxCell>
        <mxCell id="M6HZu9PlmywMM8g6Wbbx-72" value="" style="endArrow=open;endSize=12;dashed=1;html=1;rounded=0;exitX=0;exitY=0.5;exitDx=0;exitDy=0;entryX=1;entryY=0.5;entryDx=0;entryDy=0;" parent="1" target="M6HZu9PlmywMM8g6Wbbx-70" edge="1">
          <mxGeometry width="160" relative="1" as="geometry">
            <mxPoint x="1041" y="928" as="sourcePoint" />
            <mxPoint x="810" y="931" as="targetPoint" />
            <Array as="points">
              <mxPoint x="911" y="928" />
              <mxPoint x="911" y="1155" />
              <mxPoint x="883" y="1150" />
            </Array>
          </mxGeometry>
        </mxCell>
        <mxCell id="M6HZu9PlmywMM8g6Wbbx-73" value="&amp;lt;&amp;lt;use&amp;gt;&amp;gt;" style="edgeLabel;html=1;align=center;verticalAlign=middle;resizable=0;points=[];" parent="M6HZu9PlmywMM8g6Wbbx-72" vertex="1" connectable="0">
          <mxGeometry x="-0.0689" y="-6" relative="1" as="geometry">
            <mxPoint x="8" y="237" as="offset" />
          </mxGeometry>
        </mxCell>
        <mxCell id="M6HZu9PlmywMM8g6Wbbx-93" value="&amp;lt;&amp;lt;use&amp;gt;&amp;gt;" style="edgeLabel;html=1;align=center;verticalAlign=middle;resizable=0;points=[];" parent="M6HZu9PlmywMM8g6Wbbx-72" vertex="1" connectable="0">
          <mxGeometry x="-0.1146" y="1" relative="1" as="geometry">
            <mxPoint as="offset" />
          </mxGeometry>
        </mxCell>
        <mxCell id="M6HZu9PlmywMM8g6Wbbx-74" value="Battle" style="swimlane;fontStyle=0;align=center;verticalAlign=top;childLayout=stackLayout;horizontal=1;startSize=26;horizontalStack=0;resizeParent=1;resizeLast=0;collapsible=1;marginBottom=0;rounded=0;shadow=0;strokeWidth=1;" parent="1" vertex="1">
          <mxGeometry x="651" y="1318" width="178" height="234" as="geometry">
            <mxRectangle x="651" y="1318" width="160" height="26" as="alternateBounds" />
          </mxGeometry>
        </mxCell>
        <mxCell id="M6HZu9PlmywMM8g6Wbbx-75" value="+ id: int" style="text;align=left;verticalAlign=top;spacingLeft=4;spacingRight=4;overflow=hidden;rotatable=0;points=[[0,0.5],[1,0.5]];portConstraint=eastwest;" parent="M6HZu9PlmywMM8g6Wbbx-74" vertex="1">
          <mxGeometry y="26" width="178" height="26" as="geometry" />
        </mxCell>
        <mxCell id="M6HZu9PlmywMM8g6Wbbx-76" value="+ name: String" style="text;align=left;verticalAlign=top;spacingLeft=4;spacingRight=4;overflow=hidden;rotatable=0;points=[[0,0.5],[1,0.5]];portConstraint=eastwest;" parent="M6HZu9PlmywMM8g6Wbbx-74" vertex="1">
          <mxGeometry y="52" width="178" height="26" as="geometry" />
        </mxCell>
        <mxCell id="M6HZu9PlmywMM8g6Wbbx-77" value="+ maxStudentsForTeam: int" style="text;align=left;verticalAlign=top;spacingLeft=4;spacingRight=4;overflow=hidden;rotatable=0;points=[[0,0.5],[1,0.5]];portConstraint=eastwest;" parent="M6HZu9PlmywMM8g6Wbbx-74" vertex="1">
          <mxGeometry y="78" width="178" height="26" as="geometry" />
        </mxCell>
        <mxCell id="M6HZu9PlmywMM8g6Wbbx-78" value="+ registrationDeadline: Date" style="text;align=left;verticalAlign=top;spacingLeft=4;spacingRight=4;overflow=hidden;rotatable=0;points=[[0,0.5],[1,0.5]];portConstraint=eastwest;" parent="M6HZu9PlmywMM8g6Wbbx-74" vertex="1">
          <mxGeometry y="104" width="178" height="26" as="geometry" />
        </mxCell>
        <mxCell id="M6HZu9PlmywMM8g6Wbbx-79" value="+ submissionDeadline: Date" style="text;align=left;verticalAlign=top;spacingLeft=4;spacingRight=4;overflow=hidden;rotatable=0;points=[[0,0.5],[1,0.5]];portConstraint=eastwest;" parent="M6HZu9PlmywMM8g6Wbbx-74" vertex="1">
          <mxGeometry y="130" width="178" height="26" as="geometry" />
        </mxCell>
        <mxCell id="M6HZu9PlmywMM8g6Wbbx-186" value="+ participants: List&lt;Team&gt;" style="text;align=left;verticalAlign=top;spacingLeft=4;spacingRight=4;overflow=hidden;rotatable=0;points=[[0,0.5],[1,0.5]];portConstraint=eastwest;fontColor=#007FFF;" parent="M6HZu9PlmywMM8g6Wbbx-74" vertex="1">
          <mxGeometry y="156" width="178" height="26" as="geometry" />
        </mxCell>
        <mxCell id="M6HZu9PlmywMM8g6Wbbx-187" value="+ managedby: Educator" style="text;align=left;verticalAlign=top;spacingLeft=4;spacingRight=4;overflow=hidden;rotatable=0;points=[[0,0.5],[1,0.5]];portConstraint=eastwest;fontColor=#3399FF;" parent="M6HZu9PlmywMM8g6Wbbx-74" vertex="1">
          <mxGeometry y="182" width="178" height="26" as="geometry" />
        </mxCell>
        <mxCell id="M6HZu9PlmywMM8g6Wbbx-191" value="+ codeKata: CodeKata" style="text;align=left;verticalAlign=top;spacingLeft=4;spacingRight=4;overflow=hidden;rotatable=0;points=[[0,0.5],[1,0.5]];portConstraint=eastwest;fontColor=#007FFF;" parent="M6HZu9PlmywMM8g6Wbbx-74" vertex="1">
          <mxGeometry y="208" width="178" height="26" as="geometry" />
        </mxCell>
        <mxCell id="M6HZu9PlmywMM8g6Wbbx-81" value="" style="endArrow=open;endSize=12;dashed=1;html=1;rounded=0;exitX=0;exitY=0.75;exitDx=0;exitDy=0;entryX=1;entryY=0.5;entryDx=0;entryDy=0;" parent="1" source="M6HZu9PlmywMM8g6Wbbx-20" target="M6HZu9PlmywMM8g6Wbbx-77" edge="1">
          <mxGeometry width="160" relative="1" as="geometry">
            <mxPoint x="999" y="984" as="sourcePoint" />
            <mxPoint x="961" y="1218" as="targetPoint" />
            <Array as="points">
              <mxPoint x="961" y="963" />
              <mxPoint x="961" y="1409" />
            </Array>
          </mxGeometry>
        </mxCell>
        <mxCell id="M6HZu9PlmywMM8g6Wbbx-82" value="&amp;lt;&amp;lt;use&amp;gt;&amp;gt;" style="edgeLabel;html=1;align=center;verticalAlign=middle;resizable=0;points=[];" parent="M6HZu9PlmywMM8g6Wbbx-81" vertex="1" connectable="0">
          <mxGeometry x="-0.0689" y="-6" relative="1" as="geometry">
            <mxPoint x="8" y="237" as="offset" />
          </mxGeometry>
        </mxCell>
        <mxCell id="M6HZu9PlmywMM8g6Wbbx-94" value="&amp;lt;&amp;lt;use&amp;gt;&amp;gt;" style="edgeLabel;html=1;align=center;verticalAlign=middle;resizable=0;points=[];" parent="M6HZu9PlmywMM8g6Wbbx-81" vertex="1" connectable="0">
          <mxGeometry x="-0.4093" y="-2" relative="1" as="geometry">
            <mxPoint as="offset" />
          </mxGeometry>
        </mxCell>
        <mxCell id="M6HZu9PlmywMM8g6Wbbx-83" value="StudentTournamentLeaderboard" style="swimlane;fontStyle=0;align=center;verticalAlign=top;childLayout=stackLayout;horizontal=1;startSize=26;horizontalStack=0;resizeParent=1;resizeLast=0;collapsible=1;marginBottom=0;rounded=0;shadow=0;strokeWidth=1;" parent="1" vertex="1">
          <mxGeometry x="1066" y="1118" width="210" height="70" as="geometry">
            <mxRectangle x="550" y="140" width="160" height="26" as="alternateBounds" />
          </mxGeometry>
        </mxCell>
        <mxCell id="M6HZu9PlmywMM8g6Wbbx-84" value="+ id: int" style="text;align=left;verticalAlign=top;spacingLeft=4;spacingRight=4;overflow=hidden;rotatable=0;points=[[0,0.5],[1,0.5]];portConstraint=eastwest;" parent="M6HZu9PlmywMM8g6Wbbx-83" vertex="1">
          <mxGeometry y="26" width="210" height="26" as="geometry" />
        </mxCell>
        <mxCell id="M6HZu9PlmywMM8g6Wbbx-85" value="StudentBattleLeaderboard" style="swimlane;fontStyle=0;align=center;verticalAlign=top;childLayout=stackLayout;horizontal=1;startSize=26;horizontalStack=0;resizeParent=1;resizeLast=0;collapsible=1;marginBottom=0;rounded=0;shadow=0;strokeWidth=1;" parent="1" vertex="1">
          <mxGeometry x="1361" y="1118" width="163" height="70" as="geometry">
            <mxRectangle x="550" y="140" width="160" height="26" as="alternateBounds" />
          </mxGeometry>
        </mxCell>
        <mxCell id="M6HZu9PlmywMM8g6Wbbx-86" value="+ id: int" style="text;align=left;verticalAlign=top;spacingLeft=4;spacingRight=4;overflow=hidden;rotatable=0;points=[[0,0.5],[1,0.5]];portConstraint=eastwest;" parent="M6HZu9PlmywMM8g6Wbbx-85" vertex="1">
          <mxGeometry y="26" width="163" height="26" as="geometry" />
        </mxCell>
        <mxCell id="M6HZu9PlmywMM8g6Wbbx-87" value="TeamBattleLeaderboard" style="swimlane;fontStyle=0;align=center;verticalAlign=top;childLayout=stackLayout;horizontal=1;startSize=26;horizontalStack=0;resizeParent=1;resizeLast=0;collapsible=1;marginBottom=0;rounded=0;shadow=0;strokeWidth=1;" parent="1" vertex="1">
          <mxGeometry x="1662.82" y="1118" width="230" height="73" as="geometry">
            <mxRectangle x="550" y="140" width="160" height="26" as="alternateBounds" />
          </mxGeometry>
        </mxCell>
        <mxCell id="M6HZu9PlmywMM8g6Wbbx-88" value="+ id: int" style="text;align=left;verticalAlign=top;spacingLeft=4;spacingRight=4;overflow=hidden;rotatable=0;points=[[0,0.5],[1,0.5]];portConstraint=eastwest;" parent="M6HZu9PlmywMM8g6Wbbx-87" vertex="1">
          <mxGeometry y="26" width="230" height="26" as="geometry" />
        </mxCell>
        <mxCell id="M6HZu9PlmywMM8g6Wbbx-89" value="0..*" style="edgeLabel;html=1;align=center;verticalAlign=middle;resizable=0;points=[];" parent="1" vertex="1" connectable="0">
          <mxGeometry x="1641.0028295195032" y="1186.0073460186973" as="geometry" />
        </mxCell>
        <mxCell id="M6HZu9PlmywMM8g6Wbbx-90" value="&amp;lt;&amp;lt;use&amp;gt;&amp;gt;" style="endArrow=open;endSize=12;dashed=1;html=1;rounded=0;exitX=0.25;exitY=1;exitDx=0;exitDy=0;entryX=0.5;entryY=0;entryDx=0;entryDy=0;" parent="1" source="M6HZu9PlmywMM8g6Wbbx-20" target="M6HZu9PlmywMM8g6Wbbx-83" edge="1">
          <mxGeometry x="-0.0023" width="160" relative="1" as="geometry">
            <mxPoint x="1381" y="1048" as="sourcePoint" />
            <mxPoint x="1541" y="1048" as="targetPoint" />
            <mxPoint as="offset" />
          </mxGeometry>
        </mxCell>
        <mxCell id="M6HZu9PlmywMM8g6Wbbx-91" value="&amp;lt;&amp;lt;use&amp;gt;&amp;gt;" style="endArrow=open;endSize=12;dashed=1;html=1;rounded=0;exitX=0.656;exitY=1.026;exitDx=0;exitDy=0;entryX=0.5;entryY=0;entryDx=0;entryDy=0;exitPerimeter=0;" parent="1" source="M6HZu9PlmywMM8g6Wbbx-20" edge="1">
          <mxGeometry x="-0.0023" width="160" relative="1" as="geometry">
            <mxPoint x="1421" y="1008" as="sourcePoint" />
            <mxPoint x="1428" y="1118" as="targetPoint" />
            <mxPoint as="offset" />
          </mxGeometry>
        </mxCell>
        <mxCell id="M6HZu9PlmywMM8g6Wbbx-92" value="&amp;lt;&amp;lt;use&amp;gt;&amp;gt;" style="endArrow=open;endSize=12;dashed=1;html=1;rounded=0;entryX=0.5;entryY=0;entryDx=0;entryDy=0;" parent="1" source="M6HZu9PlmywMM8g6Wbbx-20" edge="1">
          <mxGeometry x="-0.0023" width="160" relative="1" as="geometry">
            <mxPoint x="1761" y="1010" as="sourcePoint" />
            <mxPoint x="1768" y="1120" as="targetPoint" />
            <mxPoint as="offset" />
          </mxGeometry>
        </mxCell>
        <mxCell id="M6HZu9PlmywMM8g6Wbbx-95" value="User" style="swimlane;fontStyle=2;align=center;verticalAlign=top;childLayout=stackLayout;horizontal=1;startSize=26;horizontalStack=0;resizeParent=1;resizeLast=0;collapsible=1;marginBottom=0;rounded=0;shadow=0;strokeWidth=1;" parent="1" vertex="1">
          <mxGeometry x="651" y="1588" width="186" height="182" as="geometry">
            <mxRectangle x="230" y="140" width="160" height="26" as="alternateBounds" />
          </mxGeometry>
        </mxCell>
        <mxCell id="M6HZu9PlmywMM8g6Wbbx-96" value="+ fullName: String" style="text;align=left;verticalAlign=top;spacingLeft=4;spacingRight=4;overflow=hidden;rotatable=0;points=[[0,0.5],[1,0.5]];portConstraint=eastwest;" parent="M6HZu9PlmywMM8g6Wbbx-95" vertex="1">
          <mxGeometry y="26" width="186" height="26" as="geometry" />
        </mxCell>
        <mxCell id="M6HZu9PlmywMM8g6Wbbx-97" value="+ email: String" style="text;align=left;verticalAlign=top;spacingLeft=4;spacingRight=4;overflow=hidden;rotatable=0;points=[[0,0.5],[1,0.5]];portConstraint=eastwest;rounded=0;shadow=0;html=0;" parent="M6HZu9PlmywMM8g6Wbbx-95" vertex="1">
          <mxGeometry y="52" width="186" height="26" as="geometry" />
        </mxCell>
        <mxCell id="M6HZu9PlmywMM8g6Wbbx-98" value="+ username: String" style="text;align=left;verticalAlign=top;spacingLeft=4;spacingRight=4;overflow=hidden;rotatable=0;points=[[0,0.5],[1,0.5]];portConstraint=eastwest;rounded=0;shadow=0;html=0;" parent="M6HZu9PlmywMM8g6Wbbx-95" vertex="1">
          <mxGeometry y="78" width="186" height="26" as="geometry" />
        </mxCell>
        <mxCell id="M6HZu9PlmywMM8g6Wbbx-99" value="+ password: String" style="text;align=left;verticalAlign=top;spacingLeft=4;spacingRight=4;overflow=hidden;rotatable=0;points=[[0,0.5],[1,0.5]];portConstraint=eastwest;rounded=0;shadow=0;html=0;" parent="M6HZu9PlmywMM8g6Wbbx-95" vertex="1">
          <mxGeometry y="104" width="186" height="26" as="geometry" />
        </mxCell>
        <mxCell id="M6HZu9PlmywMM8g6Wbbx-100" value="+ role: bool" style="text;align=left;verticalAlign=top;spacingLeft=4;spacingRight=4;overflow=hidden;rotatable=0;points=[[0,0.5],[1,0.5]];portConstraint=eastwest;rounded=0;shadow=0;html=0;" parent="M6HZu9PlmywMM8g6Wbbx-95" vertex="1">
          <mxGeometry y="130" width="186" height="26" as="geometry" />
        </mxCell>
        <mxCell id="aW1p1NH9pJPPomIiRJYU-1" value="+ notifications: List&lt;Notification&gt;" style="text;align=left;verticalAlign=top;spacingLeft=4;spacingRight=4;overflow=hidden;rotatable=0;points=[[0,0.5],[1,0.5]];portConstraint=eastwest;fontColor=#007FFF;" vertex="1" parent="M6HZu9PlmywMM8g6Wbbx-95">
          <mxGeometry y="156" width="186" height="26" as="geometry" />
        </mxCell>
        <mxCell id="M6HZu9PlmywMM8g6Wbbx-101" value="&amp;lt;&amp;lt;use&amp;gt;&amp;gt;" style="endArrow=open;endSize=12;dashed=1;html=1;rounded=0;exitX=0.25;exitY=1;exitDx=0;exitDy=0;entryX=1;entryY=0.5;entryDx=0;entryDy=0;" parent="1" target="M6HZu9PlmywMM8g6Wbbx-97" edge="1">
          <mxGeometry x="-0.0023" width="160" relative="1" as="geometry">
            <mxPoint x="1181" y="1552.62" as="sourcePoint" />
            <mxPoint x="1188" y="1662.62" as="targetPoint" />
            <mxPoint as="offset" />
            <Array as="points">
              <mxPoint x="1181" y="1653" />
              <mxPoint x="991" y="1653" />
            </Array>
          </mxGeometry>
        </mxCell>
        <mxCell id="M6HZu9PlmywMM8g6Wbbx-102" value="Notification" style="swimlane;fontStyle=0;align=center;verticalAlign=top;childLayout=stackLayout;horizontal=1;startSize=26;horizontalStack=0;resizeParent=1;resizeLast=0;collapsible=1;marginBottom=0;rounded=0;shadow=0;strokeWidth=1;" parent="1" vertex="1">
          <mxGeometry x="651" y="1828" width="160" height="110" as="geometry">
            <mxRectangle x="550" y="140" width="160" height="26" as="alternateBounds" />
          </mxGeometry>
        </mxCell>
        <mxCell id="M6HZu9PlmywMM8g6Wbbx-103" value="+ message: String" style="text;align=left;verticalAlign=top;spacingLeft=4;spacingRight=4;overflow=hidden;rotatable=0;points=[[0,0.5],[1,0.5]];portConstraint=eastwest;" parent="M6HZu9PlmywMM8g6Wbbx-102" vertex="1">
          <mxGeometry y="26" width="160" height="26" as="geometry" />
        </mxCell>
        <mxCell id="M6HZu9PlmywMM8g6Wbbx-104" value="+ date: Date" style="text;align=left;verticalAlign=top;spacingLeft=4;spacingRight=4;overflow=hidden;rotatable=0;points=[[0,0.5],[1,0.5]];portConstraint=eastwest;" parent="M6HZu9PlmywMM8g6Wbbx-102" vertex="1">
          <mxGeometry y="52" width="160" height="26" as="geometry" />
        </mxCell>
        <mxCell id="M6HZu9PlmywMM8g6Wbbx-105" value="+ type: String" style="text;align=left;verticalAlign=top;spacingLeft=4;spacingRight=4;overflow=hidden;rotatable=0;points=[[0,0.5],[1,0.5]];portConstraint=eastwest;" parent="M6HZu9PlmywMM8g6Wbbx-102" vertex="1">
          <mxGeometry y="78" width="160" height="26" as="geometry" />
        </mxCell>
        <mxCell id="M6HZu9PlmywMM8g6Wbbx-109" value="&amp;lt;&amp;lt;use&amp;gt;&amp;gt;" style="endArrow=open;endSize=12;dashed=1;html=1;rounded=0;entryX=1;entryY=0.5;entryDx=0;entryDy=0;exitX=0.003;exitY=0.482;exitDx=0;exitDy=0;exitPerimeter=0;" parent="1" source="M6HZu9PlmywMM8g6Wbbx-37" edge="1">
          <mxGeometry x="-0.0023" width="160" relative="1" as="geometry">
            <mxPoint x="1181" y="1798" as="sourcePoint" />
            <mxPoint x="811" y="1898.38" as="targetPoint" />
            <mxPoint as="offset" />
            <Array as="points">
              <mxPoint x="911" y="1828" />
              <mxPoint x="911" y="1898" />
            </Array>
          </mxGeometry>
        </mxCell>
        <mxCell id="M6HZu9PlmywMM8g6Wbbx-111" value="&amp;lt;&amp;lt;use&amp;gt;&amp;gt;" style="endArrow=open;endSize=12;dashed=1;html=1;rounded=0;exitX=0;exitY=0.5;exitDx=0;exitDy=0;entryX=1;entryY=0.5;entryDx=0;entryDy=0;" parent="1" target="M6HZu9PlmywMM8g6Wbbx-99" edge="1">
          <mxGeometry x="-0.0023" width="160" relative="1" as="geometry">
            <mxPoint x="1051" y="1757.62" as="sourcePoint" />
            <mxPoint x="811" y="1828" as="targetPoint" />
            <mxPoint as="offset" />
            <Array as="points">
              <mxPoint x="911" y="1757.62" />
              <mxPoint x="911" y="1705" />
            </Array>
          </mxGeometry>
        </mxCell>
        <mxCell id="M6HZu9PlmywMM8g6Wbbx-113" value="&amp;lt;&amp;lt;use&amp;gt;&amp;gt;" style="endArrow=open;endSize=12;dashed=1;html=1;rounded=0;exitX=0;exitY=0.123;exitDx=0;exitDy=0;exitPerimeter=0;" parent="1" edge="1">
          <mxGeometry x="-0.0023" width="160" relative="1" as="geometry">
            <mxPoint x="763" y="2071.68" as="sourcePoint" />
            <mxPoint x="611" y="923" as="targetPoint" />
            <mxPoint as="offset" />
            <Array as="points">
              <mxPoint x="533" y="2072" />
              <mxPoint x="533" y="1202" />
              <mxPoint x="533" y="923" />
            </Array>
          </mxGeometry>
        </mxCell>
        <mxCell id="M6HZu9PlmywMM8g6Wbbx-121" value="Score" style="swimlane;fontStyle=0;align=center;verticalAlign=top;childLayout=stackLayout;horizontal=1;startSize=26;horizontalStack=0;resizeParent=1;resizeLast=0;collapsible=1;marginBottom=0;rounded=0;shadow=0;strokeWidth=1;" parent="1" vertex="1">
          <mxGeometry x="441" y="2208" width="160" height="100" as="geometry">
            <mxRectangle x="550" y="140" width="160" height="26" as="alternateBounds" />
          </mxGeometry>
        </mxCell>
        <mxCell id="M6HZu9PlmywMM8g6Wbbx-122" value="+ id: int" style="text;align=left;verticalAlign=top;spacingLeft=4;spacingRight=4;overflow=hidden;rotatable=0;points=[[0,0.5],[1,0.5]];portConstraint=eastwest;" parent="M6HZu9PlmywMM8g6Wbbx-121" vertex="1">
          <mxGeometry y="26" width="160" height="26" as="geometry" />
        </mxCell>
        <mxCell id="M6HZu9PlmywMM8g6Wbbx-123" value="+ fullAssessment: int" style="text;align=left;verticalAlign=top;spacingLeft=4;spacingRight=4;overflow=hidden;rotatable=0;points=[[0,0.5],[1,0.5]];portConstraint=eastwest;rounded=0;shadow=0;html=0;" parent="M6HZu9PlmywMM8g6Wbbx-121" vertex="1">
          <mxGeometry y="52" width="160" height="26" as="geometry" />
        </mxCell>
        <mxCell id="M6HZu9PlmywMM8g6Wbbx-125" value="&amp;lt;&amp;lt;use&amp;gt;&amp;gt;" style="endArrow=open;endSize=12;dashed=1;html=1;rounded=0;exitX=0;exitY=0.5;exitDx=0;exitDy=0;entryX=1;entryY=0.5;entryDx=0;entryDy=0;" parent="1" target="M6HZu9PlmywMM8g6Wbbx-123" edge="1">
          <mxGeometry x="-0.0023" width="160" relative="1" as="geometry">
            <mxPoint x="761" y="2137.62" as="sourcePoint" />
            <mxPoint x="521" y="2208" as="targetPoint" />
            <mxPoint as="offset" />
            <Array as="points">
              <mxPoint x="681" y="2138" />
              <mxPoint x="681" y="2273" />
            </Array>
          </mxGeometry>
        </mxCell>
        <mxCell id="M6HZu9PlmywMM8g6Wbbx-126" value="ManualEvaluation" style="swimlane;fontStyle=0;align=center;verticalAlign=top;childLayout=stackLayout;horizontal=1;startSize=26;horizontalStack=0;resizeParent=1;resizeLast=0;collapsible=1;marginBottom=0;rounded=0;shadow=0;strokeWidth=1;" parent="1" vertex="1">
          <mxGeometry x="441" y="2398" width="160" height="104" as="geometry">
            <mxRectangle x="550" y="140" width="160" height="26" as="alternateBounds" />
          </mxGeometry>
        </mxCell>
        <mxCell id="M6HZu9PlmywMM8g6Wbbx-127" value="+ id: id" style="text;align=left;verticalAlign=top;spacingLeft=4;spacingRight=4;overflow=hidden;rotatable=0;points=[[0,0.5],[1,0.5]];portConstraint=eastwest;" parent="M6HZu9PlmywMM8g6Wbbx-126" vertex="1">
          <mxGeometry y="26" width="160" height="26" as="geometry" />
        </mxCell>
        <mxCell id="M6HZu9PlmywMM8g6Wbbx-128" value="+ partialScore: int" style="text;align=left;verticalAlign=top;spacingLeft=4;spacingRight=4;overflow=hidden;rotatable=0;points=[[0,0.5],[1,0.5]];portConstraint=eastwest;" parent="M6HZu9PlmywMM8g6Wbbx-126" vertex="1">
          <mxGeometry y="52" width="160" height="26" as="geometry" />
        </mxCell>
        <mxCell id="M6HZu9PlmywMM8g6Wbbx-194" value="+ madeby: Educator" style="text;align=left;verticalAlign=top;spacingLeft=4;spacingRight=4;overflow=hidden;rotatable=0;points=[[0,0.5],[1,0.5]];portConstraint=eastwest;rounded=0;shadow=0;html=0;fontColor=#3399FF;" parent="M6HZu9PlmywMM8g6Wbbx-126" vertex="1">
          <mxGeometry y="78" width="160" height="26" as="geometry" />
        </mxCell>
        <mxCell id="M6HZu9PlmywMM8g6Wbbx-129" value="AutomaticEvaluation" style="swimlane;fontStyle=0;align=center;verticalAlign=top;childLayout=stackLayout;horizontal=1;startSize=26;horizontalStack=0;resizeParent=1;resizeLast=0;collapsible=1;marginBottom=0;rounded=0;shadow=0;strokeWidth=1;" parent="1" vertex="1">
          <mxGeometry x="441" y="2548" width="274" height="114" as="geometry">
            <mxRectangle x="550" y="140" width="160" height="26" as="alternateBounds" />
          </mxGeometry>
        </mxCell>
        <mxCell id="M6HZu9PlmywMM8g6Wbbx-130" value="+ id: int" style="text;align=left;verticalAlign=top;spacingLeft=4;spacingRight=4;overflow=hidden;rotatable=0;points=[[0,0.5],[1,0.5]];portConstraint=eastwest;rounded=0;shadow=0;html=0;" parent="M6HZu9PlmywMM8g6Wbbx-129" vertex="1">
          <mxGeometry y="26" width="274" height="26" as="geometry" />
        </mxCell>
        <mxCell id="M6HZu9PlmywMM8g6Wbbx-131" value="+ partialScore: int" style="text;align=left;verticalAlign=top;spacingLeft=4;spacingRight=4;overflow=hidden;rotatable=0;points=[[0,0.5],[1,0.5]];portConstraint=eastwest;rounded=0;shadow=0;html=0;" parent="M6HZu9PlmywMM8g6Wbbx-129" vertex="1">
          <mxGeometry y="52" width="274" height="26" as="geometry" />
        </mxCell>
        <mxCell id="M6HZu9PlmywMM8g6Wbbx-192" value="+ madeby: AutomaticEvaluationTool" style="text;align=left;verticalAlign=top;spacingLeft=4;spacingRight=4;overflow=hidden;rotatable=0;points=[[0,0.5],[1,0.5]];portConstraint=eastwest;rounded=0;shadow=0;html=0;fontColor=#3399FF;" parent="M6HZu9PlmywMM8g6Wbbx-129" vertex="1">
          <mxGeometry y="78" width="274" height="26" as="geometry" />
        </mxCell>
        <mxCell id="M6HZu9PlmywMM8g6Wbbx-135" value="Team" style="swimlane;fontStyle=0;align=center;verticalAlign=top;childLayout=stackLayout;horizontal=1;startSize=26;horizontalStack=0;resizeParent=1;resizeLast=0;collapsible=1;marginBottom=0;rounded=0;shadow=0;strokeWidth=1;" parent="1" vertex="1">
          <mxGeometry x="650" y="637" width="160" height="156" as="geometry">
            <mxRectangle x="550" y="140" width="160" height="26" as="alternateBounds" />
          </mxGeometry>
        </mxCell>
        <mxCell id="M6HZu9PlmywMM8g6Wbbx-136" value="+ id: int" style="text;align=left;verticalAlign=top;spacingLeft=4;spacingRight=4;overflow=hidden;rotatable=0;points=[[0,0.5],[1,0.5]];portConstraint=eastwest;" parent="M6HZu9PlmywMM8g6Wbbx-135" vertex="1">
          <mxGeometry y="26" width="160" height="26" as="geometry" />
        </mxCell>
        <mxCell id="M6HZu9PlmywMM8g6Wbbx-137" value="+ name: String" style="text;align=left;verticalAlign=top;spacingLeft=4;spacingRight=4;overflow=hidden;rotatable=0;points=[[0,0.5],[1,0.5]];portConstraint=eastwest;rounded=0;shadow=0;html=0;" parent="M6HZu9PlmywMM8g6Wbbx-135" vertex="1">
          <mxGeometry y="52" width="160" height="26" as="geometry" />
        </mxCell>
        <mxCell id="M6HZu9PlmywMM8g6Wbbx-138" value="+ numTeammates: int" style="text;align=left;verticalAlign=top;spacingLeft=4;spacingRight=4;overflow=hidden;rotatable=0;points=[[0,0.5],[1,0.5]];portConstraint=eastwest;rounded=0;shadow=0;html=0;" parent="M6HZu9PlmywMM8g6Wbbx-135" vertex="1">
          <mxGeometry y="78" width="160" height="26" as="geometry" />
        </mxCell>
        <mxCell id="M6HZu9PlmywMM8g6Wbbx-188" value="+ score : Score" style="text;align=left;verticalAlign=top;spacingLeft=4;spacingRight=4;overflow=hidden;rotatable=0;points=[[0,0.5],[1,0.5]];portConstraint=eastwest;rounded=0;shadow=0;html=0;fontColor=#3399FF;" parent="M6HZu9PlmywMM8g6Wbbx-135" vertex="1">
          <mxGeometry y="104" width="160" height="26" as="geometry" />
        </mxCell>
        <mxCell id="4kLXpQox66GEILRXVVLP-10" value="+ repository: String" style="text;align=left;verticalAlign=top;spacingLeft=4;spacingRight=4;overflow=hidden;rotatable=0;points=[[0,0.5],[1,0.5]];portConstraint=eastwest;rounded=0;shadow=0;html=0;fontColor=#3399FF;" parent="M6HZu9PlmywMM8g6Wbbx-135" vertex="1">
          <mxGeometry y="130" width="160" height="26" as="geometry" />
        </mxCell>
        <mxCell id="M6HZu9PlmywMM8g6Wbbx-140" value="&amp;lt;&amp;lt;use&amp;gt;&amp;gt;" style="endArrow=open;endSize=12;dashed=1;html=1;rounded=0;exitX=0;exitY=0.5;exitDx=0;exitDy=0;entryX=0;entryY=0.5;entryDx=0;entryDy=0;" parent="1" edge="1">
          <mxGeometry x="-0.0023" width="160" relative="1" as="geometry">
            <mxPoint x="768" y="2093" as="sourcePoint" />
            <mxPoint x="658" y="708" as="targetPoint" />
            <mxPoint as="offset" />
            <Array as="points">
              <mxPoint x="378" y="2093" />
              <mxPoint x="378" y="708" />
            </Array>
          </mxGeometry>
        </mxCell>
        <mxCell id="M6HZu9PlmywMM8g6Wbbx-142" value="" style="endArrow=open;endSize=12;dashed=1;html=1;rounded=0;exitX=-0.007;exitY=0.135;exitDx=0;exitDy=0;entryX=0.991;entryY=0.105;entryDx=0;entryDy=0;entryPerimeter=0;exitPerimeter=0;" parent="1" source="M6HZu9PlmywMM8g6Wbbx-20" edge="1">
          <mxGeometry width="160" relative="1" as="geometry">
            <mxPoint x="1041" y="728" as="sourcePoint" />
            <mxPoint x="810" y="731" as="targetPoint" />
            <Array as="points">
              <mxPoint x="871" y="852" />
              <mxPoint x="871" y="731" />
            </Array>
          </mxGeometry>
        </mxCell>
        <mxCell id="M6HZu9PlmywMM8g6Wbbx-143" value="&amp;lt;&amp;lt;use&amp;gt;&amp;gt;" style="edgeLabel;html=1;align=center;verticalAlign=middle;resizable=0;points=[];" parent="M6HZu9PlmywMM8g6Wbbx-142" vertex="1" connectable="0">
          <mxGeometry x="-0.0689" y="-6" relative="1" as="geometry">
            <mxPoint x="-2" y="-8" as="offset" />
          </mxGeometry>
        </mxCell>
        <mxCell id="M6HZu9PlmywMM8g6Wbbx-145" value="&amp;lt;&amp;lt;use&amp;gt;&amp;gt;" style="endArrow=open;endSize=12;dashed=1;html=1;rounded=0;" parent="1" edge="1">
          <mxGeometry x="-0.0023" width="160" relative="1" as="geometry">
            <mxPoint x="1054" y="2603" as="sourcePoint" />
            <mxPoint x="643" y="1163" as="targetPoint" />
            <mxPoint as="offset" />
            <Array as="points">
              <mxPoint x="1054" y="2648" />
              <mxPoint x="776" y="2648" />
              <mxPoint x="776" y="2798" />
              <mxPoint x="251" y="2798" />
              <mxPoint x="251" y="1168" />
            </Array>
          </mxGeometry>
        </mxCell>
        <mxCell id="M6HZu9PlmywMM8g6Wbbx-146" value="&amp;lt;&amp;lt;use&amp;gt;&amp;gt;" style="endArrow=open;endSize=12;dashed=1;html=1;rounded=0;entryX=0;entryY=0.5;entryDx=0;entryDy=0;" parent="1" target="M6HZu9PlmywMM8g6Wbbx-59" edge="1">
          <mxGeometry x="-0.0023" width="160" relative="1" as="geometry">
            <mxPoint x="1106" y="2606" as="sourcePoint" />
            <mxPoint x="871" y="2827" as="targetPoint" />
            <mxPoint as="offset" />
            <Array as="points">
              <mxPoint x="1106" y="2687" />
              <mxPoint x="1106" y="2728" />
              <mxPoint x="171" y="2728" />
              <mxPoint x="169" y="846" />
            </Array>
          </mxGeometry>
        </mxCell>
        <mxCell id="M6HZu9PlmywMM8g6Wbbx-149" value="SoftwareProject" style="swimlane;fontStyle=0;align=center;verticalAlign=top;childLayout=stackLayout;horizontal=1;startSize=26;horizontalStack=0;resizeParent=1;resizeLast=0;collapsible=1;marginBottom=0;rounded=0;shadow=0;strokeWidth=1;" parent="1" vertex="1">
          <mxGeometry x="875" y="530" width="190" height="130" as="geometry">
            <mxRectangle x="550" y="140" width="160" height="26" as="alternateBounds" />
          </mxGeometry>
        </mxCell>
        <mxCell id="M6HZu9PlmywMM8g6Wbbx-150" value="+ id: int" style="text;align=left;verticalAlign=top;spacingLeft=4;spacingRight=4;overflow=hidden;rotatable=0;points=[[0,0.5],[1,0.5]];portConstraint=eastwest;" parent="M6HZu9PlmywMM8g6Wbbx-149" vertex="1">
          <mxGeometry y="26" width="190" height="26" as="geometry" />
        </mxCell>
        <mxCell id="M6HZu9PlmywMM8g6Wbbx-151" value="+ buildAutomationScripts: String" style="text;align=left;verticalAlign=top;spacingLeft=4;spacingRight=4;overflow=hidden;rotatable=0;points=[[0,0.5],[1,0.5]];portConstraint=eastwest;rounded=0;shadow=0;html=0;" parent="M6HZu9PlmywMM8g6Wbbx-149" vertex="1">
          <mxGeometry y="52" width="190" height="26" as="geometry" />
        </mxCell>
        <mxCell id="M6HZu9PlmywMM8g6Wbbx-152" value="+ staticAnalysisConfig: String" style="text;align=left;verticalAlign=top;spacingLeft=4;spacingRight=4;overflow=hidden;rotatable=0;points=[[0,0.5],[1,0.5]];portConstraint=eastwest;rounded=0;shadow=0;html=0;" parent="M6HZu9PlmywMM8g6Wbbx-149" vertex="1">
          <mxGeometry y="78" width="190" height="26" as="geometry" />
        </mxCell>
        <mxCell id="M6HZu9PlmywMM8g6Wbbx-158" value="+ codeKata: CodeKata" style="text;align=left;verticalAlign=top;spacingLeft=4;spacingRight=4;overflow=hidden;rotatable=0;points=[[0,0.5],[1,0.5]];portConstraint=eastwest;rounded=0;shadow=0;html=0;fontColor=#66B2FF;" parent="M6HZu9PlmywMM8g6Wbbx-149" vertex="1">
          <mxGeometry y="104" width="190" height="26" as="geometry" />
        </mxCell>
        <mxCell id="M6HZu9PlmywMM8g6Wbbx-155" value="&amp;lt;&amp;lt;use&amp;gt;&amp;gt;" style="endArrow=open;endSize=12;dashed=1;html=1;rounded=0;entryX=0;entryY=0.308;entryDx=0;entryDy=0;entryPerimeter=0;" parent="1" target="M6HZu9PlmywMM8g6Wbbx-76" edge="1">
          <mxGeometry x="-0.0023" width="160" relative="1" as="geometry">
            <mxPoint x="865" y="2829" as="sourcePoint" />
            <mxPoint x="651" y="1388" as="targetPoint" />
            <mxPoint as="offset" />
            <Array as="points">
              <mxPoint x="801" y="2829.38" />
              <mxPoint x="312" y="2829" />
              <mxPoint x="311" y="1378" />
            </Array>
          </mxGeometry>
        </mxCell>
        <mxCell id="M6HZu9PlmywMM8g6Wbbx-157" value="&amp;lt;&amp;lt;use&amp;gt;&amp;gt;" style="endArrow=open;endSize=12;dashed=1;html=1;rounded=0;entryX=0;entryY=0.75;entryDx=0;entryDy=0;" parent="1" target="M6HZu9PlmywMM8g6Wbbx-153" edge="1">
          <mxGeometry x="-0.0023" width="160" relative="1" as="geometry">
            <mxPoint x="859" y="2886" as="sourcePoint" />
            <mxPoint x="449" y="3267" as="targetPoint" />
            <mxPoint as="offset" />
            <Array as="points">
              <mxPoint x="349" y="2886" />
              <mxPoint x="341" y="982" />
            </Array>
          </mxGeometry>
        </mxCell>
        <mxCell id="M6HZu9PlmywMM8g6Wbbx-159" value="Badge" style="swimlane;fontStyle=0;align=center;verticalAlign=top;childLayout=stackLayout;horizontal=1;startSize=26;horizontalStack=0;resizeParent=1;resizeLast=0;collapsible=1;marginBottom=0;rounded=0;shadow=0;strokeWidth=1;" parent="1" vertex="1">
          <mxGeometry x="599" y="3008" width="160" height="139" as="geometry">
            <mxRectangle x="550" y="140" width="160" height="26" as="alternateBounds" />
          </mxGeometry>
        </mxCell>
        <mxCell id="M6HZu9PlmywMM8g6Wbbx-160" value="+ id: int" style="text;align=left;verticalAlign=top;spacingLeft=4;spacingRight=4;overflow=hidden;rotatable=0;points=[[0,0.5],[1,0.5]];portConstraint=eastwest;" parent="M6HZu9PlmywMM8g6Wbbx-159" vertex="1">
          <mxGeometry y="26" width="160" height="26" as="geometry" />
        </mxCell>
        <mxCell id="M6HZu9PlmywMM8g6Wbbx-161" value="+ title: String" style="text;align=left;verticalAlign=top;spacingLeft=4;spacingRight=4;overflow=hidden;rotatable=0;points=[[0,0.5],[1,0.5]];portConstraint=eastwest;" parent="M6HZu9PlmywMM8g6Wbbx-159" vertex="1">
          <mxGeometry y="52" width="160" height="26" as="geometry" />
        </mxCell>
        <mxCell id="M6HZu9PlmywMM8g6Wbbx-162" value="+ rules: List&lt;variable&gt;" style="text;align=left;verticalAlign=top;spacingLeft=4;spacingRight=4;overflow=hidden;rotatable=0;points=[[0,0.5],[1,0.5]];portConstraint=eastwest;" parent="M6HZu9PlmywMM8g6Wbbx-159" vertex="1">
          <mxGeometry y="78" width="160" height="26" as="geometry" />
        </mxCell>
        <mxCell id="M6HZu9PlmywMM8g6Wbbx-195" value="+ createdby: Educator" style="text;align=left;verticalAlign=top;spacingLeft=4;spacingRight=4;overflow=hidden;rotatable=0;points=[[0,0.5],[1,0.5]];portConstraint=eastwest;fontColor=#3399FF;" parent="M6HZu9PlmywMM8g6Wbbx-159" vertex="1">
          <mxGeometry y="104" width="160" height="26" as="geometry" />
        </mxCell>
        <mxCell id="M6HZu9PlmywMM8g6Wbbx-166" value="AutomaticEvaluationTool" style="swimlane;fontStyle=0;align=center;verticalAlign=top;childLayout=stackLayout;horizontal=1;startSize=26;horizontalStack=0;resizeParent=1;resizeLast=0;collapsible=1;marginBottom=0;rounded=0;shadow=0;strokeWidth=1;" parent="1" vertex="1">
          <mxGeometry x="585" y="3380" width="160" height="60" as="geometry">
            <mxRectangle x="550" y="140" width="160" height="26" as="alternateBounds" />
          </mxGeometry>
        </mxCell>
        <mxCell id="M6HZu9PlmywMM8g6Wbbx-167" value="+ id: int" style="text;align=left;verticalAlign=top;spacingLeft=4;spacingRight=4;overflow=hidden;rotatable=0;points=[[0,0.5],[1,0.5]];portConstraint=eastwest;rounded=0;shadow=0;html=0;" parent="M6HZu9PlmywMM8g6Wbbx-166" vertex="1">
          <mxGeometry y="26" width="160" height="32" as="geometry" />
        </mxCell>
        <mxCell id="M6HZu9PlmywMM8g6Wbbx-168" value="&amp;lt;&amp;lt;use&amp;gt;&amp;gt;" style="endArrow=open;endSize=12;dashed=1;html=1;rounded=0;exitX=0;exitY=0.327;exitDx=0;exitDy=0;entryX=1;entryY=0.5;entryDx=0;entryDy=0;exitPerimeter=0;" parent="1" source="M6HZu9PlmywMM8g6Wbbx-52" target="M6HZu9PlmywMM8g6Wbbx-161" edge="1">
          <mxGeometry x="-0.0023" width="160" relative="1" as="geometry">
            <mxPoint x="881" y="3143" as="sourcePoint" />
            <mxPoint x="586" y="3531" as="targetPoint" />
            <mxPoint as="offset" />
            <Array as="points">
              <mxPoint x="908" y="3134" />
              <mxPoint x="874" y="3134" />
              <mxPoint x="874" y="3073" />
            </Array>
          </mxGeometry>
        </mxCell>
        <mxCell id="M6HZu9PlmywMM8g6Wbbx-170" value="&amp;lt;&amp;lt;use&amp;gt;&amp;gt;" style="endArrow=open;endSize=12;dashed=1;html=1;rounded=0;exitX=-0.002;exitY=0.402;exitDx=0;exitDy=0;exitPerimeter=0;entryX=-0.024;entryY=0.077;entryDx=0;entryDy=0;entryPerimeter=0;" parent="1" edge="1">
          <mxGeometry x="0.1488" width="160" relative="1" as="geometry">
            <mxPoint x="940" y="3203" as="sourcePoint" />
            <mxPoint x="610.48" y="883.0020000000002" as="targetPoint" />
            <mxPoint x="-1" as="offset" />
            <Array as="points">
              <mxPoint x="874" y="3203" />
              <mxPoint x="423" y="3208" />
              <mxPoint x="409" y="883" />
            </Array>
          </mxGeometry>
        </mxCell>
        <mxCell id="M6HZu9PlmywMM8g6Wbbx-172" value="&amp;lt;&amp;lt;use&amp;gt;&amp;gt;" style="endArrow=open;endSize=12;dashed=1;html=1;rounded=0;entryX=1;entryY=0.5;entryDx=0;entryDy=0;" parent="1" edge="1">
          <mxGeometry x="-0.0023" width="160" relative="1" as="geometry">
            <mxPoint x="938" y="3477" as="sourcePoint" />
            <mxPoint x="745" y="3409" as="targetPoint" />
            <mxPoint as="offset" />
            <Array as="points">
              <mxPoint x="860" y="3477" />
              <mxPoint x="860" y="3409" />
            </Array>
          </mxGeometry>
        </mxCell>
        <mxCell id="M6HZu9PlmywMM8g6Wbbx-174" value="&amp;lt;&amp;lt;use&amp;gt;&amp;gt;" style="endArrow=open;endSize=12;dashed=1;html=1;rounded=0;entryX=0.157;entryY=1.137;entryDx=0;entryDy=0;entryPerimeter=0;" parent="1" edge="1">
          <mxGeometry x="-0.0023" width="160" relative="1" as="geometry">
            <mxPoint x="995" y="3077" as="sourcePoint" />
            <mxPoint x="484.01800000000003" y="2659.562" as="targetPoint" />
            <mxPoint as="offset" />
            <Array as="points">
              <mxPoint x="995" y="3012" />
              <mxPoint x="848" y="3012" />
              <mxPoint x="848" y="2977" />
              <mxPoint x="485" y="2977" />
            </Array>
          </mxGeometry>
        </mxCell>
        <mxCell id="M6HZu9PlmywMM8g6Wbbx-178" value="Educator" style="swimlane;fontStyle=2;align=center;verticalAlign=top;childLayout=stackLayout;horizontal=1;startSize=26;horizontalStack=0;resizeParent=1;resizeLast=0;collapsible=1;marginBottom=0;rounded=0;shadow=0;strokeWidth=1;" parent="1" vertex="1">
          <mxGeometry x="581" y="3507" width="247" height="208" as="geometry">
            <mxRectangle x="230" y="140" width="160" height="26" as="alternateBounds" />
          </mxGeometry>
        </mxCell>
        <mxCell id="M6HZu9PlmywMM8g6Wbbx-179" value="+ fullName: String" style="text;align=left;verticalAlign=top;spacingLeft=4;spacingRight=4;overflow=hidden;rotatable=0;points=[[0,0.5],[1,0.5]];portConstraint=eastwest;" parent="M6HZu9PlmywMM8g6Wbbx-178" vertex="1">
          <mxGeometry y="26" width="247" height="26" as="geometry" />
        </mxCell>
        <mxCell id="M6HZu9PlmywMM8g6Wbbx-180" value="+ email: String" style="text;align=left;verticalAlign=top;spacingLeft=4;spacingRight=4;overflow=hidden;rotatable=0;points=[[0,0.5],[1,0.5]];portConstraint=eastwest;rounded=0;shadow=0;html=0;" parent="M6HZu9PlmywMM8g6Wbbx-178" vertex="1">
          <mxGeometry y="52" width="247" height="26" as="geometry" />
        </mxCell>
        <mxCell id="M6HZu9PlmywMM8g6Wbbx-181" value="+ username: String" style="text;align=left;verticalAlign=top;spacingLeft=4;spacingRight=4;overflow=hidden;rotatable=0;points=[[0,0.5],[1,0.5]];portConstraint=eastwest;rounded=0;shadow=0;html=0;" parent="M6HZu9PlmywMM8g6Wbbx-178" vertex="1">
          <mxGeometry y="78" width="247" height="26" as="geometry" />
        </mxCell>
        <mxCell id="M6HZu9PlmywMM8g6Wbbx-182" value="+ password: String" style="text;align=left;verticalAlign=top;spacingLeft=4;spacingRight=4;overflow=hidden;rotatable=0;points=[[0,0.5],[1,0.5]];portConstraint=eastwest;rounded=0;shadow=0;html=0;" parent="M6HZu9PlmywMM8g6Wbbx-178" vertex="1">
          <mxGeometry y="104" width="247" height="26" as="geometry" />
        </mxCell>
        <mxCell id="M6HZu9PlmywMM8g6Wbbx-183" value="+ role: bool" style="text;align=left;verticalAlign=top;spacingLeft=4;spacingRight=4;overflow=hidden;rotatable=0;points=[[0,0.5],[1,0.5]];portConstraint=eastwest;rounded=0;shadow=0;html=0;" parent="M6HZu9PlmywMM8g6Wbbx-178" vertex="1">
          <mxGeometry y="130" width="247" height="26" as="geometry" />
        </mxCell>
        <mxCell id="M6HZu9PlmywMM8g6Wbbx-198" value="+ managedTournamemts: List&lt;Tournament&gt;" style="text;align=left;verticalAlign=top;spacingLeft=4;spacingRight=4;overflow=hidden;rotatable=0;points=[[0,0.5],[1,0.5]];portConstraint=eastwest;rounded=0;shadow=0;html=0;fontColor=#3399FF;" parent="M6HZu9PlmywMM8g6Wbbx-178" vertex="1">
          <mxGeometry y="156" width="247" height="26" as="geometry" />
        </mxCell>
        <mxCell id="M6HZu9PlmywMM8g6Wbbx-199" value="+ managedBattles: List&lt;Battle&gt;" style="text;align=left;verticalAlign=top;spacingLeft=4;spacingRight=4;overflow=hidden;rotatable=0;points=[[0,0.5],[1,0.5]];portConstraint=eastwest;rounded=0;shadow=0;html=0;fontColor=#3399FF;" parent="M6HZu9PlmywMM8g6Wbbx-178" vertex="1">
          <mxGeometry y="182" width="247" height="26" as="geometry" />
        </mxCell>
        <mxCell id="M6HZu9PlmywMM8g6Wbbx-184" value="&amp;lt;&amp;lt;use&amp;gt;&amp;gt;" style="endArrow=open;endSize=12;dashed=1;html=1;rounded=0;exitX=0.25;exitY=1;exitDx=0;exitDy=0;entryX=1.001;entryY=0.728;entryDx=0;entryDy=0;entryPerimeter=0;" parent="1" source="M6HZu9PlmywMM8g6Wbbx-55" target="M6HZu9PlmywMM8g6Wbbx-181" edge="1">
          <mxGeometry x="-0.0023" width="160" relative="1" as="geometry">
            <mxPoint x="965" y="3645" as="sourcePoint" />
            <mxPoint x="769" y="3584" as="targetPoint" />
            <mxPoint as="offset" />
            <Array as="points">
              <mxPoint x="1091" y="3604" />
            </Array>
          </mxGeometry>
        </mxCell>
        <mxCell id="M6HZu9PlmywMM8g6Wbbx-185" value="&amp;lt;&amp;lt;use&amp;gt;&amp;gt;" style="endArrow=open;endSize=12;dashed=1;html=1;rounded=0;exitX=0.442;exitY=0.015;exitDx=0;exitDy=0;entryX=1;entryY=0.5;entryDx=0;entryDy=0;exitPerimeter=0;" parent="1" source="M6HZu9PlmywMM8g6Wbbx-55" target="M6HZu9PlmywMM8g6Wbbx-136" edge="1">
          <mxGeometry x="-0.0023" width="160" relative="1" as="geometry">
            <mxPoint x="1286" y="3338" as="sourcePoint" />
            <mxPoint x="1090" y="3277" as="targetPoint" />
            <mxPoint as="offset" />
            <Array as="points">
              <mxPoint x="1205" y="3338" />
              <mxPoint x="2582" y="3353" />
              <mxPoint x="2571" y="687" />
            </Array>
          </mxGeometry>
        </mxCell>
        <mxCell id="M6HZu9PlmywMM8g6Wbbx-200" value="&amp;lt;&amp;lt;use&amp;gt;&amp;gt;" style="endArrow=open;endSize=12;dashed=1;html=1;rounded=0;exitX=0.001;exitY=0.781;exitDx=0;exitDy=0;exitPerimeter=0;" parent="1" source="M6HZu9PlmywMM8g6Wbbx-47" edge="1">
          <mxGeometry x="-0.0023" width="160" relative="1" as="geometry">
            <mxPoint x="1662.8200000000002" y="2520" as="sourcePoint" />
            <mxPoint x="1544" y="3136" as="targetPoint" />
            <mxPoint as="offset" />
            <Array as="points">
              <mxPoint x="1667" y="2531" />
              <mxPoint x="1670" y="3136" />
            </Array>
          </mxGeometry>
        </mxCell>
        <mxCell id="M6HZu9PlmywMM8g6Wbbx-202" value="&amp;lt;&amp;lt;use&amp;gt;&amp;gt;" style="endArrow=open;endSize=12;dashed=1;html=1;rounded=0;exitX=0.658;exitY=1.011;exitDx=0;exitDy=0;entryX=1;entryY=0.5;entryDx=0;entryDy=0;exitPerimeter=0;" parent="1" target="M6HZu9PlmywMM8g6Wbbx-55" edge="1" source="M6HZu9PlmywMM8g6Wbbx-44">
          <mxGeometry x="-0.0023" width="160" relative="1" as="geometry">
            <mxPoint x="1779" y="2162" as="sourcePoint" />
            <mxPoint x="1598" y="2550" as="targetPoint" />
            <mxPoint as="offset" />
            <Array as="points">
              <mxPoint x="2260" y="2271" />
              <mxPoint x="1651" y="2271" />
              <mxPoint x="1655" y="3461" />
            </Array>
          </mxGeometry>
        </mxCell>
        <mxCell id="M6HZu9PlmywMM8g6Wbbx-204" value="&amp;lt;&amp;lt;use&amp;gt;&amp;gt;" style="endArrow=open;endSize=12;dashed=1;html=1;rounded=0;entryX=1;entryY=0.25;entryDx=0;entryDy=0;" parent="1" target="M6HZu9PlmywMM8g6Wbbx-43" edge="1">
          <mxGeometry x="-0.0023" width="160" relative="1" as="geometry">
            <mxPoint x="1687" y="967" as="sourcePoint" />
            <mxPoint x="1862" y="1095" as="targetPoint" />
            <mxPoint as="offset" />
            <Array as="points">
              <mxPoint x="1556" y="967" />
              <mxPoint x="1562" y="2095" />
            </Array>
          </mxGeometry>
        </mxCell>
        <mxCell id="e2k04IvYg30xB67EaK2v-24" style="edgeStyle=orthogonalEdgeStyle;rounded=0;orthogonalLoop=1;jettySize=auto;html=1;entryX=0;entryY=0.5;entryDx=0;entryDy=0;dashed=1;endArrow=open;endFill=0;" parent="1" source="4kLXpQox66GEILRXVVLP-3" target="M6HZu9PlmywMM8g6Wbbx-189" edge="1">
          <mxGeometry relative="1" as="geometry">
            <Array as="points">
              <mxPoint x="206" y="3788" />
              <mxPoint x="206" y="1236" />
            </Array>
          </mxGeometry>
        </mxCell>
        <mxCell id="e2k04IvYg30xB67EaK2v-25" value="&amp;lt;&amp;lt;use&amp;gt;&amp;gt;" style="edgeLabel;html=1;align=center;verticalAlign=middle;resizable=0;points=[];" parent="e2k04IvYg30xB67EaK2v-24" vertex="1" connectable="0">
          <mxGeometry x="-0.9175" y="1" relative="1" as="geometry">
            <mxPoint as="offset" />
          </mxGeometry>
        </mxCell>
        <mxCell id="4kLXpQox66GEILRXVVLP-3" value="&lt;p style=&quot;margin:0px;margin-top:4px;text-align:center;&quot;&gt;&lt;b&gt;&lt;font style=&quot;font-size: 10px;&quot;&gt;&amp;lt;&amp;lt;interface&amp;gt;&amp;gt;&lt;/font&gt;&lt;/b&gt;&lt;/p&gt;&lt;p style=&quot;margin:0px;margin-top:4px;text-align:center;&quot;&gt;&lt;b&gt;UserService&lt;/b&gt;&lt;/p&gt;&lt;hr size=&quot;1&quot;&gt;&lt;div style=&quot;height:2px;&quot;&gt;&lt;/div&gt;&lt;hr size=&quot;1&quot;&gt;&lt;div style=&quot;height:2px;&quot;&gt;&amp;nbsp;+ getRole(User user): String&lt;/div&gt;&lt;div style=&quot;height:2px;&quot;&gt;&lt;br&gt;&lt;/div&gt;&lt;div style=&quot;height:2px;&quot;&gt;&lt;br&gt;&lt;/div&gt;&lt;div style=&quot;height:2px;&quot;&gt;&lt;br&gt;&lt;/div&gt;&lt;div style=&quot;height:2px;&quot;&gt;&lt;br&gt;&lt;/div&gt;&lt;div style=&quot;height:2px;&quot;&gt;&lt;br&gt;&lt;/div&gt;&lt;div style=&quot;height:2px;&quot;&gt;&lt;br&gt;&lt;/div&gt;&lt;div style=&quot;height:2px;&quot;&gt;&lt;br&gt;&lt;/div&gt;&lt;div style=&quot;height:2px;&quot;&gt;&lt;br&gt;&lt;/div&gt;&lt;div style=&quot;height:2px;&quot;&gt;&lt;br&gt;&lt;/div&gt;&lt;div style=&quot;height:2px;&quot;&gt;&lt;br&gt;&lt;/div&gt;&lt;div style=&quot;height:2px;&quot;&gt;&lt;br&gt;&lt;/div&gt;&lt;div style=&quot;height:2px;&quot;&gt;&amp;nbsp;+ getManagedTournament(Educator educator) : List&amp;lt;Tournament&amp;gt;&lt;/div&gt;&lt;div style=&quot;height:2px;&quot;&gt;&lt;br&gt;&lt;/div&gt;&lt;div style=&quot;height:2px;&quot;&gt;&lt;br&gt;&lt;/div&gt;&lt;div style=&quot;height:2px;&quot;&gt;&lt;br&gt;&lt;/div&gt;&lt;div style=&quot;height:2px;&quot;&gt;&lt;br&gt;&lt;/div&gt;&lt;div style=&quot;height:2px;&quot;&gt;&lt;br&gt;&lt;/div&gt;&lt;div style=&quot;height:2px;&quot;&gt;&lt;br&gt;&lt;/div&gt;&lt;div style=&quot;height:2px;&quot;&gt;&lt;br&gt;&lt;/div&gt;&lt;div style=&quot;height:2px;&quot;&gt;&lt;br&gt;&lt;/div&gt;&lt;div style=&quot;height:2px;&quot;&gt;&amp;nbsp; &amp;nbsp;&lt;/div&gt;&lt;div style=&quot;height:2px;&quot;&gt;&amp;nbsp;&lt;/div&gt;&lt;div style=&quot;height:2px;&quot;&gt;&amp;nbsp;+ getManagedBattle(Educator educator): List&amp;lt;Battle&amp;gt;&lt;/div&gt;&lt;div style=&quot;height:2px;&quot;&gt;&lt;br&gt;&lt;/div&gt;&lt;div style=&quot;height:2px;&quot;&gt;&lt;br&gt;&lt;/div&gt;&lt;div style=&quot;height:2px;&quot;&gt;&lt;br&gt;&lt;/div&gt;&lt;div style=&quot;height:2px;&quot;&gt;&lt;br&gt;&lt;/div&gt;&lt;div style=&quot;height:2px;&quot;&gt;&lt;br&gt;&lt;/div&gt;&lt;div style=&quot;height:2px;&quot;&gt;&lt;br&gt;&lt;/div&gt;&lt;div style=&quot;height:2px;&quot;&gt;&lt;br&gt;&lt;/div&gt;&lt;div style=&quot;height:2px;&quot;&gt;&lt;br&gt;&lt;/div&gt;&lt;div style=&quot;height:2px;&quot;&gt;&lt;br&gt;&lt;/div&gt;&lt;div style=&quot;height:2px;&quot;&gt;&amp;nbsp;+ getUsername(User user): String&lt;/div&gt;&lt;div style=&quot;height:2px;&quot;&gt;&lt;br&gt;&lt;/div&gt;&lt;div style=&quot;height:2px;&quot;&gt;&lt;br&gt;&lt;/div&gt;&lt;div style=&quot;height:2px;&quot;&gt;&lt;br&gt;&lt;/div&gt;&lt;div style=&quot;height:2px;&quot;&gt;&lt;br&gt;&lt;/div&gt;&lt;div style=&quot;height:2px;&quot;&gt;&lt;br&gt;&lt;/div&gt;&lt;div style=&quot;height:2px;&quot;&gt;&lt;br&gt;&lt;/div&gt;&lt;div style=&quot;height:2px;&quot;&gt;&lt;br&gt;&lt;/div&gt;&lt;div style=&quot;height:2px;&quot;&gt;&lt;div style=&quot;border-color: var(--border-color); height: 2px;&quot;&gt;&lt;br&gt;&lt;/div&gt;&lt;div style=&quot;border-color: var(--border-color); height: 2px;&quot;&gt;&lt;br&gt;&lt;/div&gt;&lt;div style=&quot;border-color: var(--border-color); height: 2px;&quot;&gt;&amp;nbsp;+ setUsername(User user, String username): void&lt;/div&gt;&lt;div style=&quot;border-color: var(--border-color); height: 2px;&quot;&gt;&lt;br&gt;&lt;/div&gt;&lt;div style=&quot;border-color: var(--border-color); height: 2px;&quot;&gt;&lt;br&gt;&lt;/div&gt;&lt;div style=&quot;border-color: var(--border-color); height: 2px;&quot;&gt;&lt;br&gt;&lt;/div&gt;&lt;div style=&quot;border-color: var(--border-color); height: 2px;&quot;&gt;&lt;br&gt;&lt;/div&gt;&lt;div style=&quot;border-color: var(--border-color); height: 2px;&quot;&gt;&lt;br&gt;&lt;/div&gt;&lt;div style=&quot;border-color: var(--border-color); height: 2px;&quot;&gt;&lt;br&gt;&lt;/div&gt;&lt;div style=&quot;border-color: var(--border-color); height: 2px;&quot;&gt;&lt;br&gt;&lt;/div&gt;&lt;div style=&quot;border-color: var(--border-color); height: 2px;&quot;&gt;&lt;br&gt;&lt;/div&gt;&lt;div style=&quot;border-color: var(--border-color); height: 2px;&quot;&gt;&lt;br&gt;&lt;/div&gt;&lt;div style=&quot;border-color: var(--border-color); height: 2px;&quot;&gt;&lt;br&gt;&lt;/div&gt;&lt;div style=&quot;border-color: var(--border-color); height: 2px;&quot;&gt;&lt;br&gt;&lt;/div&gt;&lt;div style=&quot;border-color: var(--border-color); height: 2px;&quot;&gt;&lt;br&gt;&lt;/div&gt;&lt;div style=&quot;border-color: var(--border-color); height: 2px;&quot;&gt;&lt;br&gt;&lt;/div&gt;&lt;div style=&quot;border-color: var(--border-color); height: 2px;&quot;&gt;&lt;font style=&quot;border-color: var(--border-color);&quot; size=&quot;3&quot;&gt;&amp;nbsp;&lt;/font&gt;&lt;/div&gt;&lt;div style=&quot;border-color: var(--border-color); height: 2px;&quot;&gt;&lt;font style=&quot;border-color: var(--border-color);&quot; size=&quot;3&quot;&gt;&lt;br&gt;&lt;/font&gt;&lt;/div&gt;&lt;div style=&quot;border-color: var(--border-color); height: 2px;&quot;&gt;&lt;font style=&quot;border-color: var(--border-color);&quot; size=&quot;3&quot;&gt;&lt;br&gt;&lt;/font&gt;&lt;/div&gt;&lt;div style=&quot;border-color: var(--border-color); height: 2px;&quot;&gt;&lt;br style=&quot;border-color: var(--border-color);&quot;&gt;&lt;/div&gt;&lt;div style=&quot;border-color: var(--border-color); height: 2px;&quot;&gt;&lt;br style=&quot;border-color: var(--border-color);&quot;&gt;&lt;/div&gt;&lt;div style=&quot;border-color: var(--border-color); height: 2px;&quot;&gt;&lt;br style=&quot;border-color: var(--border-color);&quot;&gt;&lt;/div&gt;&lt;/div&gt;&lt;div style=&quot;height:2px;&quot;&gt;&lt;font size=&quot;3&quot;&gt;&amp;nbsp;&lt;/font&gt;&lt;/div&gt;&lt;div style=&quot;height:2px;&quot;&gt;&lt;br&gt;&lt;/div&gt;&lt;div style=&quot;height:2px;&quot;&gt;&lt;br&gt;&lt;/div&gt;&lt;div style=&quot;height:2px;&quot;&gt;&lt;br&gt;&lt;/div&gt;&lt;div style=&quot;height:2px;&quot;&gt;&lt;br&gt;&lt;/div&gt;&lt;div style=&quot;height:2px;&quot;&gt;&lt;br&gt;&lt;/div&gt;&lt;div style=&quot;height:2px;&quot;&gt;&lt;br&gt;&lt;/div&gt;&lt;div style=&quot;height:2px;&quot;&gt;&lt;br&gt;&lt;/div&gt;&lt;div style=&quot;height:2px;&quot;&gt;&amp;nbsp;&lt;/div&gt;&lt;div style=&quot;height:2px;&quot;&gt;&lt;br&gt;&lt;/div&gt;&lt;div style=&quot;height:2px;&quot;&gt;&amp;nbsp;&lt;/div&gt;&lt;div style=&quot;height:2px;&quot;&gt;&amp;nbsp;+ getBadges(Student student): List&amp;lt;Badge&amp;gt;&lt;/div&gt;" style="verticalAlign=top;align=left;overflow=fill;fontSize=12;fontFamily=Helvetica;html=1;whiteSpace=wrap;" parent="1" vertex="1">
          <mxGeometry x="1047" y="3701" width="453" height="197" as="geometry" />
        </mxCell>
        <mxCell id="4kLXpQox66GEILRXVVLP-4" value="&lt;p style=&quot;margin:0px;margin-top:4px;text-align:center;&quot;&gt;&lt;br&gt;&lt;/p&gt;&lt;p style=&quot;margin:0px;margin-top:4px;text-align:center;&quot;&gt;&lt;b&gt;UserServiceImpl&lt;/b&gt;&lt;/p&gt;&lt;hr size=&quot;1&quot;&gt;&lt;div style=&quot;height:2px;&quot;&gt;&lt;/div&gt;&lt;hr size=&quot;1&quot;&gt;&lt;div style=&quot;height:2px;&quot;&gt;&amp;nbsp;+ &amp;lt;&amp;lt;implement&amp;gt;&amp;gt; getRole(User user): String&lt;/div&gt;&lt;div style=&quot;height:2px;&quot;&gt;&lt;br&gt;&lt;/div&gt;&lt;div style=&quot;height:2px;&quot;&gt;&lt;br&gt;&lt;/div&gt;&lt;div style=&quot;height:2px;&quot;&gt;&lt;br&gt;&lt;/div&gt;&lt;div style=&quot;height:2px;&quot;&gt;&lt;br&gt;&lt;/div&gt;&lt;div style=&quot;height:2px;&quot;&gt;&lt;br&gt;&lt;/div&gt;&lt;div style=&quot;height:2px;&quot;&gt;&lt;br&gt;&lt;/div&gt;&lt;div style=&quot;height:2px;&quot;&gt;&lt;br&gt;&lt;/div&gt;&lt;div style=&quot;height:2px;&quot;&gt;&lt;br&gt;&lt;/div&gt;&lt;div style=&quot;height:2px;&quot;&gt;&lt;br&gt;&lt;/div&gt;&lt;div style=&quot;height:2px;&quot;&gt;&lt;br&gt;&lt;/div&gt;&lt;div style=&quot;height:2px;&quot;&gt;&lt;br&gt;&lt;/div&gt;&lt;div style=&quot;height:2px;&quot;&gt;&amp;nbsp;+ &amp;lt;&amp;lt;implement&amp;gt;&amp;gt; getManageTournament(Educator educator) : List&amp;lt;Tournament&amp;gt;&lt;/div&gt;&lt;div style=&quot;height:2px;&quot;&gt;&lt;br&gt;&lt;/div&gt;&lt;div style=&quot;height:2px;&quot;&gt;&lt;br&gt;&lt;/div&gt;&lt;div style=&quot;height:2px;&quot;&gt;&lt;br&gt;&lt;/div&gt;&lt;div style=&quot;height:2px;&quot;&gt;&lt;br&gt;&lt;/div&gt;&lt;div style=&quot;height:2px;&quot;&gt;&lt;br&gt;&lt;/div&gt;&lt;div style=&quot;height:2px;&quot;&gt;&lt;br&gt;&lt;/div&gt;&lt;div style=&quot;height:2px;&quot;&gt;&lt;br&gt;&lt;/div&gt;&lt;div style=&quot;height:2px;&quot;&gt;&lt;br&gt;&lt;/div&gt;&lt;div style=&quot;height:2px;&quot;&gt;&amp;nbsp; &amp;nbsp;&lt;/div&gt;&lt;div style=&quot;height:2px;&quot;&gt;&amp;nbsp;&lt;/div&gt;&lt;div style=&quot;height:2px;&quot;&gt;&amp;nbsp;+ &amp;lt;&amp;lt;implement&amp;gt;&amp;gt; getManageBattle(Educator educator): List&amp;lt;Battle&amp;gt;&lt;/div&gt;&lt;div style=&quot;height:2px;&quot;&gt;&lt;br&gt;&lt;/div&gt;&lt;div style=&quot;height:2px;&quot;&gt;&lt;br&gt;&lt;/div&gt;&lt;div style=&quot;height:2px;&quot;&gt;&lt;br&gt;&lt;/div&gt;&lt;div style=&quot;height:2px;&quot;&gt;&lt;br&gt;&lt;/div&gt;&lt;div style=&quot;height:2px;&quot;&gt;&lt;br&gt;&lt;/div&gt;&lt;div style=&quot;height:2px;&quot;&gt;&lt;br&gt;&lt;/div&gt;&lt;div style=&quot;height:2px;&quot;&gt;&lt;br&gt;&lt;/div&gt;&lt;div style=&quot;height:2px;&quot;&gt;&lt;br&gt;&lt;/div&gt;&lt;div style=&quot;height:2px;&quot;&gt;&lt;br&gt;&lt;/div&gt;&lt;div style=&quot;height:2px;&quot;&gt;&amp;nbsp;+ &amp;lt;&amp;lt;implement&amp;gt;&amp;gt; getUsername(User user): String&lt;/div&gt;&lt;div style=&quot;height:2px;&quot;&gt;&lt;br&gt;&lt;/div&gt;&lt;div style=&quot;height:2px;&quot;&gt;&lt;br&gt;&lt;/div&gt;&lt;div style=&quot;height:2px;&quot;&gt;&lt;br&gt;&lt;/div&gt;&lt;div style=&quot;height:2px;&quot;&gt;&lt;br&gt;&lt;/div&gt;&lt;div style=&quot;height:2px;&quot;&gt;&lt;br&gt;&lt;/div&gt;&lt;div style=&quot;height:2px;&quot;&gt;&lt;br&gt;&lt;/div&gt;&lt;div style=&quot;height:2px;&quot;&gt;&lt;br&gt;&lt;/div&gt;&lt;div style=&quot;height:2px;&quot;&gt;&lt;div style=&quot;border-color: var(--border-color); height: 2px;&quot;&gt;&lt;br&gt;&lt;/div&gt;&lt;div style=&quot;border-color: var(--border-color); height: 2px;&quot;&gt;&lt;br&gt;&lt;/div&gt;&lt;div style=&quot;border-color: var(--border-color); height: 2px;&quot;&gt;&amp;nbsp;+ &amp;lt;&amp;lt;implement&amp;gt;&amp;gt; setUsername(User user, String username): void&lt;/div&gt;&lt;div style=&quot;border-color: var(--border-color); height: 2px;&quot;&gt;&lt;font style=&quot;border-color: var(--border-color);&quot; size=&quot;3&quot;&gt;&amp;nbsp;&lt;/font&gt;&lt;/div&gt;&lt;div style=&quot;border-color: var(--border-color); height: 2px;&quot;&gt;&lt;br style=&quot;border-color: var(--border-color);&quot;&gt;&lt;/div&gt;&lt;div style=&quot;border-color: var(--border-color); height: 2px;&quot;&gt;&lt;br style=&quot;border-color: var(--border-color);&quot;&gt;&lt;/div&gt;&lt;div style=&quot;border-color: var(--border-color); height: 2px;&quot;&gt;&lt;br style=&quot;border-color: var(--border-color);&quot;&gt;&lt;/div&gt;&lt;/div&gt;&lt;div style=&quot;height:2px;&quot;&gt;&lt;font size=&quot;3&quot;&gt;&amp;nbsp;&lt;/font&gt;&lt;/div&gt;&lt;div style=&quot;height:2px;&quot;&gt;&lt;br&gt;&lt;/div&gt;&lt;div style=&quot;height:2px;&quot;&gt;&lt;br&gt;&lt;/div&gt;&lt;div style=&quot;height:2px;&quot;&gt;&lt;br&gt;&lt;/div&gt;&lt;div style=&quot;height:2px;&quot;&gt;&lt;br&gt;&lt;/div&gt;&lt;div style=&quot;height:2px;&quot;&gt;&lt;br&gt;&lt;/div&gt;&lt;div style=&quot;height:2px;&quot;&gt;&lt;br&gt;&lt;/div&gt;&lt;div style=&quot;height:2px;&quot;&gt;&lt;br&gt;&lt;/div&gt;&lt;div style=&quot;height:2px;&quot;&gt;&lt;br&gt;&lt;/div&gt;&lt;div style=&quot;height:2px;&quot;&gt;&amp;nbsp;&lt;/div&gt;&lt;div style=&quot;height:2px;&quot;&gt;&lt;br&gt;&lt;/div&gt;&lt;div style=&quot;height:2px;&quot;&gt;&lt;br&gt;&lt;/div&gt;&lt;div style=&quot;height:2px;&quot;&gt;&amp;nbsp;+ &amp;lt;&amp;lt;implement&amp;gt;&amp;gt; getBadges(Student student): List&amp;lt;Badge&amp;gt;&amp;nbsp; &amp;nbsp; &amp;nbsp; &amp;nbsp; &amp;nbsp; &amp;nbsp; &amp;nbsp; &amp;nbsp;&lt;/div&gt;&amp;nbsp; &amp;nbsp; &amp;nbsp; &amp;nbsp; &amp;nbsp; &amp;nbsp; &amp;nbsp; &amp;nbsp; &amp;nbsp; &amp;nbsp; &amp;nbsp; &amp;nbsp; &amp;nbsp; &amp;nbsp;&amp;nbsp;&lt;div style=&quot;height:2px;&quot;&gt;&amp;nbsp;&amp;nbsp;&lt;/div&gt;" style="verticalAlign=top;align=left;overflow=fill;fontSize=12;fontFamily=Helvetica;html=1;whiteSpace=wrap;" parent="1" vertex="1">
          <mxGeometry x="1653" y="3701" width="453" height="196" as="geometry" />
        </mxCell>
        <mxCell id="4kLXpQox66GEILRXVVLP-5" value="" style="endArrow=block;endSize=6;dashed=1;html=1;rounded=0;endFill=0;" parent="1" edge="1">
          <mxGeometry width="160" relative="1" as="geometry">
            <mxPoint x="1652" y="3801" as="sourcePoint" />
            <mxPoint x="1500" y="3801" as="targetPoint" />
          </mxGeometry>
        </mxCell>
        <mxCell id="4kLXpQox66GEILRXVVLP-6" value="&amp;lt;&amp;lt;use&amp;gt;&amp;gt;" style="endArrow=open;endSize=12;dashed=1;html=1;rounded=0;entryX=1.001;entryY=0.728;entryDx=0;entryDy=0;entryPerimeter=0;" parent="1" edge="1">
          <mxGeometry x="-0.0023" width="160" relative="1" as="geometry">
            <mxPoint x="1045" y="3818" as="sourcePoint" />
            <mxPoint x="825" y="3642.5" as="targetPoint" />
            <mxPoint as="offset" />
            <Array as="points">
              <mxPoint x="926" y="3816" />
              <mxPoint x="926" y="3751" />
              <mxPoint x="926" y="3643" />
            </Array>
          </mxGeometry>
        </mxCell>
        <mxCell id="4kLXpQox66GEILRXVVLP-7" value="&amp;lt;&amp;lt;use&amp;gt;&amp;gt;" style="endArrow=open;endSize=12;dashed=1;html=1;rounded=0;entryX=0;entryY=0.5;entryDx=0;entryDy=0;exitX=-0.005;exitY=0.858;exitDx=0;exitDy=0;exitPerimeter=0;" parent="1" edge="1">
          <mxGeometry x="-0.0023" width="160" relative="1" as="geometry">
            <mxPoint x="1043.7350000000001" y="3858.4399999999996" as="sourcePoint" />
            <mxPoint x="650" y="1682" as="targetPoint" />
            <mxPoint as="offset" />
            <Array as="points">
              <mxPoint x="928" y="3858" />
              <mxPoint x="102" y="3863" />
              <mxPoint x="106" y="1682" />
            </Array>
          </mxGeometry>
        </mxCell>
        <mxCell id="4kLXpQox66GEILRXVVLP-8" value="&amp;lt;&amp;lt;use&amp;gt;&amp;gt;" style="endArrow=open;endSize=12;dashed=1;html=1;rounded=0;entryX=0;entryY=0.25;entryDx=0;entryDy=0;exitX=-0.005;exitY=0.858;exitDx=0;exitDy=0;exitPerimeter=0;" parent="1" target="M6HZu9PlmywMM8g6Wbbx-196" edge="1">
          <mxGeometry x="-0.0023" width="160" relative="1" as="geometry">
            <mxPoint x="1048.8650000000002" y="3835.4399999999996" as="sourcePoint" />
            <mxPoint x="655.13" y="1659" as="targetPoint" />
            <mxPoint as="offset" />
            <Array as="points">
              <mxPoint x="933.13" y="3835" />
              <mxPoint x="134" y="3840" />
              <mxPoint x="140" y="996" />
            </Array>
          </mxGeometry>
        </mxCell>
        <mxCell id="4kLXpQox66GEILRXVVLP-11" value="&amp;lt;&amp;lt;use&amp;gt;&amp;gt;" style="endArrow=open;endSize=12;dashed=1;html=1;rounded=0;entryX=0;entryY=0.5;entryDx=0;entryDy=0;" parent="1" edge="1">
          <mxGeometry x="-0.0023" width="160" relative="1" as="geometry">
            <mxPoint x="859" y="2951" as="sourcePoint" />
            <mxPoint x="650" y="736" as="targetPoint" />
            <mxPoint as="offset" />
            <Array as="points">
              <mxPoint x="817" y="2951" />
              <mxPoint x="282" y="2951" />
              <mxPoint x="282" y="736" />
            </Array>
          </mxGeometry>
        </mxCell>
        <mxCell id="e2k04IvYg30xB67EaK2v-7" value="" style="endArrow=block;dashed=1;html=1;rounded=0;entryX=1;entryY=0.5;entryDx=0;entryDy=0;endFill=0;exitX=0;exitY=0.5;exitDx=0;exitDy=0;" parent="1" source="M6HZu9PlmywMM8g6Wbbx-6" edge="1">
          <mxGeometry width="160" relative="1" as="geometry">
            <mxPoint x="1781" y="599" as="sourcePoint" />
            <mxPoint x="1505" y="594" as="targetPoint" />
          </mxGeometry>
        </mxCell>
        <mxCell id="e2k04IvYg30xB67EaK2v-10" style="edgeStyle=orthogonalEdgeStyle;rounded=0;orthogonalLoop=1;jettySize=auto;html=1;entryX=1.011;entryY=-0.371;entryDx=0;entryDy=0;entryPerimeter=0;dashed=1;endArrow=open;endFill=0;" parent="1" target="M6HZu9PlmywMM8g6Wbbx-128" edge="1">
          <mxGeometry relative="1" as="geometry">
            <mxPoint x="941" y="3449" as="sourcePoint" />
            <Array as="points">
              <mxPoint x="941" y="3446" />
              <mxPoint x="810" y="3446" />
              <mxPoint x="810" y="2440" />
            </Array>
          </mxGeometry>
        </mxCell>
        <mxCell id="e2k04IvYg30xB67EaK2v-11" value="&amp;lt;&amp;lt;use&amp;gt;&amp;gt;" style="edgeLabel;html=1;align=center;verticalAlign=middle;resizable=0;points=[];" parent="e2k04IvYg30xB67EaK2v-10" vertex="1" connectable="0">
          <mxGeometry x="-0.4665" y="-3" relative="1" as="geometry">
            <mxPoint y="-1" as="offset" />
          </mxGeometry>
        </mxCell>
        <mxCell id="e2k04IvYg30xB67EaK2v-13" value="&amp;lt;&amp;lt;use&amp;gt;&amp;gt;" style="text;html=1;align=center;verticalAlign=middle;resizable=0;points=[];autosize=1;strokeColor=none;fillColor=none;" parent="1" vertex="1">
          <mxGeometry x="715" y="2682" width="65" height="26" as="geometry" />
        </mxCell>
        <mxCell id="e2k04IvYg30xB67EaK2v-14" value="Variable" style="swimlane;fontStyle=0;align=center;verticalAlign=top;childLayout=stackLayout;horizontal=1;startSize=26;horizontalStack=0;resizeParent=1;resizeLast=0;collapsible=1;marginBottom=0;rounded=0;shadow=0;strokeWidth=1;" parent="1" vertex="1">
          <mxGeometry x="158" y="3096" width="247" height="81" as="geometry">
            <mxRectangle x="230" y="140" width="160" height="26" as="alternateBounds" />
          </mxGeometry>
        </mxCell>
        <mxCell id="e2k04IvYg30xB67EaK2v-15" value="+ name: String" style="text;align=left;verticalAlign=top;spacingLeft=4;spacingRight=4;overflow=hidden;rotatable=0;points=[[0,0.5],[1,0.5]];portConstraint=eastwest;" parent="e2k04IvYg30xB67EaK2v-14" vertex="1">
          <mxGeometry y="26" width="247" height="26" as="geometry" />
        </mxCell>
        <mxCell id="e2k04IvYg30xB67EaK2v-16" value="Rule" style="swimlane;fontStyle=0;align=center;verticalAlign=top;childLayout=stackLayout;horizontal=1;startSize=26;horizontalStack=0;resizeParent=1;resizeLast=0;collapsible=1;marginBottom=0;rounded=0;shadow=0;strokeWidth=1;" parent="1" vertex="1">
          <mxGeometry x="223" y="3215" width="160" height="90" as="geometry">
            <mxRectangle x="550" y="140" width="160" height="26" as="alternateBounds" />
          </mxGeometry>
        </mxCell>
        <mxCell id="e2k04IvYg30xB67EaK2v-17" value="+ name: String" style="text;align=left;verticalAlign=top;spacingLeft=4;spacingRight=4;overflow=hidden;rotatable=0;points=[[0,0.5],[1,0.5]];portConstraint=eastwest;rounded=0;shadow=0;html=0;" parent="e2k04IvYg30xB67EaK2v-16" vertex="1">
          <mxGeometry y="26" width="160" height="32" as="geometry" />
        </mxCell>
        <mxCell id="e2k04IvYg30xB67EaK2v-18" value="+ value: bool" style="text;align=left;verticalAlign=top;spacingLeft=4;spacingRight=4;overflow=hidden;rotatable=0;points=[[0,0.5],[1,0.5]];portConstraint=eastwest;rounded=0;shadow=0;html=0;" parent="e2k04IvYg30xB67EaK2v-16" vertex="1">
          <mxGeometry y="58" width="160" height="32" as="geometry" />
        </mxCell>
        <mxCell id="e2k04IvYg30xB67EaK2v-21" style="edgeStyle=orthogonalEdgeStyle;rounded=0;orthogonalLoop=1;jettySize=auto;html=1;exitX=-0.001;exitY=0.871;exitDx=0;exitDy=0;entryX=1;entryY=0.5;entryDx=0;entryDy=0;exitPerimeter=0;dashed=1;endArrow=open;endFill=0;" parent="1" source="M6HZu9PlmywMM8g6Wbbx-52" target="e2k04IvYg30xB67EaK2v-17" edge="1">
          <mxGeometry relative="1" as="geometry" />
        </mxCell>
        <mxCell id="e2k04IvYg30xB67EaK2v-22" style="edgeStyle=orthogonalEdgeStyle;rounded=0;orthogonalLoop=1;jettySize=auto;html=1;exitX=0.001;exitY=0.94;exitDx=0;exitDy=0;entryX=0;entryY=0.5;entryDx=0;entryDy=0;dashed=1;endArrow=open;endFill=0;exitPerimeter=0;" parent="1" source="4kLXpQox66GEILRXVVLP-3" target="M6HZu9PlmywMM8g6Wbbx-162" edge="1">
          <mxGeometry relative="1" as="geometry">
            <Array as="points">
              <mxPoint x="471" y="3886" />
              <mxPoint x="471" y="3099" />
            </Array>
          </mxGeometry>
        </mxCell>
        <mxCell id="e2k04IvYg30xB67EaK2v-23" value="&amp;lt;&amp;lt;use&amp;gt;&amp;gt;" style="edgeLabel;html=1;align=center;verticalAlign=middle;resizable=0;points=[];" parent="e2k04IvYg30xB67EaK2v-22" vertex="1" connectable="0">
          <mxGeometry x="0.0797" y="-4" relative="1" as="geometry">
            <mxPoint as="offset" />
          </mxGeometry>
        </mxCell>
        <mxCell id="aW1p1NH9pJPPomIiRJYU-3" style="edgeStyle=orthogonalEdgeStyle;rounded=0;orthogonalLoop=1;jettySize=auto;html=1;exitX=0.996;exitY=0.905;exitDx=0;exitDy=0;entryX=1;entryY=0.5;entryDx=0;entryDy=0;dashed=1;endArrow=open;endFill=0;exitPerimeter=0;" edge="1" parent="1" source="M6HZu9PlmywMM8g6Wbbx-37" target="M6HZu9PlmywMM8g6Wbbx-182">
          <mxGeometry relative="1" as="geometry">
            <Array as="points">
              <mxPoint x="2610" y="1963" />
              <mxPoint x="2610" y="3624" />
            </Array>
          </mxGeometry>
        </mxCell>
        <mxCell id="aW1p1NH9pJPPomIiRJYU-6" style="edgeStyle=orthogonalEdgeStyle;rounded=0;orthogonalLoop=1;jettySize=auto;html=1;exitX=0.5;exitY=0;exitDx=0;exitDy=0;dashed=1;endArrow=open;endFill=0;endSize=13;" edge="1" parent="1" source="M6HZu9PlmywMM8g6Wbbx-47">
          <mxGeometry relative="1" as="geometry">
            <mxPoint x="1420" y="1932" as="targetPoint" />
            <Array as="points">
              <mxPoint x="2058" y="2185" />
              <mxPoint x="1617" y="2185" />
              <mxPoint x="1617" y="1932" />
            </Array>
          </mxGeometry>
        </mxCell>
        <mxCell id="aW1p1NH9pJPPomIiRJYU-7" value="&amp;lt;&amp;lt;use&amp;gt;&amp;gt;" style="edgeLabel;html=1;align=center;verticalAlign=middle;resizable=0;points=[];" vertex="1" connectable="0" parent="aW1p1NH9pJPPomIiRJYU-6">
          <mxGeometry x="-0.4289" y="3" relative="1" as="geometry">
            <mxPoint x="1" as="offset" />
          </mxGeometry>
        </mxCell>
        <mxCell id="aW1p1NH9pJPPomIiRJYU-8" style="edgeStyle=orthogonalEdgeStyle;rounded=0;orthogonalLoop=1;jettySize=auto;html=1;exitX=0.219;exitY=-0.004;exitDx=0;exitDy=0;entryX=1.002;entryY=0.655;entryDx=0;entryDy=0;entryPerimeter=0;exitPerimeter=0;dashed=1;endArrow=open;endFill=0;endSize=12;" edge="1" parent="1" source="M6HZu9PlmywMM8g6Wbbx-50" target="M6HZu9PlmywMM8g6Wbbx-37">
          <mxGeometry relative="1" as="geometry">
            <Array as="points">
              <mxPoint x="1884" y="2697" />
              <mxPoint x="2568" y="2697" />
              <mxPoint x="2568" y="1620" />
              <mxPoint x="1652" y="1620" />
              <mxPoint x="1652" y="1882" />
            </Array>
          </mxGeometry>
        </mxCell>
        <mxCell id="aW1p1NH9pJPPomIiRJYU-9" value="&amp;lt;&amp;lt;use&amp;gt;&amp;gt;" style="edgeLabel;html=1;align=center;verticalAlign=middle;resizable=0;points=[];" vertex="1" connectable="0" parent="aW1p1NH9pJPPomIiRJYU-8">
          <mxGeometry x="0.0644" y="-6" relative="1" as="geometry">
            <mxPoint as="offset" />
          </mxGeometry>
        </mxCell>
        <mxCell id="aW1p1NH9pJPPomIiRJYU-11" style="edgeStyle=orthogonalEdgeStyle;rounded=0;orthogonalLoop=1;jettySize=auto;html=1;exitX=1;exitY=0.5;exitDx=0;exitDy=0;entryX=1.01;entryY=0.136;entryDx=0;entryDy=0;entryPerimeter=0;dashed=1;endArrow=open;endFill=0;endSize=12;" edge="1" parent="1" source="M6HZu9PlmywMM8g6Wbbx-56" target="M6HZu9PlmywMM8g6Wbbx-37">
          <mxGeometry relative="1" as="geometry">
            <Array as="points">
              <mxPoint x="2658" y="3448" />
              <mxPoint x="2658" y="1580" />
              <mxPoint x="1560" y="1580" />
              <mxPoint x="1560" y="1716" />
            </Array>
          </mxGeometry>
        </mxCell>
        <mxCell id="aW1p1NH9pJPPomIiRJYU-12" value="&amp;lt;&amp;lt;use&amp;gt;&amp;gt;" style="edgeLabel;html=1;align=center;verticalAlign=middle;resizable=0;points=[];" vertex="1" connectable="0" parent="aW1p1NH9pJPPomIiRJYU-11">
          <mxGeometry x="-0.6695" y="2" relative="1" as="geometry">
            <mxPoint y="-1" as="offset" />
          </mxGeometry>
        </mxCell>
      </root>
    </mxGraphModel>
  </diagram>
</mxfile>
